G04 #@! TF.GenerationSoftware,KiCad,Pcbnew,5.0.2+dfsg1-1*
G04 #@! TF.CreationDate,2021-04-26T19:44:07+02:00*
G04 #@! TF.ProjectId,Project Helena,50726f6a-6563-4742-9048-656c656e612e,rev?*
G04 #@! TF.SameCoordinates,Original*
G04 #@! TF.FileFunction,Profile,NP*
%FSLAX46Y46*%
G04 Gerber Fmt 4.6, Leading zero omitted, Abs format (unit mm)*
G04 Created by KiCad (PCBNEW 5.0.2+dfsg1-1) date Mon 26 Apr 2021 07:44:07 PM CEST*
%MOMM*%
%LPD*%
G01*
G04 APERTURE LIST*
%ADD10C,0.150000*%
G04 APERTURE END LIST*
D10*
X337000000Y-67000000D02*
X337000000Y-81000000D01*
X376000000Y-178000000D02*
X359000000Y-178000000D01*
X376000000Y-171000000D02*
X376000000Y-178000000D01*
X369000000Y-171000000D02*
X376000000Y-171000000D01*
X369000000Y-95000000D02*
X369000000Y-171000000D01*
X340000000Y-178000000D02*
X359000000Y-178000000D01*
X340000000Y-157000000D02*
X340000000Y-178000000D01*
X337000000Y-157000000D02*
X340000000Y-157000000D01*
X360000000Y-95000000D02*
X369000000Y-95000000D01*
X360000000Y-67000000D02*
X360000000Y-95000000D01*
X340000000Y-67000000D02*
X360000000Y-67000000D01*
X340000000Y-81000000D02*
X340000000Y-67000000D01*
X337000000Y-81000000D02*
X340000000Y-81000000D01*
X316000000Y-157000000D02*
X337000000Y-157000000D01*
X316000000Y-168000000D02*
X316000000Y-157000000D01*
X316000000Y-170000000D02*
X316000000Y-168000000D01*
X316000000Y-178000000D02*
X316000000Y-170000000D01*
X58000000Y-67000000D02*
X337000000Y-67000000D01*
X30000000Y-67000000D02*
X58000000Y-67000000D01*
X30000000Y-178000000D02*
X316000000Y-178000000D01*
X30000000Y-67000000D02*
X30000000Y-178000000D01*
M02*
