M48
;DRILL file {KiCad 5.0.2+dfsg1-1} date Mon 26 Apr 2021 07:43:56 PM CEST
;FORMAT={-:-/ absolute / inch / decimal}
FMAT,2
INCH,TZ
T1C0.1575
%
G90
G05
T1
X7.245Y-5.6
X1.985Y-4.85
X6.675Y-4.1
X6.11Y-4.85
X8.745Y-5.6
X5.175Y-4.1
X6.86Y-4.85
X12.305Y-5.6
X11.275Y-5.6
X12.3Y-3.35
X3.675Y-4.1
X9.86Y-4.85
X9.495Y-6.35
X2.925Y-4.1
X7.05Y-3.35
X1.895Y-4.1
X13.775Y-4.1
X9.495Y-5.6
X13.775Y-5.6
X3.495Y-5.6
X8.55Y-3.35
X13.775Y-6.35
X11.36Y-4.85
X5.745Y-5.6
X4.425Y-4.1
X4.245Y-5.6
X10.61Y-4.85
X13.775Y-3.35
X4.05Y-3.35
X9.675Y-4.1
X5.925Y-4.1
X7.995Y-5.6
X9.3Y-3.35
X2.17Y-5.6
X12.21Y-4.85
X4.8Y-3.35
X3.11Y-4.85
X4.995Y-5.6
X8.36Y-4.85
X10.8Y-3.35
X3.86Y-4.85
X7.8Y-3.35
X10.05Y-3.35
X11.175Y-4.1
X6.495Y-5.6
X8.925Y-4.1
X5.55Y-3.35
X4.245Y-6.35
X13.775Y-4.85
X8.175Y-4.1
X10.425Y-4.1
X9.11Y-4.85
X3.3Y-3.35
X2.55Y-3.35
X5.36Y-4.85
X11.55Y-3.35
X7.425Y-4.1
X10.245Y-5.6
X6.875Y-6.35
X6.3Y-3.35
X4.61Y-4.85
X1.705Y-3.35
X12.115Y-4.1
X7.61Y-4.85
T0
M30
