G04 #@! TF.GenerationSoftware,KiCad,Pcbnew,5.0.2+dfsg1-1*
G04 #@! TF.CreationDate,2021-04-26T19:44:06+02:00*
G04 #@! TF.ProjectId,Project Helena,50726f6a-6563-4742-9048-656c656e612e,rev?*
G04 #@! TF.SameCoordinates,Original*
G04 #@! TF.FileFunction,Copper,L2,Bot*
G04 #@! TF.FilePolarity,Positive*
%FSLAX46Y46*%
G04 Gerber Fmt 4.6, Leading zero omitted, Abs format (unit mm)*
G04 Created by KiCad (PCBNEW 5.0.2+dfsg1-1) date Mon 26 Apr 2021 07:44:06 PM CEST*
%MOMM*%
%LPD*%
G01*
G04 APERTURE LIST*
G04 #@! TA.AperFunction,ComponentPad*
%ADD10C,2.200000*%
G04 #@! TD*
G04 #@! TA.AperFunction,ComponentPad*
%ADD11R,1.800000X1.800000*%
G04 #@! TD*
G04 #@! TA.AperFunction,ComponentPad*
%ADD12C,1.800000*%
G04 #@! TD*
G04 #@! TA.AperFunction,ComponentPad*
%ADD13O,1.700000X1.700000*%
G04 #@! TD*
G04 #@! TA.AperFunction,ComponentPad*
%ADD14R,1.700000X1.700000*%
G04 #@! TD*
G04 #@! TA.AperFunction,ViaPad*
%ADD15C,0.800000*%
G04 #@! TD*
G04 #@! TA.AperFunction,Conductor*
%ADD16C,0.304800*%
G04 #@! TD*
G04 APERTURE END LIST*
D10*
G04 #@! TO.P,SW63,2*
G04 #@! TO.N,P11*
X237363000Y-158750000D03*
G04 #@! TO.P,SW63,1*
G04 #@! TO.N,P7*
X243713000Y-156210000D03*
G04 #@! TD*
G04 #@! TO.P,SW55,1*
G04 #@! TO.N,P7*
X315087000Y-137160000D03*
G04 #@! TO.P,SW55,2*
G04 #@! TO.N,P16*
X308737000Y-139700000D03*
G04 #@! TD*
G04 #@! TO.P,SW1,1*
G04 #@! TO.N,P1*
X314960000Y-80010000D03*
G04 #@! TO.P,SW1,2*
G04 #@! TO.N,BCS*
X308610000Y-82550000D03*
G04 #@! TD*
D11*
G04 #@! TO.P,D1,1*
G04 #@! TO.N,WIRE_GND*
X370840000Y-174625000D03*
D12*
G04 #@! TO.P,D1,2*
G04 #@! TO.N,WIRE_LED*
X373380000Y-174625000D03*
G04 #@! TD*
D10*
G04 #@! TO.P,SW2,1*
G04 #@! TO.N,P5*
X52959000Y-118110000D03*
G04 #@! TO.P,SW2,2*
G04 #@! TO.N,BCS*
X46609000Y-120650000D03*
G04 #@! TD*
G04 #@! TO.P,SW4,1*
G04 #@! TO.N,P1*
X181610000Y-80010000D03*
G04 #@! TO.P,SW4,2*
G04 #@! TO.N,P10*
X175260000Y-82550000D03*
G04 #@! TD*
G04 #@! TO.P,SW5,2*
G04 #@! TO.N,P10*
X156210000Y-82550000D03*
G04 #@! TO.P,SW5,1*
G04 #@! TO.N,P2*
X162560000Y-80010000D03*
G04 #@! TD*
G04 #@! TO.P,SW6,1*
G04 #@! TO.N,P3*
X191135000Y-99060000D03*
G04 #@! TO.P,SW6,2*
G04 #@! TO.N,P10*
X184785000Y-101600000D03*
G04 #@! TD*
G04 #@! TO.P,SW7,2*
G04 #@! TO.N,P10*
X165735000Y-101600000D03*
G04 #@! TO.P,SW7,1*
G04 #@! TO.N,P4*
X172085000Y-99060000D03*
G04 #@! TD*
G04 #@! TO.P,SW8,1*
G04 #@! TO.N,P7*
X186563000Y-137160000D03*
G04 #@! TO.P,SW8,2*
G04 #@! TO.N,P10*
X180213000Y-139700000D03*
G04 #@! TD*
G04 #@! TO.P,SW9,2*
G04 #@! TO.N,P11*
X189484000Y-120650000D03*
G04 #@! TO.P,SW9,1*
G04 #@! TO.N,P5*
X195834000Y-118110000D03*
G04 #@! TD*
G04 #@! TO.P,SW10,1*
G04 #@! TO.N,P6*
X176784000Y-118110000D03*
G04 #@! TO.P,SW10,2*
G04 #@! TO.N,P11*
X170434000Y-120650000D03*
G04 #@! TD*
G04 #@! TO.P,SW11,2*
G04 #@! TO.N,P11*
X170815000Y-158750000D03*
G04 #@! TO.P,SW11,1*
G04 #@! TO.N,P7*
X177165000Y-156210000D03*
G04 #@! TD*
G04 #@! TO.P,SW12,1*
G04 #@! TO.N,WIRE_P8*
X352425000Y-156210000D03*
G04 #@! TO.P,SW12,2*
G04 #@! TO.N,WIRE_P11*
X346075000Y-158750000D03*
G04 #@! TD*
G04 #@! TO.P,SW13,2*
G04 #@! TO.N,P12*
X194310000Y-82550000D03*
G04 #@! TO.P,SW13,1*
G04 #@! TO.N,P1*
X200660000Y-80010000D03*
G04 #@! TD*
G04 #@! TO.P,SW14,1*
G04 #@! TO.N,P2*
X143510000Y-80010000D03*
G04 #@! TO.P,SW14,2*
G04 #@! TO.N,P12*
X137160000Y-82550000D03*
G04 #@! TD*
G04 #@! TO.P,SW15,2*
G04 #@! TO.N,P12*
X203835000Y-101600000D03*
G04 #@! TO.P,SW15,1*
G04 #@! TO.N,P3*
X210185000Y-99060000D03*
G04 #@! TD*
G04 #@! TO.P,SW16,1*
G04 #@! TO.N,P4*
X153035000Y-99060000D03*
G04 #@! TO.P,SW16,2*
G04 #@! TO.N,P12*
X146685000Y-101600000D03*
G04 #@! TD*
G04 #@! TO.P,SW17,2*
G04 #@! TO.N,P12*
X208534000Y-120650000D03*
G04 #@! TO.P,SW17,1*
G04 #@! TO.N,P5*
X214884000Y-118110000D03*
G04 #@! TD*
G04 #@! TO.P,SW18,1*
G04 #@! TO.N,P6*
X157734000Y-118110000D03*
G04 #@! TO.P,SW18,2*
G04 #@! TO.N,P12*
X151384000Y-120650000D03*
G04 #@! TD*
G04 #@! TO.P,SW19,2*
G04 #@! TO.N,P12*
X199263000Y-139700000D03*
G04 #@! TO.P,SW19,1*
G04 #@! TO.N,P7*
X205613000Y-137160000D03*
G04 #@! TD*
G04 #@! TO.P,SW20,1*
G04 #@! TO.N,P8*
X167513000Y-137160000D03*
G04 #@! TO.P,SW20,2*
G04 #@! TO.N,P12*
X161163000Y-139700000D03*
G04 #@! TD*
G04 #@! TO.P,SW21,2*
G04 #@! TO.N,WIRE_START*
X346075000Y-139700000D03*
G04 #@! TO.P,SW21,1*
G04 #@! TO.N,WIRE_GND*
X352425000Y-137160000D03*
G04 #@! TD*
G04 #@! TO.P,SW22,2*
G04 #@! TO.N,P13*
X213360000Y-82550000D03*
G04 #@! TO.P,SW22,1*
G04 #@! TO.N,P1*
X219710000Y-80010000D03*
G04 #@! TD*
G04 #@! TO.P,SW23,1*
G04 #@! TO.N,P2*
X124460000Y-80010000D03*
G04 #@! TO.P,SW23,2*
G04 #@! TO.N,P13*
X118110000Y-82550000D03*
G04 #@! TD*
G04 #@! TO.P,SW24,2*
G04 #@! TO.N,P13*
X222885000Y-101600000D03*
G04 #@! TO.P,SW24,1*
G04 #@! TO.N,P3*
X229235000Y-99060000D03*
G04 #@! TD*
G04 #@! TO.P,SW25,1*
G04 #@! TO.N,P4*
X133985000Y-99060000D03*
G04 #@! TO.P,SW25,2*
G04 #@! TO.N,P13*
X127635000Y-101600000D03*
G04 #@! TD*
G04 #@! TO.P,SW26,2*
G04 #@! TO.N,P13*
X227584000Y-120650000D03*
G04 #@! TO.P,SW26,1*
G04 #@! TO.N,P5*
X233934000Y-118110000D03*
G04 #@! TD*
G04 #@! TO.P,SW27,1*
G04 #@! TO.N,P6*
X138684000Y-118110000D03*
G04 #@! TO.P,SW27,2*
G04 #@! TO.N,P13*
X132334000Y-120650000D03*
G04 #@! TD*
G04 #@! TO.P,SW28,2*
G04 #@! TO.N,P13*
X218313000Y-139700000D03*
G04 #@! TO.P,SW28,1*
G04 #@! TO.N,P7*
X224663000Y-137160000D03*
G04 #@! TD*
G04 #@! TO.P,SW29,1*
G04 #@! TO.N,P8*
X148463000Y-137160000D03*
G04 #@! TO.P,SW29,2*
G04 #@! TO.N,P13*
X142113000Y-139700000D03*
G04 #@! TD*
G04 #@! TO.P,SW30,1*
G04 #@! TO.N,WIRE_GND*
X352425000Y-118110000D03*
G04 #@! TO.P,SW30,2*
G04 #@! TO.N,WIRE_SELECT*
X346075000Y-120650000D03*
G04 #@! TD*
G04 #@! TO.P,SW31,2*
G04 #@! TO.N,P14*
X232410000Y-82550000D03*
G04 #@! TO.P,SW31,1*
G04 #@! TO.N,P1*
X238760000Y-80010000D03*
G04 #@! TD*
G04 #@! TO.P,SW32,1*
G04 #@! TO.N,P2*
X105410000Y-80010000D03*
G04 #@! TO.P,SW32,2*
G04 #@! TO.N,P14*
X99060000Y-82550000D03*
G04 #@! TD*
G04 #@! TO.P,SW33,2*
G04 #@! TO.N,P14*
X241935000Y-101600000D03*
G04 #@! TO.P,SW33,1*
G04 #@! TO.N,P3*
X248285000Y-99060000D03*
G04 #@! TD*
G04 #@! TO.P,SW34,1*
G04 #@! TO.N,P4*
X114935000Y-99060000D03*
G04 #@! TO.P,SW34,2*
G04 #@! TO.N,P14*
X108585000Y-101600000D03*
G04 #@! TD*
G04 #@! TO.P,SW35,2*
G04 #@! TO.N,P14*
X246634000Y-120650000D03*
G04 #@! TO.P,SW35,1*
G04 #@! TO.N,P5*
X252984000Y-118110000D03*
G04 #@! TD*
G04 #@! TO.P,SW36,1*
G04 #@! TO.N,P6*
X119634000Y-118110000D03*
G04 #@! TO.P,SW36,2*
G04 #@! TO.N,P14*
X113284000Y-120650000D03*
G04 #@! TD*
G04 #@! TO.P,SW37,2*
G04 #@! TO.N,P14*
X237363000Y-139700000D03*
G04 #@! TO.P,SW37,1*
G04 #@! TO.N,P7*
X243713000Y-137160000D03*
G04 #@! TD*
G04 #@! TO.P,SW38,2*
G04 #@! TO.N,P14*
X123063000Y-139700000D03*
G04 #@! TO.P,SW38,1*
G04 #@! TO.N,P8*
X129413000Y-137160000D03*
G04 #@! TD*
G04 #@! TO.P,SW39,1*
G04 #@! TO.N,WIRE_GND*
X352425000Y-99060000D03*
G04 #@! TO.P,SW39,2*
G04 #@! TO.N,WIRE_OPTION*
X346075000Y-101600000D03*
G04 #@! TD*
G04 #@! TO.P,SW40,1*
G04 #@! TO.N,P1*
X257810000Y-80010000D03*
G04 #@! TO.P,SW40,2*
G04 #@! TO.N,P15*
X251460000Y-82550000D03*
G04 #@! TD*
G04 #@! TO.P,SW41,2*
G04 #@! TO.N,P15*
X80010000Y-82550000D03*
G04 #@! TO.P,SW41,1*
G04 #@! TO.N,P2*
X86360000Y-80010000D03*
G04 #@! TD*
G04 #@! TO.P,SW42,1*
G04 #@! TO.N,P3*
X267335000Y-99060000D03*
G04 #@! TO.P,SW42,2*
G04 #@! TO.N,P15*
X260985000Y-101600000D03*
G04 #@! TD*
G04 #@! TO.P,SW43,2*
G04 #@! TO.N,P15*
X89535000Y-101600000D03*
G04 #@! TO.P,SW43,1*
G04 #@! TO.N,P4*
X95885000Y-99060000D03*
G04 #@! TD*
G04 #@! TO.P,SW44,1*
G04 #@! TO.N,P5*
X272034000Y-118110000D03*
G04 #@! TO.P,SW44,2*
G04 #@! TO.N,P15*
X265684000Y-120650000D03*
G04 #@! TD*
G04 #@! TO.P,SW45,2*
G04 #@! TO.N,P15*
X94234000Y-120650000D03*
G04 #@! TO.P,SW45,1*
G04 #@! TO.N,P6*
X100584000Y-118110000D03*
G04 #@! TD*
G04 #@! TO.P,SW46,1*
G04 #@! TO.N,P7*
X262763000Y-137160000D03*
G04 #@! TO.P,SW46,2*
G04 #@! TO.N,P15*
X256413000Y-139700000D03*
G04 #@! TD*
G04 #@! TO.P,SW47,2*
G04 #@! TO.N,P15*
X104013000Y-139700000D03*
G04 #@! TO.P,SW47,1*
G04 #@! TO.N,P8*
X110363000Y-137160000D03*
G04 #@! TD*
G04 #@! TO.P,SW48,1*
G04 #@! TO.N,WIRE_GND*
X352425000Y-80010000D03*
G04 #@! TO.P,SW48,2*
G04 #@! TO.N,WIRE_RESET*
X346075000Y-82550000D03*
G04 #@! TD*
G04 #@! TO.P,SW49,1*
G04 #@! TO.N,P1*
X276860000Y-80010000D03*
G04 #@! TO.P,SW49,2*
G04 #@! TO.N,P16*
X270510000Y-82550000D03*
G04 #@! TD*
G04 #@! TO.P,SW50,2*
G04 #@! TO.N,P16*
X60960000Y-82550000D03*
G04 #@! TO.P,SW50,1*
G04 #@! TO.N,P2*
X67310000Y-80010000D03*
G04 #@! TD*
G04 #@! TO.P,SW51,1*
G04 #@! TO.N,P3*
X286385000Y-99060000D03*
G04 #@! TO.P,SW51,2*
G04 #@! TO.N,P16*
X280035000Y-101600000D03*
G04 #@! TD*
G04 #@! TO.P,SW52,2*
G04 #@! TO.N,P16*
X70485000Y-101600000D03*
G04 #@! TO.P,SW52,1*
G04 #@! TO.N,P4*
X76835000Y-99060000D03*
G04 #@! TD*
G04 #@! TO.P,SW53,1*
G04 #@! TO.N,P5*
X291084000Y-118110000D03*
G04 #@! TO.P,SW53,2*
G04 #@! TO.N,P16*
X284734000Y-120650000D03*
G04 #@! TD*
G04 #@! TO.P,SW54,2*
G04 #@! TO.N,P16*
X75184000Y-120650000D03*
G04 #@! TO.P,SW54,1*
G04 #@! TO.N,P6*
X81534000Y-118110000D03*
G04 #@! TD*
G04 #@! TO.P,SW56,2*
G04 #@! TO.N,P16*
X84963000Y-139700000D03*
G04 #@! TO.P,SW56,1*
G04 #@! TO.N,P8*
X91313000Y-137160000D03*
G04 #@! TD*
G04 #@! TO.P,SW57,1*
G04 #@! TO.N,P1*
X295910000Y-80010000D03*
G04 #@! TO.P,SW57,2*
G04 #@! TO.N,P17*
X289560000Y-82550000D03*
G04 #@! TD*
G04 #@! TO.P,SW58,2*
G04 #@! TO.N,P17*
X39497000Y-82550000D03*
G04 #@! TO.P,SW58,1*
G04 #@! TO.N,P2*
X45847000Y-80010000D03*
G04 #@! TD*
G04 #@! TO.P,SW59,1*
G04 #@! TO.N,P3*
X310261000Y-99060000D03*
G04 #@! TO.P,SW59,2*
G04 #@! TO.N,P17*
X303911000Y-101600000D03*
G04 #@! TD*
G04 #@! TO.P,SW60,2*
G04 #@! TO.N,P17*
X44323000Y-101600000D03*
G04 #@! TO.P,SW60,1*
G04 #@! TO.N,P4*
X50673000Y-99060000D03*
G04 #@! TD*
G04 #@! TO.P,SW61,1*
G04 #@! TO.N,P6*
X312674000Y-118110000D03*
G04 #@! TO.P,SW61,2*
G04 #@! TO.N,P17*
X306324000Y-120650000D03*
G04 #@! TD*
G04 #@! TO.P,SW62,2*
G04 #@! TO.N,P11*
X104013000Y-158750000D03*
G04 #@! TO.P,SW62,1*
G04 #@! TO.N,P7*
X110363000Y-156210000D03*
G04 #@! TD*
G04 #@! TO.P,SW64,1*
G04 #@! TO.N,P8*
X288925000Y-137160000D03*
G04 #@! TO.P,SW64,2*
G04 #@! TO.N,BCS*
X282575000Y-139700000D03*
G04 #@! TD*
G04 #@! TO.P,SW3,1*
G04 #@! TO.N,P8*
X57658000Y-137160000D03*
G04 #@! TO.P,SW3,2*
G04 #@! TO.N,BCS*
X51308000Y-139700000D03*
G04 #@! TD*
D13*
G04 #@! TO.P,J2,8*
G04 #@! TO.N,LED*
X327660000Y-149860000D03*
G04 #@! TO.P,J2,7*
G04 #@! TO.N,P8*
X327660000Y-147320000D03*
G04 #@! TO.P,J2,6*
G04 #@! TO.N,P11*
X327660000Y-144780000D03*
G04 #@! TO.P,J2,5*
G04 #@! TO.N,RESET*
X327660000Y-142240000D03*
G04 #@! TO.P,J2,4*
G04 #@! TO.N,OPTION*
X327660000Y-139700000D03*
G04 #@! TO.P,J2,3*
G04 #@! TO.N,SELECT*
X327660000Y-137160000D03*
G04 #@! TO.P,J2,2*
G04 #@! TO.N,START*
X327660000Y-134620000D03*
D14*
G04 #@! TO.P,J2,1*
G04 #@! TO.N,GND*
X327660000Y-132080000D03*
G04 #@! TD*
G04 #@! TO.P,J3,1*
G04 #@! TO.N,WIRE_GND*
X364000000Y-132080000D03*
D13*
G04 #@! TO.P,J3,2*
G04 #@! TO.N,WIRE_START*
X364000000Y-134620000D03*
G04 #@! TO.P,J3,3*
G04 #@! TO.N,WIRE_SELECT*
X364000000Y-137160000D03*
G04 #@! TO.P,J3,4*
G04 #@! TO.N,WIRE_OPTION*
X364000000Y-139700000D03*
G04 #@! TO.P,J3,5*
G04 #@! TO.N,WIRE_RESET*
X364000000Y-142240000D03*
G04 #@! TO.P,J3,6*
G04 #@! TO.N,WIRE_P11*
X364000000Y-144780000D03*
G04 #@! TO.P,J3,7*
G04 #@! TO.N,WIRE_P8*
X364000000Y-147320000D03*
G04 #@! TO.P,J3,8*
G04 #@! TO.N,WIRE_LED*
X364000000Y-149860000D03*
G04 #@! TD*
D14*
G04 #@! TO.P,J1,1*
G04 #@! TO.N,P1*
X334000000Y-80000000D03*
D13*
G04 #@! TO.P,J1,2*
G04 #@! TO.N,P2*
X334000000Y-82540000D03*
G04 #@! TO.P,J1,3*
G04 #@! TO.N,P3*
X334000000Y-85080000D03*
G04 #@! TO.P,J1,4*
G04 #@! TO.N,P4*
X334000000Y-87620000D03*
G04 #@! TO.P,J1,5*
G04 #@! TO.N,P5*
X334000000Y-90160000D03*
G04 #@! TO.P,J1,6*
G04 #@! TO.N,P6*
X334000000Y-92700000D03*
G04 #@! TO.P,J1,7*
G04 #@! TO.N,P7*
X334000000Y-95240000D03*
G04 #@! TO.P,J1,8*
G04 #@! TO.N,P8*
X334000000Y-97780000D03*
G04 #@! TO.P,J1,9*
G04 #@! TO.N,BCS*
X334000000Y-100320000D03*
G04 #@! TO.P,J1,10*
G04 #@! TO.N,P10*
X334000000Y-102860000D03*
G04 #@! TO.P,J1,11*
G04 #@! TO.N,P11*
X334000000Y-105400000D03*
G04 #@! TO.P,J1,12*
G04 #@! TO.N,P12*
X334000000Y-107940000D03*
G04 #@! TO.P,J1,13*
G04 #@! TO.N,P13*
X334000000Y-110480000D03*
G04 #@! TO.P,J1,14*
G04 #@! TO.N,P14*
X334000000Y-113020000D03*
G04 #@! TO.P,J1,15*
G04 #@! TO.N,P15*
X334000000Y-115560000D03*
G04 #@! TO.P,J1,16*
G04 #@! TO.N,P16*
X334000000Y-118100000D03*
G04 #@! TO.P,J1,17*
G04 #@! TO.N,P17*
X334000000Y-120640000D03*
G04 #@! TO.P,J1,18*
G04 #@! TO.N,GND*
X334000000Y-123180000D03*
G04 #@! TO.P,J1,19*
G04 #@! TO.N,N/C*
X334000000Y-125720000D03*
G04 #@! TO.P,J1,20*
G04 #@! TO.N,START*
X334000000Y-128260000D03*
G04 #@! TO.P,J1,21*
G04 #@! TO.N,SELECT*
X334000000Y-130800000D03*
G04 #@! TO.P,J1,22*
G04 #@! TO.N,OPTION*
X334000000Y-133340000D03*
G04 #@! TO.P,J1,23*
G04 #@! TO.N,RESET*
X334000000Y-135880000D03*
G04 #@! TO.P,J1,24*
G04 #@! TO.N,LED*
X334000000Y-138420000D03*
G04 #@! TD*
D15*
G04 #@! TO.N,P8*
X316230000Y-147320000D03*
G04 #@! TO.N,BCS*
X274320000Y-97790000D03*
G04 #@! TO.N,P10*
X306070000Y-107950000D03*
G04 #@! TO.N,P11*
X182880000Y-120650000D03*
X313690000Y-120650000D03*
G04 #@! TO.N,P12*
X313690000Y-125730000D03*
G04 #@! TO.N,P13*
X220980000Y-128270000D03*
X313690000Y-128270000D03*
G04 #@! TO.N,P14*
X238760000Y-130810000D03*
X313690000Y-130810000D03*
G04 #@! TO.N,P15*
X256413000Y-132080000D03*
X313690000Y-132080000D03*
G04 #@! TD*
D16*
G04 #@! TO.N,GND*
X327660000Y-129520000D02*
X327660000Y-132080000D01*
X334000000Y-123180000D02*
X327660000Y-129520000D01*
G04 #@! TO.N,LED*
X334000000Y-143520000D02*
X327660000Y-149860000D01*
X334000000Y-138420000D02*
X334000000Y-143520000D01*
G04 #@! TO.N,P1*
X314960000Y-80010000D02*
X295910000Y-80010000D01*
X295910000Y-80010000D02*
X276860000Y-80010000D01*
X276860000Y-80010000D02*
X257810000Y-80010000D01*
X257810000Y-80010000D02*
X238760000Y-80010000D01*
X238760000Y-80010000D02*
X219710000Y-80010000D01*
X200660000Y-80010000D02*
X219710000Y-80010000D01*
X200660000Y-80010000D02*
X181610000Y-80010000D01*
X333990000Y-80010000D02*
X334000000Y-80000000D01*
X314960000Y-80010000D02*
X333990000Y-80010000D01*
G04 #@! TO.N,P2*
X162560000Y-80010000D02*
X45847000Y-80010000D01*
X295211311Y-81465601D02*
X296608689Y-81465601D01*
X294454399Y-80708689D02*
X295211311Y-81465601D01*
X278315601Y-80708689D02*
X294454399Y-80708689D01*
X277558689Y-81465601D02*
X278315601Y-80708689D01*
X276161311Y-81465601D02*
X277558689Y-81465601D01*
X275213720Y-80518010D02*
X276161311Y-81465601D01*
X259456280Y-80518010D02*
X275213720Y-80518010D01*
X258508689Y-81465601D02*
X259456280Y-80518010D01*
X257111311Y-81465601D02*
X258508689Y-81465601D01*
X256163720Y-80518010D02*
X257111311Y-81465601D01*
X240791990Y-80518010D02*
X256163720Y-80518010D01*
X296608689Y-81465601D02*
X297365601Y-80708689D01*
X194187700Y-80518010D02*
X199013720Y-80518010D01*
X239844399Y-81465601D02*
X240791990Y-80518010D01*
X313118689Y-80708689D02*
X314960000Y-82550000D01*
X199961311Y-81465601D02*
X212290109Y-81465601D01*
X297365601Y-80708689D02*
X313118689Y-80708689D01*
X199013720Y-80518010D02*
X199961311Y-81465601D01*
X238061311Y-81465601D02*
X239844399Y-81465601D01*
X314960000Y-82550000D02*
X333990000Y-82550000D01*
X212290109Y-81465601D02*
X213237700Y-80518010D01*
X333990000Y-82550000D02*
X334000000Y-82540000D01*
X213237700Y-80518010D02*
X218063720Y-80518010D01*
X218063720Y-80518010D02*
X219011311Y-81465601D01*
X179070000Y-80010000D02*
X180525601Y-81465601D01*
X220408689Y-81465601D02*
X221356280Y-80518010D01*
X219011311Y-81465601D02*
X220408689Y-81465601D01*
X180525601Y-81465601D02*
X193240109Y-81465601D01*
X221356280Y-80518010D02*
X237113720Y-80518010D01*
X193240109Y-81465601D02*
X194187700Y-80518010D01*
X162560000Y-80010000D02*
X179070000Y-80010000D01*
X237113720Y-80518010D02*
X238061311Y-81465601D01*
G04 #@! TO.N,P3*
X310261000Y-99060000D02*
X267335000Y-99060000D01*
X267335000Y-99060000D02*
X191135000Y-99060000D01*
X333990000Y-85090000D02*
X334000000Y-85080000D01*
X316230000Y-85090000D02*
X333990000Y-85090000D01*
X310261000Y-99060000D02*
X310261000Y-91059000D01*
X310261000Y-91059000D02*
X316230000Y-85090000D01*
G04 #@! TO.N,P4*
X172085000Y-99060000D02*
X50673000Y-99060000D01*
X333990000Y-87630000D02*
X334000000Y-87620000D01*
X311150000Y-101600000D02*
X312420000Y-100330000D01*
X309880000Y-101600000D02*
X311150000Y-101600000D01*
X308424399Y-100144399D02*
X309880000Y-101600000D01*
X303212311Y-100144399D02*
X308424399Y-100144399D01*
X302841109Y-100515601D02*
X303212311Y-100144399D01*
X285686311Y-100515601D02*
X302841109Y-100515601D01*
X285315109Y-100144399D02*
X285686311Y-100515601D01*
X190436311Y-100515601D02*
X202765109Y-100515601D01*
X260286311Y-100144399D02*
X266265109Y-100144399D01*
X209115109Y-100144399D02*
X209486311Y-100515601D01*
X312420000Y-100330000D02*
X312420000Y-91440000D01*
X172085000Y-99060000D02*
X188980710Y-99060000D01*
X188980710Y-99060000D02*
X190436311Y-100515601D01*
X203136311Y-100144399D02*
X209115109Y-100144399D01*
X259915109Y-100515601D02*
X260286311Y-100144399D01*
X266265109Y-100144399D02*
X266636311Y-100515601D01*
X209486311Y-100515601D02*
X221815109Y-100515601D01*
X312420000Y-91440000D02*
X316230000Y-87630000D01*
X266636311Y-100515601D02*
X278965109Y-100515601D01*
X221815109Y-100515601D02*
X222186311Y-100144399D01*
X202765109Y-100515601D02*
X203136311Y-100144399D01*
X228536311Y-100515601D02*
X240865109Y-100515601D01*
X316230000Y-87630000D02*
X333990000Y-87630000D01*
X278965109Y-100515601D02*
X279336311Y-100144399D01*
X222186311Y-100144399D02*
X228165109Y-100144399D01*
X240865109Y-100515601D02*
X241236311Y-100144399D01*
X279336311Y-100144399D02*
X285315109Y-100144399D01*
X228165109Y-100144399D02*
X228536311Y-100515601D01*
X241236311Y-100144399D02*
X247215109Y-100144399D01*
X247215109Y-100144399D02*
X247586311Y-100515601D01*
X247586311Y-100515601D02*
X259915109Y-100515601D01*
G04 #@! TO.N,P5*
X291084000Y-118110000D02*
X195834000Y-118110000D01*
X190754000Y-113030000D02*
X195834000Y-118110000D01*
X58039000Y-113030000D02*
X190754000Y-113030000D01*
X52959000Y-118110000D02*
X58039000Y-113030000D01*
X292183999Y-117010001D02*
X298337289Y-117010001D01*
X333990000Y-90170000D02*
X334000000Y-90160000D01*
X316230000Y-90170000D02*
X333990000Y-90170000D01*
X298337289Y-117010001D02*
X313690000Y-101657290D01*
X313690000Y-101657290D02*
X313690000Y-92710000D01*
X291084000Y-118110000D02*
X292183999Y-117010001D01*
X313690000Y-92710000D02*
X316230000Y-90170000D01*
G04 #@! TO.N,P6*
X176784000Y-118110000D02*
X100584000Y-118110000D01*
X100584000Y-118110000D02*
X81534000Y-118110000D01*
X189098290Y-118110000D02*
X176784000Y-118110000D01*
X196532689Y-119565601D02*
X190553891Y-119565601D01*
X197480280Y-118618010D02*
X196532689Y-119565601D01*
X213237720Y-118618010D02*
X197480280Y-118618010D01*
X214185311Y-119565601D02*
X213237720Y-118618010D01*
X215582689Y-119565601D02*
X214185311Y-119565601D01*
X216339601Y-118808689D02*
X215582689Y-119565601D01*
X233235311Y-119565601D02*
X232478399Y-118808689D01*
X235389601Y-118808689D02*
X234632689Y-119565601D01*
X190553891Y-119565601D02*
X189098290Y-118110000D01*
X251528399Y-118808689D02*
X235389601Y-118808689D01*
X234632689Y-119565601D02*
X233235311Y-119565601D01*
X252285311Y-119565601D02*
X251528399Y-118808689D01*
X253682689Y-119565601D02*
X252285311Y-119565601D01*
X254439601Y-118808689D02*
X253682689Y-119565601D01*
X270578399Y-118808689D02*
X254439601Y-118808689D01*
X232478399Y-118808689D02*
X216339601Y-118808689D01*
X272732689Y-119565601D02*
X271335311Y-119565601D01*
X273489601Y-118808689D02*
X272732689Y-119565601D01*
X289628399Y-118808689D02*
X273489601Y-118808689D01*
X290385311Y-119565601D02*
X289628399Y-118808689D01*
X291782689Y-119565601D02*
X290385311Y-119565601D01*
X293238290Y-118110000D02*
X291782689Y-119565601D01*
X271335311Y-119565601D02*
X270578399Y-118808689D01*
X312674000Y-118110000D02*
X293238290Y-118110000D01*
X333990000Y-92710000D02*
X334000000Y-92700000D01*
X316230000Y-92710000D02*
X333990000Y-92710000D01*
X314960000Y-93980000D02*
X316230000Y-92710000D01*
X312674000Y-118110000D02*
X314960000Y-115824000D01*
X314960000Y-115824000D02*
X314960000Y-93980000D01*
G04 #@! TO.N,P7*
X266573000Y-133350000D02*
X262763000Y-137160000D01*
X311277000Y-133350000D02*
X266573000Y-133350000D01*
X315087000Y-137160000D02*
X311277000Y-133350000D01*
X262763000Y-137160000D02*
X224663000Y-137160000D01*
X224663000Y-137160000D02*
X186563000Y-137160000D01*
X243713000Y-156210000D02*
X177165000Y-156210000D01*
X177165000Y-156210000D02*
X110363000Y-156210000D01*
X333990000Y-95250000D02*
X334000000Y-95240000D01*
X317500000Y-95250000D02*
X333990000Y-95250000D01*
X316230000Y-96520000D02*
X317500000Y-95250000D01*
X316230000Y-119380000D02*
X316230000Y-96520000D01*
X315087000Y-137160000D02*
X315087000Y-120523000D01*
X315087000Y-120523000D02*
X316230000Y-119380000D01*
G04 #@! TO.N,P8*
X167513000Y-137160000D02*
X148463000Y-137160000D01*
X148463000Y-137160000D02*
X129413000Y-137160000D01*
X129413000Y-137160000D02*
X91313000Y-137160000D01*
X91313000Y-137160000D02*
X57658000Y-137160000D01*
X281940000Y-137160000D02*
X288925000Y-137160000D01*
X280484399Y-138615601D02*
X281940000Y-137160000D01*
X262064311Y-138615601D02*
X280484399Y-138615601D01*
X261307399Y-137858689D02*
X262064311Y-138615601D01*
X204157399Y-137858689D02*
X204914311Y-138615601D01*
X188018601Y-137858689D02*
X204157399Y-137858689D01*
X206824399Y-138615601D02*
X207581311Y-137858689D01*
X204914311Y-138615601D02*
X206824399Y-138615601D01*
X185864311Y-138615601D02*
X187261689Y-138615601D01*
X167513000Y-137160000D02*
X184408710Y-137160000D01*
X184408710Y-137160000D02*
X185864311Y-138615601D01*
X226118601Y-137858689D02*
X242257399Y-137858689D01*
X207581311Y-137858689D02*
X223207399Y-137858689D01*
X223207399Y-137858689D02*
X223964311Y-138615601D01*
X223964311Y-138615601D02*
X225361689Y-138615601D01*
X187261689Y-138615601D02*
X188018601Y-137858689D01*
X225361689Y-138615601D02*
X226118601Y-137858689D01*
X242257399Y-137858689D02*
X243014311Y-138615601D01*
X244924399Y-138615601D02*
X245681311Y-137858689D01*
X245681311Y-137858689D02*
X261307399Y-137858689D01*
X243014311Y-138615601D02*
X244924399Y-138615601D01*
X312932710Y-137160000D02*
X314388311Y-138615601D01*
X333990000Y-97790000D02*
X334000000Y-97780000D01*
X288925000Y-137160000D02*
X312932710Y-137160000D01*
X318770000Y-97790000D02*
X333990000Y-97790000D01*
X317500000Y-136901290D02*
X317500000Y-99060000D01*
X314388311Y-138615601D02*
X315785689Y-138615601D01*
X315785689Y-138615601D02*
X317500000Y-136901290D01*
X317500000Y-99060000D02*
X318770000Y-97790000D01*
X288925000Y-137160000D02*
X299085000Y-147320000D01*
X299085000Y-147320000D02*
X316230000Y-147320000D01*
G04 #@! TO.N,BCS*
X46609000Y-135001000D02*
X51308000Y-139700000D01*
X46609000Y-120650000D02*
X46609000Y-135001000D01*
X277679399Y-144595601D02*
X282575000Y-139700000D01*
X51308000Y-141916290D02*
X53987311Y-144595601D01*
X53987311Y-144595601D02*
X277679399Y-144595601D01*
X51308000Y-139700000D02*
X51308000Y-141916290D01*
X300990000Y-90170000D02*
X308610000Y-82550000D01*
X281940000Y-90170000D02*
X300990000Y-90170000D01*
X274320000Y-97790000D02*
X281940000Y-90170000D01*
G04 #@! TO.N,P10*
X208030710Y-107950000D02*
X306070000Y-107950000D01*
X184785000Y-101600000D02*
X201680710Y-101600000D01*
X201680710Y-101600000D02*
X208030710Y-107950000D01*
G04 #@! TO.N,P11*
X237363000Y-158750000D02*
X170815000Y-158750000D01*
X170815000Y-158750000D02*
X104013000Y-158750000D01*
X182880000Y-120650000D02*
X189484000Y-120650000D01*
X308478290Y-120650000D02*
X313690000Y-120650000D01*
X304169710Y-120650000D02*
X305625311Y-122105601D01*
X286888290Y-120650000D02*
X304169710Y-120650000D01*
X285432689Y-122105601D02*
X286888290Y-120650000D01*
X284035311Y-122105601D02*
X285432689Y-122105601D01*
X282579710Y-120650000D02*
X284035311Y-122105601D01*
X307022689Y-122105601D02*
X308478290Y-120650000D01*
X267838290Y-120650000D02*
X282579710Y-120650000D01*
X225429710Y-120650000D02*
X226885311Y-122105601D01*
X210688290Y-120650000D02*
X225429710Y-120650000D01*
X207835311Y-122105601D02*
X209232689Y-122105601D01*
X209232689Y-122105601D02*
X210688290Y-120650000D01*
X189484000Y-120650000D02*
X206379710Y-120650000D01*
X206379710Y-120650000D02*
X207835311Y-122105601D01*
X226885311Y-122105601D02*
X228282689Y-122105601D01*
X245935311Y-122105601D02*
X247332689Y-122105601D01*
X247332689Y-122105601D02*
X248788290Y-120650000D01*
X305625311Y-122105601D02*
X307022689Y-122105601D01*
X228282689Y-122105601D02*
X229738290Y-120650000D01*
X229738290Y-120650000D02*
X244479710Y-120650000D01*
X244479710Y-120650000D02*
X245935311Y-122105601D01*
X248788290Y-120650000D02*
X263529710Y-120650000D01*
X263529710Y-120650000D02*
X264985311Y-122105601D01*
X264985311Y-122105601D02*
X266382689Y-122105601D01*
X266382689Y-122105601D02*
X267838290Y-120650000D01*
X317500000Y-148590000D02*
X321310000Y-144780000D01*
X255270000Y-148590000D02*
X317500000Y-148590000D01*
X245110000Y-158750000D02*
X255270000Y-148590000D01*
X237363000Y-158750000D02*
X245110000Y-158750000D01*
X321310000Y-144780000D02*
X327660000Y-144780000D01*
G04 #@! TO.N,P12*
X173359710Y-125730000D02*
X313690000Y-125730000D01*
X151384000Y-120650000D02*
X168279710Y-120650000D01*
X168279710Y-120650000D02*
X173359710Y-125730000D01*
G04 #@! TO.N,P13*
X220980000Y-128270000D02*
X313690000Y-128270000D01*
X118110000Y-84766290D02*
X118110000Y-82550000D01*
X199250689Y-87445601D02*
X120789311Y-87445601D01*
X120789311Y-87445601D02*
X118110000Y-84766290D01*
X204146290Y-82550000D02*
X199250689Y-87445601D01*
X213360000Y-82550000D02*
X204146290Y-82550000D01*
G04 #@! TO.N,P14*
X238760000Y-130810000D02*
X313690000Y-130810000D01*
X227006389Y-87953611D02*
X232410000Y-82550000D01*
X102247321Y-87953611D02*
X227006389Y-87953611D01*
X99060000Y-84766290D02*
X102247321Y-87953611D01*
X99060000Y-82550000D02*
X99060000Y-84766290D01*
G04 #@! TO.N,P15*
X256413000Y-132080000D02*
X313690000Y-132080000D01*
X80010000Y-84766290D02*
X80010000Y-82550000D01*
X84143710Y-88900000D02*
X80010000Y-84766290D01*
X245110000Y-88900000D02*
X84143710Y-88900000D01*
X251460000Y-82550000D02*
X245110000Y-88900000D01*
G04 #@! TO.N,P16*
X60960000Y-84766290D02*
X60960000Y-82550000D01*
X65601720Y-89408010D02*
X60960000Y-84766290D01*
X263651990Y-89408010D02*
X65601720Y-89408010D01*
X270510000Y-82550000D02*
X263651990Y-89408010D01*
X333990000Y-118110000D02*
X334000000Y-118100000D01*
X320040000Y-118110000D02*
X333990000Y-118110000D01*
X318770000Y-119380000D02*
X320040000Y-118110000D01*
X318770000Y-138430000D02*
X318770000Y-119380000D01*
X308737000Y-139700000D02*
X317500000Y-139700000D01*
X317500000Y-139700000D02*
X318770000Y-138430000D01*
G04 #@! TO.N,P17*
X39497000Y-96774000D02*
X44323000Y-101600000D01*
X39497000Y-82550000D02*
X39497000Y-96774000D01*
G04 #@! TO.N,START*
X327660000Y-134600000D02*
X327660000Y-134620000D01*
X334000000Y-128260000D02*
X327660000Y-134600000D01*
G04 #@! TO.N,SELECT*
X327660000Y-137140000D02*
X327660000Y-137160000D01*
X334000000Y-130800000D02*
X327660000Y-137140000D01*
G04 #@! TO.N,OPTION*
X327660000Y-139680000D02*
X327660000Y-139700000D01*
X334000000Y-133340000D02*
X327660000Y-139680000D01*
G04 #@! TO.N,RESET*
X327660000Y-142220000D02*
X327660000Y-142240000D01*
X334000000Y-135880000D02*
X327660000Y-142220000D01*
G04 #@! TO.N,WIRE_GND*
X352425000Y-80010000D02*
X352425000Y-99060000D01*
X352425000Y-99060000D02*
X352425000Y-118110000D01*
X352425000Y-118110000D02*
X352425000Y-137160000D01*
X357505000Y-132080000D02*
X364000000Y-132080000D01*
X352425000Y-137160000D02*
X357505000Y-132080000D01*
X352425000Y-151765000D02*
X364490000Y-163830000D01*
X352425000Y-137160000D02*
X352425000Y-151765000D01*
X369635200Y-174625000D02*
X370840000Y-174625000D01*
X364490000Y-169479800D02*
X369635200Y-174625000D01*
X364490000Y-163830000D02*
X364490000Y-169479800D01*
G04 #@! TO.N,WIRE_LED*
X367030000Y-152890000D02*
X367030000Y-170180000D01*
X364000000Y-149860000D02*
X367030000Y-152890000D01*
X367030000Y-170180000D02*
X369570000Y-172720000D01*
X371475000Y-172720000D02*
X373380000Y-174625000D01*
X369570000Y-172720000D02*
X371475000Y-172720000D01*
G04 #@! TD*
M02*
