M48
;DRILL file {KiCad 5.0.2+dfsg1-1} date Mon 26 Apr 2021 07:43:56 PM CEST
;FORMAT={-:-/ absolute / inch / decimal}
FMAT,2
INCH,TZ
T1C0.0157
T2C0.0354
T3C0.0394
T4C0.0591
%
G90
G05
T1
X7.2Y-4.75
X8.7Y-5.05
X9.4Y-5.15
X10.095Y-5.2
X10.8Y-3.85
X12.05Y-4.25
X12.35Y-4.75
X12.35Y-4.95
X12.35Y-5.05
X12.35Y-5.15
X12.35Y-5.2
X12.45Y-5.8
T2
X14.6Y-6.875
X14.7Y-6.875
T3
X12.9Y-5.2
X12.9Y-5.3
X12.9Y-5.4
X12.9Y-5.5
X12.9Y-5.6
X12.9Y-5.7
X12.9Y-5.8
X12.9Y-5.9
X13.1496Y-3.1496
X13.1496Y-3.2496
X13.1496Y-3.3496
X13.1496Y-3.4496
X13.1496Y-3.5496
X13.1496Y-3.6496
X13.1496Y-3.7496
X13.1496Y-3.8496
X13.1496Y-3.9496
X13.1496Y-4.0496
X13.1496Y-4.1496
X13.1496Y-4.2496
X13.1496Y-4.3496
X13.1496Y-4.4496
X13.1496Y-4.5496
X13.1496Y-4.6496
X13.1496Y-4.7496
X13.1496Y-4.8496
X13.1496Y-4.9496
X13.1496Y-5.0496
X13.1496Y-5.1496
X13.1496Y-5.2496
X13.1496Y-5.3496
X13.1496Y-5.4496
X14.3307Y-5.2
X14.3307Y-5.3
X14.3307Y-5.4
X14.3307Y-5.5
X14.3307Y-5.6
X14.3307Y-5.7
X14.3307Y-5.8
X14.3307Y-5.9
T4
X13.625Y-4.
X13.875Y-3.9
X9.345Y-5.5
X9.595Y-5.4
X13.625Y-5.5
X13.875Y-5.4
X3.345Y-5.5
X3.595Y-5.4
X8.4Y-3.25
X8.65Y-3.15
X13.625Y-6.25
X13.875Y-6.15
X11.21Y-4.75
X11.46Y-4.65
X5.595Y-5.5
X5.845Y-5.4
X4.275Y-4.
X4.525Y-3.9
X4.095Y-5.5
X4.345Y-5.4
X10.46Y-4.75
X10.71Y-4.65
X13.625Y-3.25
X13.875Y-3.15
X3.9Y-3.25
X4.15Y-3.15
X9.525Y-4.
X9.775Y-3.9
X5.775Y-4.
X6.025Y-3.9
X7.845Y-5.5
X8.095Y-5.4
X9.15Y-3.25
X9.4Y-3.15
X2.02Y-5.5
X2.27Y-5.4
X12.06Y-4.75
X12.31Y-4.65
X4.65Y-3.25
X4.9Y-3.15
X2.96Y-4.75
X3.21Y-4.65
X4.845Y-5.5
X5.095Y-5.4
X8.21Y-4.75
X8.46Y-4.65
X10.65Y-3.25
X10.9Y-3.15
X3.71Y-4.75
X3.96Y-4.65
X7.65Y-3.25
X7.9Y-3.15
X9.9Y-3.25
X10.15Y-3.15
X11.025Y-4.
X11.275Y-3.9
X6.345Y-5.5
X6.595Y-5.4
X8.775Y-4.
X9.025Y-3.9
X5.4Y-3.25
X5.65Y-3.15
X4.095Y-6.25
X4.345Y-6.15
X13.625Y-4.75
X13.875Y-4.65
X8.025Y-4.
X8.275Y-3.9
X10.275Y-4.
X10.525Y-3.9
X8.96Y-4.75
X9.21Y-4.65
X3.15Y-3.25
X3.4Y-3.15
X2.4Y-3.25
X2.65Y-3.15
X5.21Y-4.75
X5.46Y-4.65
X11.4Y-3.25
X11.65Y-3.15
X7.275Y-4.
X7.525Y-3.9
X10.095Y-5.5
X10.345Y-5.4
X6.725Y-6.25
X6.975Y-6.15
X6.15Y-3.25
X6.4Y-3.15
X4.46Y-4.75
X4.71Y-4.65
X1.555Y-3.25
X1.805Y-3.15
X11.965Y-4.
X12.215Y-3.9
X7.46Y-4.75
X7.71Y-4.65
X7.095Y-5.5
X7.345Y-5.4
X1.835Y-4.75
X2.085Y-4.65
X6.525Y-4.
X6.775Y-3.9
X5.96Y-4.75
X6.21Y-4.65
X8.595Y-5.5
X8.845Y-5.4
X5.025Y-4.
X5.275Y-3.9
X6.71Y-4.75
X6.96Y-4.65
X12.155Y-5.5
X12.405Y-5.4
X11.125Y-5.5
X11.375Y-5.4
X12.15Y-3.25
X12.4Y-3.15
X3.525Y-4.
X3.775Y-3.9
X9.71Y-4.75
X9.96Y-4.65
X9.345Y-6.25
X9.595Y-6.15
X2.775Y-4.
X3.025Y-3.9
X6.9Y-3.25
X7.15Y-3.15
X1.745Y-4.
X1.995Y-3.9
T0
M30
