G04 #@! TF.GenerationSoftware,KiCad,Pcbnew,5.0.2+dfsg1-1*
G04 #@! TF.CreationDate,2021-04-26T19:44:06+02:00*
G04 #@! TF.ProjectId,Project Helena,50726f6a-6563-4742-9048-656c656e612e,rev?*
G04 #@! TF.SameCoordinates,Original*
G04 #@! TF.FileFunction,Legend,Top*
G04 #@! TF.FilePolarity,Positive*
%FSLAX46Y46*%
G04 Gerber Fmt 4.6, Leading zero omitted, Abs format (unit mm)*
G04 Created by KiCad (PCBNEW 5.0.2+dfsg1-1) date Mon 26 Apr 2021 07:44:06 PM CEST*
%MOMM*%
%LPD*%
G01*
G04 APERTURE LIST*
%ADD10C,0.150000*%
%ADD11C,0.600000*%
%ADD12C,0.300000*%
%ADD13C,0.200000*%
%ADD14C,0.120000*%
G04 APERTURE END LIST*
D10*
G36*
X272000000Y-162000000D02*
X292000000Y-162000000D01*
X292000000Y-170000000D01*
X272000000Y-170000000D01*
X272000000Y-162000000D01*
G37*
X272000000Y-162000000D02*
X292000000Y-162000000D01*
X292000000Y-170000000D01*
X272000000Y-170000000D01*
X272000000Y-162000000D01*
D11*
X277857142Y-159357142D02*
X276857142Y-157928571D01*
X276142857Y-159357142D02*
X276142857Y-156357142D01*
X277285714Y-156357142D01*
X277571428Y-156500000D01*
X277714285Y-156642857D01*
X277857142Y-156928571D01*
X277857142Y-157357142D01*
X277714285Y-157642857D01*
X277571428Y-157785714D01*
X277285714Y-157928571D01*
X276142857Y-157928571D01*
X279142857Y-157785714D02*
X280142857Y-157785714D01*
X280571428Y-159357142D02*
X279142857Y-159357142D01*
X279142857Y-156357142D01*
X280571428Y-156357142D01*
X281428571Y-156357142D02*
X282428571Y-159357142D01*
X283428571Y-156357142D01*
X286571428Y-158500000D02*
X288000000Y-158500000D01*
X286285714Y-159357142D02*
X287285714Y-156357142D01*
X288285714Y-159357142D01*
D12*
X39976071Y-165350000D02*
X40690357Y-165350000D01*
X39779642Y-165778571D02*
X40467142Y-164278571D01*
X40779642Y-165778571D01*
X41404642Y-164778571D02*
X41217142Y-166278571D01*
X41395714Y-164850000D02*
X41547499Y-164778571D01*
X41833214Y-164778571D01*
X41967142Y-164850000D01*
X42029642Y-164921428D01*
X42083214Y-165064285D01*
X42029642Y-165492857D01*
X41940357Y-165635714D01*
X41859999Y-165707142D01*
X41708214Y-165778571D01*
X41422499Y-165778571D01*
X41288571Y-165707142D01*
X42636785Y-165778571D02*
X42761785Y-164778571D01*
X42726071Y-165064285D02*
X42815357Y-164921428D01*
X42895714Y-164850000D01*
X43047499Y-164778571D01*
X43190357Y-164778571D01*
X43565357Y-165778571D02*
X43690357Y-164778571D01*
X43752857Y-164278571D02*
X43672499Y-164350000D01*
X43734999Y-164421428D01*
X43815357Y-164350000D01*
X43752857Y-164278571D01*
X43734999Y-164421428D01*
X44493928Y-165778571D02*
X44359999Y-165707142D01*
X44306428Y-165564285D01*
X44467142Y-164278571D01*
X46306428Y-164421428D02*
X46386785Y-164350000D01*
X46538571Y-164278571D01*
X46895714Y-164278571D01*
X47029642Y-164350000D01*
X47092142Y-164421428D01*
X47145714Y-164564285D01*
X47127857Y-164707142D01*
X47029642Y-164921428D01*
X46065357Y-165778571D01*
X46993928Y-165778571D01*
X48109999Y-164278571D02*
X48252857Y-164278571D01*
X48386785Y-164350000D01*
X48449285Y-164421428D01*
X48502857Y-164564285D01*
X48538571Y-164850000D01*
X48493928Y-165207142D01*
X48386785Y-165492857D01*
X48297499Y-165635714D01*
X48217142Y-165707142D01*
X48065357Y-165778571D01*
X47922499Y-165778571D01*
X47788571Y-165707142D01*
X47726071Y-165635714D01*
X47672499Y-165492857D01*
X47636785Y-165207142D01*
X47681428Y-164850000D01*
X47788571Y-164564285D01*
X47877857Y-164421428D01*
X47958214Y-164350000D01*
X48109999Y-164278571D01*
X49163571Y-164421428D02*
X49243928Y-164350000D01*
X49395714Y-164278571D01*
X49752857Y-164278571D01*
X49886785Y-164350000D01*
X49949285Y-164421428D01*
X50002857Y-164564285D01*
X49984999Y-164707142D01*
X49886785Y-164921428D01*
X48922499Y-165778571D01*
X49851071Y-165778571D01*
X51279642Y-165778571D02*
X50422499Y-165778571D01*
X50851071Y-165778571D02*
X51038571Y-164278571D01*
X50868928Y-164492857D01*
X50708214Y-164635714D01*
X50556428Y-164707142D01*
X53065357Y-165778571D02*
X53252857Y-164278571D01*
X53181428Y-164850000D02*
X53333214Y-164778571D01*
X53618928Y-164778571D01*
X53752857Y-164850000D01*
X53815357Y-164921428D01*
X53868928Y-165064285D01*
X53815357Y-165492857D01*
X53726071Y-165635714D01*
X53645714Y-165707142D01*
X53493928Y-165778571D01*
X53208214Y-165778571D01*
X53074285Y-165707142D01*
X54404642Y-164778571D02*
X54636785Y-165778571D01*
X55118928Y-164778571D02*
X54636785Y-165778571D01*
X54449285Y-166135714D01*
X54368928Y-166207142D01*
X54217142Y-166278571D01*
X56708214Y-165778571D02*
X56895714Y-164278571D01*
X57404642Y-164778571D02*
X57636785Y-165778571D01*
X58118928Y-164778571D01*
X58779642Y-165778571D02*
X58645714Y-165707142D01*
X58583214Y-165635714D01*
X58529642Y-165492857D01*
X58583214Y-165064285D01*
X58672499Y-164921428D01*
X58752857Y-164850000D01*
X58904642Y-164778571D01*
X59118928Y-164778571D01*
X59252857Y-164850000D01*
X59315357Y-164921428D01*
X59368928Y-165064285D01*
X59315357Y-165492857D01*
X59226071Y-165635714D01*
X59145714Y-165707142D01*
X58993928Y-165778571D01*
X58779642Y-165778571D01*
X61047499Y-164778571D02*
X61279642Y-165778571D01*
X61761785Y-164778571D01*
X62851071Y-165778571D02*
X62949285Y-164992857D01*
X62895714Y-164850000D01*
X62761785Y-164778571D01*
X62476071Y-164778571D01*
X62324285Y-164850000D01*
X62859999Y-165707142D02*
X62708214Y-165778571D01*
X62351071Y-165778571D01*
X62217142Y-165707142D01*
X62163571Y-165564285D01*
X62181428Y-165421428D01*
X62270714Y-165278571D01*
X62422499Y-165207142D01*
X62779642Y-165207142D01*
X62931428Y-165135714D01*
X63690357Y-164778571D02*
X63565357Y-165778571D01*
X63672499Y-164921428D02*
X63752857Y-164850000D01*
X63904642Y-164778571D01*
X64118928Y-164778571D01*
X64252857Y-164850000D01*
X64306428Y-164992857D01*
X64208214Y-165778571D01*
X66065357Y-165778571D02*
X66252857Y-164278571D01*
X66824285Y-164278571D01*
X66958214Y-164350000D01*
X67020714Y-164421428D01*
X67074285Y-164564285D01*
X67047499Y-164778571D01*
X66958214Y-164921428D01*
X66877857Y-164992857D01*
X66726071Y-165064285D01*
X66154642Y-165064285D01*
X67779642Y-165778571D02*
X67645714Y-165707142D01*
X67583214Y-165635714D01*
X67529642Y-165492857D01*
X67583214Y-165064285D01*
X67672499Y-164921428D01*
X67752857Y-164850000D01*
X67904642Y-164778571D01*
X68118928Y-164778571D01*
X68252857Y-164850000D01*
X68315357Y-164921428D01*
X68368928Y-165064285D01*
X68315357Y-165492857D01*
X68226071Y-165635714D01*
X68145714Y-165707142D01*
X67993928Y-165778571D01*
X67779642Y-165778571D01*
X69136785Y-165778571D02*
X69002857Y-165707142D01*
X68940357Y-165635714D01*
X68886785Y-165492857D01*
X68940357Y-165064285D01*
X69029642Y-164921428D01*
X69109999Y-164850000D01*
X69261785Y-164778571D01*
X69476071Y-164778571D01*
X69609999Y-164850000D01*
X69672499Y-164921428D01*
X69726071Y-165064285D01*
X69672499Y-165492857D01*
X69583214Y-165635714D01*
X69502857Y-165707142D01*
X69351071Y-165778571D01*
X69136785Y-165778571D01*
X70279642Y-165778571D02*
X70404642Y-164778571D01*
X70368928Y-165064285D02*
X70458214Y-164921428D01*
X70538571Y-164850000D01*
X70690357Y-164778571D01*
X70833214Y-164778571D01*
X71118928Y-164778571D02*
X71690357Y-164778571D01*
X71395714Y-164278571D02*
X71235000Y-165564285D01*
X71288571Y-165707142D01*
X71422499Y-165778571D01*
X71565357Y-165778571D01*
X72645714Y-165707142D02*
X72493928Y-165778571D01*
X72208214Y-165778571D01*
X72074285Y-165707142D01*
X72020714Y-165564285D01*
X72092142Y-164992857D01*
X72181428Y-164850000D01*
X72333214Y-164778571D01*
X72618928Y-164778571D01*
X72752857Y-164850000D01*
X72806428Y-164992857D01*
X72788571Y-165135714D01*
X72056428Y-165278571D01*
X73476071Y-164778571D02*
X73351071Y-165778571D01*
X73458214Y-164921428D02*
X73538571Y-164850000D01*
X73690357Y-164778571D01*
X73904642Y-164778571D01*
X74038571Y-164850000D01*
X74092142Y-164992857D01*
X73993928Y-165778571D01*
X37833214Y-162810000D02*
X38547500Y-162810000D01*
X37636785Y-163238571D02*
X38324285Y-161738571D01*
X38636785Y-163238571D01*
X39110000Y-161738571D02*
X39967142Y-161738571D01*
X39351071Y-163238571D02*
X39538571Y-161738571D01*
X40261785Y-162810000D02*
X40976071Y-162810000D01*
X40065357Y-163238571D02*
X40752857Y-161738571D01*
X41065357Y-163238571D01*
X42422500Y-163238571D02*
X42011785Y-162524285D01*
X41565357Y-163238571D02*
X41752857Y-161738571D01*
X42324285Y-161738571D01*
X42458214Y-161810000D01*
X42520714Y-161881428D01*
X42574285Y-162024285D01*
X42547500Y-162238571D01*
X42458214Y-162381428D01*
X42377857Y-162452857D01*
X42226071Y-162524285D01*
X41654642Y-162524285D01*
X43065357Y-163238571D02*
X43252857Y-161738571D01*
X44967142Y-161738571D02*
X45779642Y-163238571D01*
X45967142Y-161738571D02*
X44779642Y-163238571D01*
X47065357Y-163238571D02*
X46351071Y-163238571D01*
X46538571Y-161738571D01*
X48708214Y-163238571D02*
X48895714Y-161738571D01*
X49565357Y-163238571D02*
X49029642Y-162381428D01*
X49752857Y-161738571D02*
X48788571Y-162595714D01*
X50306428Y-162452857D02*
X50806428Y-162452857D01*
X50922500Y-163238571D02*
X50208214Y-163238571D01*
X50395714Y-161738571D01*
X51110000Y-161738571D01*
X51940357Y-162524285D02*
X51851071Y-163238571D01*
X51538571Y-161738571D02*
X51940357Y-162524285D01*
X52538571Y-161738571D01*
X53449285Y-162452857D02*
X53654642Y-162524285D01*
X53717142Y-162595714D01*
X53770714Y-162738571D01*
X53743928Y-162952857D01*
X53654642Y-163095714D01*
X53574285Y-163167142D01*
X53422500Y-163238571D01*
X52851071Y-163238571D01*
X53038571Y-161738571D01*
X53538571Y-161738571D01*
X53672500Y-161810000D01*
X53735000Y-161881428D01*
X53788571Y-162024285D01*
X53770714Y-162167142D01*
X53681428Y-162310000D01*
X53601071Y-162381428D01*
X53449285Y-162452857D01*
X52949285Y-162452857D01*
X54824285Y-161738571D02*
X55110000Y-161738571D01*
X55243928Y-161810000D01*
X55368928Y-161952857D01*
X55404642Y-162238571D01*
X55342142Y-162738571D01*
X55235000Y-163024285D01*
X55074285Y-163167142D01*
X54922500Y-163238571D01*
X54636785Y-163238571D01*
X54502857Y-163167142D01*
X54377857Y-163024285D01*
X54342142Y-162738571D01*
X54404642Y-162238571D01*
X54511785Y-161952857D01*
X54672500Y-161810000D01*
X54824285Y-161738571D01*
X55904642Y-162810000D02*
X56618928Y-162810000D01*
X55708214Y-163238571D02*
X56395714Y-161738571D01*
X56708214Y-163238571D01*
X58065357Y-163238571D02*
X57654642Y-162524285D01*
X57208214Y-163238571D02*
X57395714Y-161738571D01*
X57967142Y-161738571D01*
X58101071Y-161810000D01*
X58163571Y-161881428D01*
X58217142Y-162024285D01*
X58190357Y-162238571D01*
X58101071Y-162381428D01*
X58020714Y-162452857D01*
X57868928Y-162524285D01*
X57297500Y-162524285D01*
X58708214Y-163238571D02*
X58895714Y-161738571D01*
X59252857Y-161738571D01*
X59458214Y-161810000D01*
X59583214Y-161952857D01*
X59636785Y-162095714D01*
X59672500Y-162381428D01*
X59645714Y-162595714D01*
X59538571Y-162881428D01*
X59449285Y-163024285D01*
X59288571Y-163167142D01*
X59065357Y-163238571D01*
X58708214Y-163238571D01*
X62208214Y-163238571D02*
X61797500Y-162524285D01*
X61351071Y-163238571D02*
X61538571Y-161738571D01*
X62110000Y-161738571D01*
X62243928Y-161810000D01*
X62306428Y-161881428D01*
X62360000Y-162024285D01*
X62333214Y-162238571D01*
X62243928Y-162381428D01*
X62163571Y-162452857D01*
X62011785Y-162524285D01*
X61440357Y-162524285D01*
X62949285Y-162452857D02*
X63449285Y-162452857D01*
X63565357Y-163238571D02*
X62851071Y-163238571D01*
X63038571Y-161738571D01*
X63752857Y-161738571D01*
X64208214Y-163238571D02*
X64395714Y-161738571D01*
X64967142Y-161738571D01*
X65101071Y-161810000D01*
X65163571Y-161881428D01*
X65217142Y-162024285D01*
X65190357Y-162238571D01*
X65101071Y-162381428D01*
X65020714Y-162452857D01*
X64868928Y-162524285D01*
X64297500Y-162524285D01*
X66422500Y-163238571D02*
X65708214Y-163238571D01*
X65895714Y-161738571D01*
X66904642Y-162810000D02*
X67618928Y-162810000D01*
X66708214Y-163238571D02*
X67395714Y-161738571D01*
X67708214Y-163238571D01*
X69083214Y-163095714D02*
X69002857Y-163167142D01*
X68779642Y-163238571D01*
X68636785Y-163238571D01*
X68431428Y-163167142D01*
X68306428Y-163024285D01*
X68252857Y-162881428D01*
X68217142Y-162595714D01*
X68243928Y-162381428D01*
X68351071Y-162095714D01*
X68440357Y-161952857D01*
X68601071Y-161810000D01*
X68824285Y-161738571D01*
X68967142Y-161738571D01*
X69172500Y-161810000D01*
X69235000Y-161881428D01*
X69806428Y-162452857D02*
X70306428Y-162452857D01*
X70422500Y-163238571D02*
X69708214Y-163238571D01*
X69895714Y-161738571D01*
X70610000Y-161738571D01*
X71065357Y-163238571D02*
X71252857Y-161738571D01*
X71618928Y-162810000D01*
X72252857Y-161738571D01*
X72065357Y-163238571D01*
X72877857Y-162452857D02*
X73377857Y-162452857D01*
X73493928Y-163238571D02*
X72779642Y-163238571D01*
X72967142Y-161738571D01*
X73681428Y-161738571D01*
X74136785Y-163238571D02*
X74324285Y-161738571D01*
X74993928Y-163238571D01*
X75181428Y-161738571D01*
X75681428Y-161738571D02*
X76538571Y-161738571D01*
X75922500Y-163238571D02*
X76110000Y-161738571D01*
D11*
X38650000Y-160107142D02*
X38650000Y-157107142D01*
X39792857Y-157107142D01*
X40078571Y-157250000D01*
X40221428Y-157392857D01*
X40364285Y-157678571D01*
X40364285Y-158107142D01*
X40221428Y-158392857D01*
X40078571Y-158535714D01*
X39792857Y-158678571D01*
X38650000Y-158678571D01*
X43364285Y-160107142D02*
X42364285Y-158678571D01*
X41650000Y-160107142D02*
X41650000Y-157107142D01*
X42792857Y-157107142D01*
X43078571Y-157250000D01*
X43221428Y-157392857D01*
X43364285Y-157678571D01*
X43364285Y-158107142D01*
X43221428Y-158392857D01*
X43078571Y-158535714D01*
X42792857Y-158678571D01*
X41650000Y-158678571D01*
X45221428Y-157107142D02*
X45792857Y-157107142D01*
X46078571Y-157250000D01*
X46364285Y-157535714D01*
X46507142Y-158107142D01*
X46507142Y-159107142D01*
X46364285Y-159678571D01*
X46078571Y-159964285D01*
X45792857Y-160107142D01*
X45221428Y-160107142D01*
X44935714Y-159964285D01*
X44650000Y-159678571D01*
X44507142Y-159107142D01*
X44507142Y-158107142D01*
X44650000Y-157535714D01*
X44935714Y-157250000D01*
X45221428Y-157107142D01*
X48650000Y-157107142D02*
X48650000Y-159250000D01*
X48507142Y-159678571D01*
X48221428Y-159964285D01*
X47792857Y-160107142D01*
X47507142Y-160107142D01*
X50078571Y-158535714D02*
X51078571Y-158535714D01*
X51507142Y-160107142D02*
X50078571Y-160107142D01*
X50078571Y-157107142D01*
X51507142Y-157107142D01*
X54507142Y-159821428D02*
X54364285Y-159964285D01*
X53935714Y-160107142D01*
X53650000Y-160107142D01*
X53221428Y-159964285D01*
X52935714Y-159678571D01*
X52792857Y-159392857D01*
X52650000Y-158821428D01*
X52650000Y-158392857D01*
X52792857Y-157821428D01*
X52935714Y-157535714D01*
X53221428Y-157250000D01*
X53650000Y-157107142D01*
X53935714Y-157107142D01*
X54364285Y-157250000D01*
X54507142Y-157392857D01*
X55364285Y-157107142D02*
X57078571Y-157107142D01*
X56221428Y-160107142D02*
X56221428Y-157107142D01*
X60364285Y-160107142D02*
X60364285Y-157107142D01*
X60364285Y-158535714D02*
X62078571Y-158535714D01*
X62078571Y-160107142D02*
X62078571Y-157107142D01*
X63507142Y-158535714D02*
X64507142Y-158535714D01*
X64935714Y-160107142D02*
X63507142Y-160107142D01*
X63507142Y-157107142D01*
X64935714Y-157107142D01*
X67649999Y-160107142D02*
X66221428Y-160107142D01*
X66221428Y-157107142D01*
X68649999Y-158535714D02*
X69649999Y-158535714D01*
X70078571Y-160107142D02*
X68649999Y-160107142D01*
X68649999Y-157107142D01*
X70078571Y-157107142D01*
X71364285Y-160107142D02*
X71364285Y-157107142D01*
X73078571Y-160107142D01*
X73078571Y-157107142D01*
X74364285Y-159250000D02*
X75792857Y-159250000D01*
X74078571Y-160107142D02*
X75078571Y-157107142D01*
X76078571Y-160107142D01*
D13*
X338500000Y-82500000D02*
X338500000Y-156000000D01*
D14*
G04 #@! TO.C,SW63*
X234188000Y-168275000D02*
X234188000Y-154305000D01*
X248158000Y-168275000D02*
X234188000Y-168275000D01*
X248158000Y-154305000D02*
X248158000Y-168275000D01*
X234188000Y-154305000D02*
X248158000Y-154305000D01*
G04 #@! TO.C,SW55*
X305562000Y-135255000D02*
X319532000Y-135255000D01*
X319532000Y-135255000D02*
X319532000Y-149225000D01*
X319532000Y-149225000D02*
X305562000Y-149225000D01*
X305562000Y-149225000D02*
X305562000Y-135255000D01*
G04 #@! TO.C,SW1*
X305435000Y-78105000D02*
X319405000Y-78105000D01*
X319405000Y-78105000D02*
X319405000Y-92075000D01*
X319405000Y-92075000D02*
X305435000Y-92075000D01*
X305435000Y-92075000D02*
X305435000Y-78105000D01*
G04 #@! TO.C,D1*
X375100000Y-174625462D02*
G75*
G03X369550000Y-173080170I-2990000J462D01*
G01*
X375100000Y-174624538D02*
G75*
G02X369550000Y-176169830I-2990000J-462D01*
G01*
X374610000Y-174625000D02*
G75*
G03X374610000Y-174625000I-2500000J0D01*
G01*
X369550000Y-173080000D02*
X369550000Y-176170000D01*
G04 #@! TO.C,SW2*
X43434000Y-116205000D02*
X57404000Y-116205000D01*
X57404000Y-116205000D02*
X57404000Y-130175000D01*
X57404000Y-130175000D02*
X43434000Y-130175000D01*
X43434000Y-130175000D02*
X43434000Y-116205000D01*
G04 #@! TO.C,SW4*
X172085000Y-78105000D02*
X186055000Y-78105000D01*
X186055000Y-78105000D02*
X186055000Y-92075000D01*
X186055000Y-92075000D02*
X172085000Y-92075000D01*
X172085000Y-92075000D02*
X172085000Y-78105000D01*
G04 #@! TO.C,SW5*
X153035000Y-92075000D02*
X153035000Y-78105000D01*
X167005000Y-92075000D02*
X153035000Y-92075000D01*
X167005000Y-78105000D02*
X167005000Y-92075000D01*
X153035000Y-78105000D02*
X167005000Y-78105000D01*
G04 #@! TO.C,SW6*
X181610000Y-97155000D02*
X195580000Y-97155000D01*
X195580000Y-97155000D02*
X195580000Y-111125000D01*
X195580000Y-111125000D02*
X181610000Y-111125000D01*
X181610000Y-111125000D02*
X181610000Y-97155000D01*
G04 #@! TO.C,SW7*
X162560000Y-111125000D02*
X162560000Y-97155000D01*
X176530000Y-111125000D02*
X162560000Y-111125000D01*
X176530000Y-97155000D02*
X176530000Y-111125000D01*
X162560000Y-97155000D02*
X176530000Y-97155000D01*
G04 #@! TO.C,SW8*
X177038000Y-135255000D02*
X191008000Y-135255000D01*
X191008000Y-135255000D02*
X191008000Y-149225000D01*
X191008000Y-149225000D02*
X177038000Y-149225000D01*
X177038000Y-149225000D02*
X177038000Y-135255000D01*
G04 #@! TO.C,SW9*
X186309000Y-130175000D02*
X186309000Y-116205000D01*
X200279000Y-130175000D02*
X186309000Y-130175000D01*
X200279000Y-116205000D02*
X200279000Y-130175000D01*
X186309000Y-116205000D02*
X200279000Y-116205000D01*
G04 #@! TO.C,SW10*
X167259000Y-116205000D02*
X181229000Y-116205000D01*
X181229000Y-116205000D02*
X181229000Y-130175000D01*
X181229000Y-130175000D02*
X167259000Y-130175000D01*
X167259000Y-130175000D02*
X167259000Y-116205000D01*
G04 #@! TO.C,SW11*
X167640000Y-168275000D02*
X167640000Y-154305000D01*
X181610000Y-168275000D02*
X167640000Y-168275000D01*
X181610000Y-154305000D02*
X181610000Y-168275000D01*
X167640000Y-154305000D02*
X181610000Y-154305000D01*
G04 #@! TO.C,SW12*
X342900000Y-154305000D02*
X356870000Y-154305000D01*
X356870000Y-154305000D02*
X356870000Y-168275000D01*
X356870000Y-168275000D02*
X342900000Y-168275000D01*
X342900000Y-168275000D02*
X342900000Y-154305000D01*
G04 #@! TO.C,SW13*
X191135000Y-92075000D02*
X191135000Y-78105000D01*
X205105000Y-92075000D02*
X191135000Y-92075000D01*
X205105000Y-78105000D02*
X205105000Y-92075000D01*
X191135000Y-78105000D02*
X205105000Y-78105000D01*
G04 #@! TO.C,SW14*
X133985000Y-78105000D02*
X147955000Y-78105000D01*
X147955000Y-78105000D02*
X147955000Y-92075000D01*
X147955000Y-92075000D02*
X133985000Y-92075000D01*
X133985000Y-92075000D02*
X133985000Y-78105000D01*
G04 #@! TO.C,SW15*
X200660000Y-111125000D02*
X200660000Y-97155000D01*
X214630000Y-111125000D02*
X200660000Y-111125000D01*
X214630000Y-97155000D02*
X214630000Y-111125000D01*
X200660000Y-97155000D02*
X214630000Y-97155000D01*
G04 #@! TO.C,SW16*
X143510000Y-97155000D02*
X157480000Y-97155000D01*
X157480000Y-97155000D02*
X157480000Y-111125000D01*
X157480000Y-111125000D02*
X143510000Y-111125000D01*
X143510000Y-111125000D02*
X143510000Y-97155000D01*
G04 #@! TO.C,SW17*
X205359000Y-130175000D02*
X205359000Y-116205000D01*
X219329000Y-130175000D02*
X205359000Y-130175000D01*
X219329000Y-116205000D02*
X219329000Y-130175000D01*
X205359000Y-116205000D02*
X219329000Y-116205000D01*
G04 #@! TO.C,SW18*
X148209000Y-116205000D02*
X162179000Y-116205000D01*
X162179000Y-116205000D02*
X162179000Y-130175000D01*
X162179000Y-130175000D02*
X148209000Y-130175000D01*
X148209000Y-130175000D02*
X148209000Y-116205000D01*
G04 #@! TO.C,SW19*
X196088000Y-149225000D02*
X196088000Y-135255000D01*
X210058000Y-149225000D02*
X196088000Y-149225000D01*
X210058000Y-135255000D02*
X210058000Y-149225000D01*
X196088000Y-135255000D02*
X210058000Y-135255000D01*
G04 #@! TO.C,SW20*
X157988000Y-135255000D02*
X171958000Y-135255000D01*
X171958000Y-135255000D02*
X171958000Y-149225000D01*
X171958000Y-149225000D02*
X157988000Y-149225000D01*
X157988000Y-149225000D02*
X157988000Y-135255000D01*
G04 #@! TO.C,SW21*
X342900000Y-149225000D02*
X342900000Y-135255000D01*
X356870000Y-149225000D02*
X342900000Y-149225000D01*
X356870000Y-135255000D02*
X356870000Y-149225000D01*
X342900000Y-135255000D02*
X356870000Y-135255000D01*
G04 #@! TO.C,SW22*
X210185000Y-92075000D02*
X210185000Y-78105000D01*
X224155000Y-92075000D02*
X210185000Y-92075000D01*
X224155000Y-78105000D02*
X224155000Y-92075000D01*
X210185000Y-78105000D02*
X224155000Y-78105000D01*
G04 #@! TO.C,SW23*
X114935000Y-78105000D02*
X128905000Y-78105000D01*
X128905000Y-78105000D02*
X128905000Y-92075000D01*
X128905000Y-92075000D02*
X114935000Y-92075000D01*
X114935000Y-92075000D02*
X114935000Y-78105000D01*
G04 #@! TO.C,SW24*
X219710000Y-111125000D02*
X219710000Y-97155000D01*
X233680000Y-111125000D02*
X219710000Y-111125000D01*
X233680000Y-97155000D02*
X233680000Y-111125000D01*
X219710000Y-97155000D02*
X233680000Y-97155000D01*
G04 #@! TO.C,SW25*
X124460000Y-97155000D02*
X138430000Y-97155000D01*
X138430000Y-97155000D02*
X138430000Y-111125000D01*
X138430000Y-111125000D02*
X124460000Y-111125000D01*
X124460000Y-111125000D02*
X124460000Y-97155000D01*
G04 #@! TO.C,SW26*
X224409000Y-130175000D02*
X224409000Y-116205000D01*
X238379000Y-130175000D02*
X224409000Y-130175000D01*
X238379000Y-116205000D02*
X238379000Y-130175000D01*
X224409000Y-116205000D02*
X238379000Y-116205000D01*
G04 #@! TO.C,SW27*
X129159000Y-116205000D02*
X143129000Y-116205000D01*
X143129000Y-116205000D02*
X143129000Y-130175000D01*
X143129000Y-130175000D02*
X129159000Y-130175000D01*
X129159000Y-130175000D02*
X129159000Y-116205000D01*
G04 #@! TO.C,SW28*
X215138000Y-149225000D02*
X215138000Y-135255000D01*
X229108000Y-149225000D02*
X215138000Y-149225000D01*
X229108000Y-135255000D02*
X229108000Y-149225000D01*
X215138000Y-135255000D02*
X229108000Y-135255000D01*
G04 #@! TO.C,SW29*
X138938000Y-135255000D02*
X152908000Y-135255000D01*
X152908000Y-135255000D02*
X152908000Y-149225000D01*
X152908000Y-149225000D02*
X138938000Y-149225000D01*
X138938000Y-149225000D02*
X138938000Y-135255000D01*
G04 #@! TO.C,SW30*
X342900000Y-116205000D02*
X356870000Y-116205000D01*
X356870000Y-116205000D02*
X356870000Y-130175000D01*
X356870000Y-130175000D02*
X342900000Y-130175000D01*
X342900000Y-130175000D02*
X342900000Y-116205000D01*
G04 #@! TO.C,SW31*
X229235000Y-92075000D02*
X229235000Y-78105000D01*
X243205000Y-92075000D02*
X229235000Y-92075000D01*
X243205000Y-78105000D02*
X243205000Y-92075000D01*
X229235000Y-78105000D02*
X243205000Y-78105000D01*
G04 #@! TO.C,SW32*
X95885000Y-78105000D02*
X109855000Y-78105000D01*
X109855000Y-78105000D02*
X109855000Y-92075000D01*
X109855000Y-92075000D02*
X95885000Y-92075000D01*
X95885000Y-92075000D02*
X95885000Y-78105000D01*
G04 #@! TO.C,SW33*
X238760000Y-111125000D02*
X238760000Y-97155000D01*
X252730000Y-111125000D02*
X238760000Y-111125000D01*
X252730000Y-97155000D02*
X252730000Y-111125000D01*
X238760000Y-97155000D02*
X252730000Y-97155000D01*
G04 #@! TO.C,SW34*
X105410000Y-97155000D02*
X119380000Y-97155000D01*
X119380000Y-97155000D02*
X119380000Y-111125000D01*
X119380000Y-111125000D02*
X105410000Y-111125000D01*
X105410000Y-111125000D02*
X105410000Y-97155000D01*
G04 #@! TO.C,SW35*
X243459000Y-130175000D02*
X243459000Y-116205000D01*
X257429000Y-130175000D02*
X243459000Y-130175000D01*
X257429000Y-116205000D02*
X257429000Y-130175000D01*
X243459000Y-116205000D02*
X257429000Y-116205000D01*
G04 #@! TO.C,SW36*
X110109000Y-116205000D02*
X124079000Y-116205000D01*
X124079000Y-116205000D02*
X124079000Y-130175000D01*
X124079000Y-130175000D02*
X110109000Y-130175000D01*
X110109000Y-130175000D02*
X110109000Y-116205000D01*
G04 #@! TO.C,SW37*
X234188000Y-149225000D02*
X234188000Y-135255000D01*
X248158000Y-149225000D02*
X234188000Y-149225000D01*
X248158000Y-135255000D02*
X248158000Y-149225000D01*
X234188000Y-135255000D02*
X248158000Y-135255000D01*
G04 #@! TO.C,SW38*
X119888000Y-149225000D02*
X119888000Y-135255000D01*
X133858000Y-149225000D02*
X119888000Y-149225000D01*
X133858000Y-135255000D02*
X133858000Y-149225000D01*
X119888000Y-135255000D02*
X133858000Y-135255000D01*
G04 #@! TO.C,SW39*
X342900000Y-97155000D02*
X356870000Y-97155000D01*
X356870000Y-97155000D02*
X356870000Y-111125000D01*
X356870000Y-111125000D02*
X342900000Y-111125000D01*
X342900000Y-111125000D02*
X342900000Y-97155000D01*
G04 #@! TO.C,SW40*
X248285000Y-78105000D02*
X262255000Y-78105000D01*
X262255000Y-78105000D02*
X262255000Y-92075000D01*
X262255000Y-92075000D02*
X248285000Y-92075000D01*
X248285000Y-92075000D02*
X248285000Y-78105000D01*
G04 #@! TO.C,SW41*
X76835000Y-92075000D02*
X76835000Y-78105000D01*
X90805000Y-92075000D02*
X76835000Y-92075000D01*
X90805000Y-78105000D02*
X90805000Y-92075000D01*
X76835000Y-78105000D02*
X90805000Y-78105000D01*
G04 #@! TO.C,SW42*
X257810000Y-97155000D02*
X271780000Y-97155000D01*
X271780000Y-97155000D02*
X271780000Y-111125000D01*
X271780000Y-111125000D02*
X257810000Y-111125000D01*
X257810000Y-111125000D02*
X257810000Y-97155000D01*
G04 #@! TO.C,SW43*
X86360000Y-111125000D02*
X86360000Y-97155000D01*
X100330000Y-111125000D02*
X86360000Y-111125000D01*
X100330000Y-97155000D02*
X100330000Y-111125000D01*
X86360000Y-97155000D02*
X100330000Y-97155000D01*
G04 #@! TO.C,SW44*
X262509000Y-116205000D02*
X276479000Y-116205000D01*
X276479000Y-116205000D02*
X276479000Y-130175000D01*
X276479000Y-130175000D02*
X262509000Y-130175000D01*
X262509000Y-130175000D02*
X262509000Y-116205000D01*
G04 #@! TO.C,SW45*
X91059000Y-130175000D02*
X91059000Y-116205000D01*
X105029000Y-130175000D02*
X91059000Y-130175000D01*
X105029000Y-116205000D02*
X105029000Y-130175000D01*
X91059000Y-116205000D02*
X105029000Y-116205000D01*
G04 #@! TO.C,SW46*
X253238000Y-135255000D02*
X267208000Y-135255000D01*
X267208000Y-135255000D02*
X267208000Y-149225000D01*
X267208000Y-149225000D02*
X253238000Y-149225000D01*
X253238000Y-149225000D02*
X253238000Y-135255000D01*
G04 #@! TO.C,SW47*
X100838000Y-149225000D02*
X100838000Y-135255000D01*
X114808000Y-149225000D02*
X100838000Y-149225000D01*
X114808000Y-135255000D02*
X114808000Y-149225000D01*
X100838000Y-135255000D02*
X114808000Y-135255000D01*
G04 #@! TO.C,SW48*
X342900000Y-78105000D02*
X356870000Y-78105000D01*
X356870000Y-78105000D02*
X356870000Y-92075000D01*
X356870000Y-92075000D02*
X342900000Y-92075000D01*
X342900000Y-92075000D02*
X342900000Y-78105000D01*
G04 #@! TO.C,SW49*
X267335000Y-78105000D02*
X281305000Y-78105000D01*
X281305000Y-78105000D02*
X281305000Y-92075000D01*
X281305000Y-92075000D02*
X267335000Y-92075000D01*
X267335000Y-92075000D02*
X267335000Y-78105000D01*
G04 #@! TO.C,SW50*
X57785000Y-92075000D02*
X57785000Y-78105000D01*
X71755000Y-92075000D02*
X57785000Y-92075000D01*
X71755000Y-78105000D02*
X71755000Y-92075000D01*
X57785000Y-78105000D02*
X71755000Y-78105000D01*
G04 #@! TO.C,SW51*
X276860000Y-97155000D02*
X290830000Y-97155000D01*
X290830000Y-97155000D02*
X290830000Y-111125000D01*
X290830000Y-111125000D02*
X276860000Y-111125000D01*
X276860000Y-111125000D02*
X276860000Y-97155000D01*
G04 #@! TO.C,SW52*
X67310000Y-111125000D02*
X67310000Y-97155000D01*
X81280000Y-111125000D02*
X67310000Y-111125000D01*
X81280000Y-97155000D02*
X81280000Y-111125000D01*
X67310000Y-97155000D02*
X81280000Y-97155000D01*
G04 #@! TO.C,SW53*
X281559000Y-116205000D02*
X295529000Y-116205000D01*
X295529000Y-116205000D02*
X295529000Y-130175000D01*
X295529000Y-130175000D02*
X281559000Y-130175000D01*
X281559000Y-130175000D02*
X281559000Y-116205000D01*
G04 #@! TO.C,SW54*
X72009000Y-130175000D02*
X72009000Y-116205000D01*
X85979000Y-130175000D02*
X72009000Y-130175000D01*
X85979000Y-116205000D02*
X85979000Y-130175000D01*
X72009000Y-116205000D02*
X85979000Y-116205000D01*
G04 #@! TO.C,SW56*
X81788000Y-149225000D02*
X81788000Y-135255000D01*
X95758000Y-149225000D02*
X81788000Y-149225000D01*
X95758000Y-135255000D02*
X95758000Y-149225000D01*
X81788000Y-135255000D02*
X95758000Y-135255000D01*
G04 #@! TO.C,SW57*
X286385000Y-78105000D02*
X300355000Y-78105000D01*
X300355000Y-78105000D02*
X300355000Y-92075000D01*
X300355000Y-92075000D02*
X286385000Y-92075000D01*
X286385000Y-92075000D02*
X286385000Y-78105000D01*
G04 #@! TO.C,SW58*
X36322000Y-92075000D02*
X36322000Y-78105000D01*
X50292000Y-92075000D02*
X36322000Y-92075000D01*
X50292000Y-78105000D02*
X50292000Y-92075000D01*
X36322000Y-78105000D02*
X50292000Y-78105000D01*
G04 #@! TO.C,SW59*
X300736000Y-97155000D02*
X314706000Y-97155000D01*
X314706000Y-97155000D02*
X314706000Y-111125000D01*
X314706000Y-111125000D02*
X300736000Y-111125000D01*
X300736000Y-111125000D02*
X300736000Y-97155000D01*
G04 #@! TO.C,SW60*
X41148000Y-111125000D02*
X41148000Y-97155000D01*
X55118000Y-111125000D02*
X41148000Y-111125000D01*
X55118000Y-97155000D02*
X55118000Y-111125000D01*
X41148000Y-97155000D02*
X55118000Y-97155000D01*
G04 #@! TO.C,SW61*
X303149000Y-116205000D02*
X317119000Y-116205000D01*
X317119000Y-116205000D02*
X317119000Y-130175000D01*
X317119000Y-130175000D02*
X303149000Y-130175000D01*
X303149000Y-130175000D02*
X303149000Y-116205000D01*
G04 #@! TO.C,SW62*
X100838000Y-168275000D02*
X100838000Y-154305000D01*
X114808000Y-168275000D02*
X100838000Y-168275000D01*
X114808000Y-154305000D02*
X114808000Y-168275000D01*
X100838000Y-154305000D02*
X114808000Y-154305000D01*
G04 #@! TO.C,SW64*
X279400000Y-135255000D02*
X293370000Y-135255000D01*
X293370000Y-135255000D02*
X293370000Y-149225000D01*
X293370000Y-149225000D02*
X279400000Y-149225000D01*
X279400000Y-149225000D02*
X279400000Y-135255000D01*
G04 #@! TO.C,SW3*
X48133000Y-135255000D02*
X62103000Y-135255000D01*
X62103000Y-135255000D02*
X62103000Y-149225000D01*
X62103000Y-149225000D02*
X48133000Y-149225000D01*
X48133000Y-149225000D02*
X48133000Y-135255000D01*
G04 #@! TO.C,J2*
X326330000Y-130750000D02*
X327660000Y-130750000D01*
X326330000Y-132080000D02*
X326330000Y-130750000D01*
X326330000Y-133350000D02*
X328990000Y-133350000D01*
X328990000Y-133350000D02*
X328990000Y-151190000D01*
X326330000Y-133350000D02*
X326330000Y-151190000D01*
X326330000Y-151190000D02*
X328990000Y-151190000D01*
G04 #@! TO.C,J3*
X362670000Y-151190000D02*
X365330000Y-151190000D01*
X362670000Y-133350000D02*
X362670000Y-151190000D01*
X365330000Y-133350000D02*
X365330000Y-151190000D01*
X362670000Y-133350000D02*
X365330000Y-133350000D01*
X362670000Y-132080000D02*
X362670000Y-130750000D01*
X362670000Y-130750000D02*
X364000000Y-130750000D01*
G04 #@! TO.C,J1*
X332670000Y-139750000D02*
X335330000Y-139750000D01*
X332670000Y-81270000D02*
X332670000Y-139750000D01*
X335330000Y-81270000D02*
X335330000Y-139750000D01*
X332670000Y-81270000D02*
X335330000Y-81270000D01*
X332670000Y-80000000D02*
X332670000Y-78670000D01*
X332670000Y-78670000D02*
X334000000Y-78670000D01*
G04 #@! TO.C,SW63*
D10*
X239363476Y-153820761D02*
X239506333Y-153868380D01*
X239744428Y-153868380D01*
X239839666Y-153820761D01*
X239887285Y-153773142D01*
X239934904Y-153677904D01*
X239934904Y-153582666D01*
X239887285Y-153487428D01*
X239839666Y-153439809D01*
X239744428Y-153392190D01*
X239553952Y-153344571D01*
X239458714Y-153296952D01*
X239411095Y-153249333D01*
X239363476Y-153154095D01*
X239363476Y-153058857D01*
X239411095Y-152963619D01*
X239458714Y-152916000D01*
X239553952Y-152868380D01*
X239792047Y-152868380D01*
X239934904Y-152916000D01*
X240268238Y-152868380D02*
X240506333Y-153868380D01*
X240696809Y-153154095D01*
X240887285Y-153868380D01*
X241125380Y-152868380D01*
X241934904Y-152868380D02*
X241744428Y-152868380D01*
X241649190Y-152916000D01*
X241601571Y-152963619D01*
X241506333Y-153106476D01*
X241458714Y-153296952D01*
X241458714Y-153677904D01*
X241506333Y-153773142D01*
X241553952Y-153820761D01*
X241649190Y-153868380D01*
X241839666Y-153868380D01*
X241934904Y-153820761D01*
X241982523Y-153773142D01*
X242030142Y-153677904D01*
X242030142Y-153439809D01*
X241982523Y-153344571D01*
X241934904Y-153296952D01*
X241839666Y-153249333D01*
X241649190Y-153249333D01*
X241553952Y-153296952D01*
X241506333Y-153344571D01*
X241458714Y-153439809D01*
X242363476Y-152868380D02*
X242982523Y-152868380D01*
X242649190Y-153249333D01*
X242792047Y-153249333D01*
X242887285Y-153296952D01*
X242934904Y-153344571D01*
X242982523Y-153439809D01*
X242982523Y-153677904D01*
X242934904Y-153773142D01*
X242887285Y-153820761D01*
X242792047Y-153868380D01*
X242506333Y-153868380D01*
X242411095Y-153820761D01*
X242363476Y-153773142D01*
X239006333Y-169568761D02*
X239149190Y-169616380D01*
X239387285Y-169616380D01*
X239482523Y-169568761D01*
X239530142Y-169521142D01*
X239577761Y-169425904D01*
X239577761Y-169330666D01*
X239530142Y-169235428D01*
X239482523Y-169187809D01*
X239387285Y-169140190D01*
X239196809Y-169092571D01*
X239101571Y-169044952D01*
X239053952Y-168997333D01*
X239006333Y-168902095D01*
X239006333Y-168806857D01*
X239053952Y-168711619D01*
X239101571Y-168664000D01*
X239196809Y-168616380D01*
X239434904Y-168616380D01*
X239577761Y-168664000D01*
X240006333Y-169616380D02*
X240006333Y-168616380D01*
X240387285Y-168616380D01*
X240482523Y-168664000D01*
X240530142Y-168711619D01*
X240577761Y-168806857D01*
X240577761Y-168949714D01*
X240530142Y-169044952D01*
X240482523Y-169092571D01*
X240387285Y-169140190D01*
X240006333Y-169140190D01*
X240958714Y-169330666D02*
X241434904Y-169330666D01*
X240863476Y-169616380D02*
X241196809Y-168616380D01*
X241530142Y-169616380D01*
X242434904Y-169521142D02*
X242387285Y-169568761D01*
X242244428Y-169616380D01*
X242149190Y-169616380D01*
X242006333Y-169568761D01*
X241911095Y-169473523D01*
X241863476Y-169378285D01*
X241815857Y-169187809D01*
X241815857Y-169044952D01*
X241863476Y-168854476D01*
X241911095Y-168759238D01*
X242006333Y-168664000D01*
X242149190Y-168616380D01*
X242244428Y-168616380D01*
X242387285Y-168664000D01*
X242434904Y-168711619D01*
X242863476Y-169092571D02*
X243196809Y-169092571D01*
X243339666Y-169616380D02*
X242863476Y-169616380D01*
X242863476Y-168616380D01*
X243339666Y-168616380D01*
G04 #@! TO.C,SW55*
X310737476Y-134770761D02*
X310880333Y-134818380D01*
X311118428Y-134818380D01*
X311213666Y-134770761D01*
X311261285Y-134723142D01*
X311308904Y-134627904D01*
X311308904Y-134532666D01*
X311261285Y-134437428D01*
X311213666Y-134389809D01*
X311118428Y-134342190D01*
X310927952Y-134294571D01*
X310832714Y-134246952D01*
X310785095Y-134199333D01*
X310737476Y-134104095D01*
X310737476Y-134008857D01*
X310785095Y-133913619D01*
X310832714Y-133866000D01*
X310927952Y-133818380D01*
X311166047Y-133818380D01*
X311308904Y-133866000D01*
X311642238Y-133818380D02*
X311880333Y-134818380D01*
X312070809Y-134104095D01*
X312261285Y-134818380D01*
X312499380Y-133818380D01*
X313356523Y-133818380D02*
X312880333Y-133818380D01*
X312832714Y-134294571D01*
X312880333Y-134246952D01*
X312975571Y-134199333D01*
X313213666Y-134199333D01*
X313308904Y-134246952D01*
X313356523Y-134294571D01*
X313404142Y-134389809D01*
X313404142Y-134627904D01*
X313356523Y-134723142D01*
X313308904Y-134770761D01*
X313213666Y-134818380D01*
X312975571Y-134818380D01*
X312880333Y-134770761D01*
X312832714Y-134723142D01*
X314308904Y-133818380D02*
X313832714Y-133818380D01*
X313785095Y-134294571D01*
X313832714Y-134246952D01*
X313927952Y-134199333D01*
X314166047Y-134199333D01*
X314261285Y-134246952D01*
X314308904Y-134294571D01*
X314356523Y-134389809D01*
X314356523Y-134627904D01*
X314308904Y-134723142D01*
X314261285Y-134770761D01*
X314166047Y-134818380D01*
X313927952Y-134818380D01*
X313832714Y-134770761D01*
X313785095Y-134723142D01*
X311594619Y-150566380D02*
X311594619Y-149566380D01*
X312070809Y-150566380D02*
X312070809Y-149566380D01*
X312642238Y-150566380D01*
X312642238Y-149566380D01*
X312975571Y-149566380D02*
X313308904Y-150566380D01*
X313642238Y-149566380D01*
G04 #@! TO.C,SW1*
X311086666Y-77620761D02*
X311229523Y-77668380D01*
X311467619Y-77668380D01*
X311562857Y-77620761D01*
X311610476Y-77573142D01*
X311658095Y-77477904D01*
X311658095Y-77382666D01*
X311610476Y-77287428D01*
X311562857Y-77239809D01*
X311467619Y-77192190D01*
X311277142Y-77144571D01*
X311181904Y-77096952D01*
X311134285Y-77049333D01*
X311086666Y-76954095D01*
X311086666Y-76858857D01*
X311134285Y-76763619D01*
X311181904Y-76716000D01*
X311277142Y-76668380D01*
X311515238Y-76668380D01*
X311658095Y-76716000D01*
X311991428Y-76668380D02*
X312229523Y-77668380D01*
X312420000Y-76954095D01*
X312610476Y-77668380D01*
X312848571Y-76668380D01*
X313753333Y-77668380D02*
X313181904Y-77668380D01*
X313467619Y-77668380D02*
X313467619Y-76668380D01*
X313372380Y-76811238D01*
X313277142Y-76906476D01*
X313181904Y-76954095D01*
X310610476Y-92892571D02*
X310753333Y-92940190D01*
X310800952Y-92987809D01*
X310848571Y-93083047D01*
X310848571Y-93225904D01*
X310800952Y-93321142D01*
X310753333Y-93368761D01*
X310658095Y-93416380D01*
X310277142Y-93416380D01*
X310277142Y-92416380D01*
X310610476Y-92416380D01*
X310705714Y-92464000D01*
X310753333Y-92511619D01*
X310800952Y-92606857D01*
X310800952Y-92702095D01*
X310753333Y-92797333D01*
X310705714Y-92844952D01*
X310610476Y-92892571D01*
X310277142Y-92892571D01*
X311848571Y-93416380D02*
X311515238Y-92940190D01*
X311277142Y-93416380D02*
X311277142Y-92416380D01*
X311658095Y-92416380D01*
X311753333Y-92464000D01*
X311800952Y-92511619D01*
X311848571Y-92606857D01*
X311848571Y-92749714D01*
X311800952Y-92844952D01*
X311753333Y-92892571D01*
X311658095Y-92940190D01*
X311277142Y-92940190D01*
X312277142Y-92892571D02*
X312610476Y-92892571D01*
X312753333Y-93416380D02*
X312277142Y-93416380D01*
X312277142Y-92416380D01*
X312753333Y-92416380D01*
X313134285Y-93130666D02*
X313610476Y-93130666D01*
X313039047Y-93416380D02*
X313372380Y-92416380D01*
X313705714Y-93416380D01*
X314039047Y-93416380D02*
X314039047Y-92416380D01*
X314610476Y-93416380D02*
X314181904Y-92844952D01*
X314610476Y-92416380D02*
X314039047Y-92987809D01*
G04 #@! TO.C,D1*
X371371904Y-171117380D02*
X371371904Y-170117380D01*
X371610000Y-170117380D01*
X371752857Y-170165000D01*
X371848095Y-170260238D01*
X371895714Y-170355476D01*
X371943333Y-170545952D01*
X371943333Y-170688809D01*
X371895714Y-170879285D01*
X371848095Y-170974523D01*
X371752857Y-171069761D01*
X371610000Y-171117380D01*
X371371904Y-171117380D01*
X372895714Y-171117380D02*
X372324285Y-171117380D01*
X372610000Y-171117380D02*
X372610000Y-170117380D01*
X372514761Y-170260238D01*
X372419523Y-170355476D01*
X372324285Y-170403095D01*
G04 #@! TO.C,SW2*
X49085666Y-115720761D02*
X49228523Y-115768380D01*
X49466619Y-115768380D01*
X49561857Y-115720761D01*
X49609476Y-115673142D01*
X49657095Y-115577904D01*
X49657095Y-115482666D01*
X49609476Y-115387428D01*
X49561857Y-115339809D01*
X49466619Y-115292190D01*
X49276142Y-115244571D01*
X49180904Y-115196952D01*
X49133285Y-115149333D01*
X49085666Y-115054095D01*
X49085666Y-114958857D01*
X49133285Y-114863619D01*
X49180904Y-114816000D01*
X49276142Y-114768380D01*
X49514238Y-114768380D01*
X49657095Y-114816000D01*
X49990428Y-114768380D02*
X50228523Y-115768380D01*
X50419000Y-115054095D01*
X50609476Y-115768380D01*
X50847571Y-114768380D01*
X51180904Y-114863619D02*
X51228523Y-114816000D01*
X51323761Y-114768380D01*
X51561857Y-114768380D01*
X51657095Y-114816000D01*
X51704714Y-114863619D01*
X51752333Y-114958857D01*
X51752333Y-115054095D01*
X51704714Y-115196952D01*
X51133285Y-115768380D01*
X51752333Y-115768380D01*
X47871380Y-131421142D02*
X47823761Y-131468761D01*
X47680904Y-131516380D01*
X47585666Y-131516380D01*
X47442809Y-131468761D01*
X47347571Y-131373523D01*
X47299952Y-131278285D01*
X47252333Y-131087809D01*
X47252333Y-130944952D01*
X47299952Y-130754476D01*
X47347571Y-130659238D01*
X47442809Y-130564000D01*
X47585666Y-130516380D01*
X47680904Y-130516380D01*
X47823761Y-130564000D01*
X47871380Y-130611619D01*
X48490428Y-130516380D02*
X48680904Y-130516380D01*
X48776142Y-130564000D01*
X48871380Y-130659238D01*
X48919000Y-130849714D01*
X48919000Y-131183047D01*
X48871380Y-131373523D01*
X48776142Y-131468761D01*
X48680904Y-131516380D01*
X48490428Y-131516380D01*
X48395190Y-131468761D01*
X48299952Y-131373523D01*
X48252333Y-131183047D01*
X48252333Y-130849714D01*
X48299952Y-130659238D01*
X48395190Y-130564000D01*
X48490428Y-130516380D01*
X49347571Y-131516380D02*
X49347571Y-130516380D01*
X49919000Y-131516380D01*
X49919000Y-130516380D01*
X50252333Y-130516380D02*
X50823761Y-130516380D01*
X50538047Y-131516380D02*
X50538047Y-130516380D01*
X51728523Y-131516380D02*
X51395190Y-131040190D01*
X51157095Y-131516380D02*
X51157095Y-130516380D01*
X51538047Y-130516380D01*
X51633285Y-130564000D01*
X51680904Y-130611619D01*
X51728523Y-130706857D01*
X51728523Y-130849714D01*
X51680904Y-130944952D01*
X51633285Y-130992571D01*
X51538047Y-131040190D01*
X51157095Y-131040190D01*
X52347571Y-130516380D02*
X52538047Y-130516380D01*
X52633285Y-130564000D01*
X52728523Y-130659238D01*
X52776142Y-130849714D01*
X52776142Y-131183047D01*
X52728523Y-131373523D01*
X52633285Y-131468761D01*
X52538047Y-131516380D01*
X52347571Y-131516380D01*
X52252333Y-131468761D01*
X52157095Y-131373523D01*
X52109476Y-131183047D01*
X52109476Y-130849714D01*
X52157095Y-130659238D01*
X52252333Y-130564000D01*
X52347571Y-130516380D01*
X53680904Y-131516380D02*
X53204714Y-131516380D01*
X53204714Y-130516380D01*
G04 #@! TO.C,SW4*
X177736666Y-77620761D02*
X177879523Y-77668380D01*
X178117619Y-77668380D01*
X178212857Y-77620761D01*
X178260476Y-77573142D01*
X178308095Y-77477904D01*
X178308095Y-77382666D01*
X178260476Y-77287428D01*
X178212857Y-77239809D01*
X178117619Y-77192190D01*
X177927142Y-77144571D01*
X177831904Y-77096952D01*
X177784285Y-77049333D01*
X177736666Y-76954095D01*
X177736666Y-76858857D01*
X177784285Y-76763619D01*
X177831904Y-76716000D01*
X177927142Y-76668380D01*
X178165238Y-76668380D01*
X178308095Y-76716000D01*
X178641428Y-76668380D02*
X178879523Y-77668380D01*
X179070000Y-76954095D01*
X179260476Y-77668380D01*
X179498571Y-76668380D01*
X180308095Y-77001714D02*
X180308095Y-77668380D01*
X180070000Y-76620761D02*
X179831904Y-77335047D01*
X180450952Y-77335047D01*
X178736666Y-92416380D02*
X179403333Y-92416380D01*
X178974761Y-93416380D01*
G04 #@! TO.C,SW5*
X158686666Y-77620761D02*
X158829523Y-77668380D01*
X159067619Y-77668380D01*
X159162857Y-77620761D01*
X159210476Y-77573142D01*
X159258095Y-77477904D01*
X159258095Y-77382666D01*
X159210476Y-77287428D01*
X159162857Y-77239809D01*
X159067619Y-77192190D01*
X158877142Y-77144571D01*
X158781904Y-77096952D01*
X158734285Y-77049333D01*
X158686666Y-76954095D01*
X158686666Y-76858857D01*
X158734285Y-76763619D01*
X158781904Y-76716000D01*
X158877142Y-76668380D01*
X159115238Y-76668380D01*
X159258095Y-76716000D01*
X159591428Y-76668380D02*
X159829523Y-77668380D01*
X160020000Y-76954095D01*
X160210476Y-77668380D01*
X160448571Y-76668380D01*
X161305714Y-76668380D02*
X160829523Y-76668380D01*
X160781904Y-77144571D01*
X160829523Y-77096952D01*
X160924761Y-77049333D01*
X161162857Y-77049333D01*
X161258095Y-77096952D01*
X161305714Y-77144571D01*
X161353333Y-77239809D01*
X161353333Y-77477904D01*
X161305714Y-77573142D01*
X161258095Y-77620761D01*
X161162857Y-77668380D01*
X160924761Y-77668380D01*
X160829523Y-77620761D01*
X160781904Y-77573142D01*
X160210476Y-92416380D02*
X160020000Y-92416380D01*
X159924761Y-92464000D01*
X159877142Y-92511619D01*
X159781904Y-92654476D01*
X159734285Y-92844952D01*
X159734285Y-93225904D01*
X159781904Y-93321142D01*
X159829523Y-93368761D01*
X159924761Y-93416380D01*
X160115238Y-93416380D01*
X160210476Y-93368761D01*
X160258095Y-93321142D01*
X160305714Y-93225904D01*
X160305714Y-92987809D01*
X160258095Y-92892571D01*
X160210476Y-92844952D01*
X160115238Y-92797333D01*
X159924761Y-92797333D01*
X159829523Y-92844952D01*
X159781904Y-92892571D01*
X159734285Y-92987809D01*
G04 #@! TO.C,SW6*
X187261666Y-96670761D02*
X187404523Y-96718380D01*
X187642619Y-96718380D01*
X187737857Y-96670761D01*
X187785476Y-96623142D01*
X187833095Y-96527904D01*
X187833095Y-96432666D01*
X187785476Y-96337428D01*
X187737857Y-96289809D01*
X187642619Y-96242190D01*
X187452142Y-96194571D01*
X187356904Y-96146952D01*
X187309285Y-96099333D01*
X187261666Y-96004095D01*
X187261666Y-95908857D01*
X187309285Y-95813619D01*
X187356904Y-95766000D01*
X187452142Y-95718380D01*
X187690238Y-95718380D01*
X187833095Y-95766000D01*
X188166428Y-95718380D02*
X188404523Y-96718380D01*
X188595000Y-96004095D01*
X188785476Y-96718380D01*
X189023571Y-95718380D01*
X189833095Y-95718380D02*
X189642619Y-95718380D01*
X189547380Y-95766000D01*
X189499761Y-95813619D01*
X189404523Y-95956476D01*
X189356904Y-96146952D01*
X189356904Y-96527904D01*
X189404523Y-96623142D01*
X189452142Y-96670761D01*
X189547380Y-96718380D01*
X189737857Y-96718380D01*
X189833095Y-96670761D01*
X189880714Y-96623142D01*
X189928333Y-96527904D01*
X189928333Y-96289809D01*
X189880714Y-96194571D01*
X189833095Y-96146952D01*
X189737857Y-96099333D01*
X189547380Y-96099333D01*
X189452142Y-96146952D01*
X189404523Y-96194571D01*
X189356904Y-96289809D01*
X188309285Y-111466380D02*
X188309285Y-112275904D01*
X188356904Y-112371142D01*
X188404523Y-112418761D01*
X188499761Y-112466380D01*
X188690238Y-112466380D01*
X188785476Y-112418761D01*
X188833095Y-112371142D01*
X188880714Y-112275904D01*
X188880714Y-111466380D01*
G04 #@! TO.C,SW7*
X168211666Y-96670761D02*
X168354523Y-96718380D01*
X168592619Y-96718380D01*
X168687857Y-96670761D01*
X168735476Y-96623142D01*
X168783095Y-96527904D01*
X168783095Y-96432666D01*
X168735476Y-96337428D01*
X168687857Y-96289809D01*
X168592619Y-96242190D01*
X168402142Y-96194571D01*
X168306904Y-96146952D01*
X168259285Y-96099333D01*
X168211666Y-96004095D01*
X168211666Y-95908857D01*
X168259285Y-95813619D01*
X168306904Y-95766000D01*
X168402142Y-95718380D01*
X168640238Y-95718380D01*
X168783095Y-95766000D01*
X169116428Y-95718380D02*
X169354523Y-96718380D01*
X169545000Y-96004095D01*
X169735476Y-96718380D01*
X169973571Y-95718380D01*
X170259285Y-95718380D02*
X170925952Y-95718380D01*
X170497380Y-96718380D01*
X169545000Y-111990190D02*
X169545000Y-112466380D01*
X169211666Y-111466380D02*
X169545000Y-111990190D01*
X169878333Y-111466380D01*
G04 #@! TO.C,SW8*
X182689666Y-134770761D02*
X182832523Y-134818380D01*
X183070619Y-134818380D01*
X183165857Y-134770761D01*
X183213476Y-134723142D01*
X183261095Y-134627904D01*
X183261095Y-134532666D01*
X183213476Y-134437428D01*
X183165857Y-134389809D01*
X183070619Y-134342190D01*
X182880142Y-134294571D01*
X182784904Y-134246952D01*
X182737285Y-134199333D01*
X182689666Y-134104095D01*
X182689666Y-134008857D01*
X182737285Y-133913619D01*
X182784904Y-133866000D01*
X182880142Y-133818380D01*
X183118238Y-133818380D01*
X183261095Y-133866000D01*
X183594428Y-133818380D02*
X183832523Y-134818380D01*
X184023000Y-134104095D01*
X184213476Y-134818380D01*
X184451571Y-133818380D01*
X184975380Y-134246952D02*
X184880142Y-134199333D01*
X184832523Y-134151714D01*
X184784904Y-134056476D01*
X184784904Y-134008857D01*
X184832523Y-133913619D01*
X184880142Y-133866000D01*
X184975380Y-133818380D01*
X185165857Y-133818380D01*
X185261095Y-133866000D01*
X185308714Y-133913619D01*
X185356333Y-134008857D01*
X185356333Y-134056476D01*
X185308714Y-134151714D01*
X185261095Y-134199333D01*
X185165857Y-134246952D01*
X184975380Y-134246952D01*
X184880142Y-134294571D01*
X184832523Y-134342190D01*
X184784904Y-134437428D01*
X184784904Y-134627904D01*
X184832523Y-134723142D01*
X184880142Y-134770761D01*
X184975380Y-134818380D01*
X185165857Y-134818380D01*
X185261095Y-134770761D01*
X185308714Y-134723142D01*
X185356333Y-134627904D01*
X185356333Y-134437428D01*
X185308714Y-134342190D01*
X185261095Y-134294571D01*
X185165857Y-134246952D01*
X183737285Y-150566380D02*
X183737285Y-149566380D01*
X184308714Y-150566380D01*
X184308714Y-149566380D01*
G04 #@! TO.C,SW9*
X191960666Y-115720761D02*
X192103523Y-115768380D01*
X192341619Y-115768380D01*
X192436857Y-115720761D01*
X192484476Y-115673142D01*
X192532095Y-115577904D01*
X192532095Y-115482666D01*
X192484476Y-115387428D01*
X192436857Y-115339809D01*
X192341619Y-115292190D01*
X192151142Y-115244571D01*
X192055904Y-115196952D01*
X192008285Y-115149333D01*
X191960666Y-115054095D01*
X191960666Y-114958857D01*
X192008285Y-114863619D01*
X192055904Y-114816000D01*
X192151142Y-114768380D01*
X192389238Y-114768380D01*
X192532095Y-114816000D01*
X192865428Y-114768380D02*
X193103523Y-115768380D01*
X193294000Y-115054095D01*
X193484476Y-115768380D01*
X193722571Y-114768380D01*
X194151142Y-115768380D02*
X194341619Y-115768380D01*
X194436857Y-115720761D01*
X194484476Y-115673142D01*
X194579714Y-115530285D01*
X194627333Y-115339809D01*
X194627333Y-114958857D01*
X194579714Y-114863619D01*
X194532095Y-114816000D01*
X194436857Y-114768380D01*
X194246380Y-114768380D01*
X194151142Y-114816000D01*
X194103523Y-114863619D01*
X194055904Y-114958857D01*
X194055904Y-115196952D01*
X194103523Y-115292190D01*
X194151142Y-115339809D01*
X194246380Y-115387428D01*
X194436857Y-115387428D01*
X194532095Y-115339809D01*
X194579714Y-115292190D01*
X194627333Y-115196952D01*
X193436857Y-130516380D02*
X193436857Y-131230666D01*
X193389238Y-131373523D01*
X193294000Y-131468761D01*
X193151142Y-131516380D01*
X193055904Y-131516380D01*
G04 #@! TO.C,SW10*
X172434476Y-115720761D02*
X172577333Y-115768380D01*
X172815428Y-115768380D01*
X172910666Y-115720761D01*
X172958285Y-115673142D01*
X173005904Y-115577904D01*
X173005904Y-115482666D01*
X172958285Y-115387428D01*
X172910666Y-115339809D01*
X172815428Y-115292190D01*
X172624952Y-115244571D01*
X172529714Y-115196952D01*
X172482095Y-115149333D01*
X172434476Y-115054095D01*
X172434476Y-114958857D01*
X172482095Y-114863619D01*
X172529714Y-114816000D01*
X172624952Y-114768380D01*
X172863047Y-114768380D01*
X173005904Y-114816000D01*
X173339238Y-114768380D02*
X173577333Y-115768380D01*
X173767809Y-115054095D01*
X173958285Y-115768380D01*
X174196380Y-114768380D01*
X175101142Y-115768380D02*
X174529714Y-115768380D01*
X174815428Y-115768380D02*
X174815428Y-114768380D01*
X174720190Y-114911238D01*
X174624952Y-115006476D01*
X174529714Y-115054095D01*
X175720190Y-114768380D02*
X175815428Y-114768380D01*
X175910666Y-114816000D01*
X175958285Y-114863619D01*
X176005904Y-114958857D01*
X176053523Y-115149333D01*
X176053523Y-115387428D01*
X176005904Y-115577904D01*
X175958285Y-115673142D01*
X175910666Y-115720761D01*
X175815428Y-115768380D01*
X175720190Y-115768380D01*
X175624952Y-115720761D01*
X175577333Y-115673142D01*
X175529714Y-115577904D01*
X175482095Y-115387428D01*
X175482095Y-115149333D01*
X175529714Y-114958857D01*
X175577333Y-114863619D01*
X175624952Y-114816000D01*
X175720190Y-114768380D01*
X173958285Y-131516380D02*
X173958285Y-130516380D01*
X173958285Y-130992571D02*
X174529714Y-130992571D01*
X174529714Y-131516380D02*
X174529714Y-130516380D01*
G04 #@! TO.C,SW11*
X172815476Y-153820761D02*
X172958333Y-153868380D01*
X173196428Y-153868380D01*
X173291666Y-153820761D01*
X173339285Y-153773142D01*
X173386904Y-153677904D01*
X173386904Y-153582666D01*
X173339285Y-153487428D01*
X173291666Y-153439809D01*
X173196428Y-153392190D01*
X173005952Y-153344571D01*
X172910714Y-153296952D01*
X172863095Y-153249333D01*
X172815476Y-153154095D01*
X172815476Y-153058857D01*
X172863095Y-152963619D01*
X172910714Y-152916000D01*
X173005952Y-152868380D01*
X173244047Y-152868380D01*
X173386904Y-152916000D01*
X173720238Y-152868380D02*
X173958333Y-153868380D01*
X174148809Y-153154095D01*
X174339285Y-153868380D01*
X174577380Y-152868380D01*
X175482142Y-153868380D02*
X174910714Y-153868380D01*
X175196428Y-153868380D02*
X175196428Y-152868380D01*
X175101190Y-153011238D01*
X175005952Y-153106476D01*
X174910714Y-153154095D01*
X176434523Y-153868380D02*
X175863095Y-153868380D01*
X176148809Y-153868380D02*
X176148809Y-152868380D01*
X176053571Y-153011238D01*
X175958333Y-153106476D01*
X175863095Y-153154095D01*
X172458333Y-169568761D02*
X172601190Y-169616380D01*
X172839285Y-169616380D01*
X172934523Y-169568761D01*
X172982142Y-169521142D01*
X173029761Y-169425904D01*
X173029761Y-169330666D01*
X172982142Y-169235428D01*
X172934523Y-169187809D01*
X172839285Y-169140190D01*
X172648809Y-169092571D01*
X172553571Y-169044952D01*
X172505952Y-168997333D01*
X172458333Y-168902095D01*
X172458333Y-168806857D01*
X172505952Y-168711619D01*
X172553571Y-168664000D01*
X172648809Y-168616380D01*
X172886904Y-168616380D01*
X173029761Y-168664000D01*
X173458333Y-169616380D02*
X173458333Y-168616380D01*
X173839285Y-168616380D01*
X173934523Y-168664000D01*
X173982142Y-168711619D01*
X174029761Y-168806857D01*
X174029761Y-168949714D01*
X173982142Y-169044952D01*
X173934523Y-169092571D01*
X173839285Y-169140190D01*
X173458333Y-169140190D01*
X174410714Y-169330666D02*
X174886904Y-169330666D01*
X174315476Y-169616380D02*
X174648809Y-168616380D01*
X174982142Y-169616380D01*
X175886904Y-169521142D02*
X175839285Y-169568761D01*
X175696428Y-169616380D01*
X175601190Y-169616380D01*
X175458333Y-169568761D01*
X175363095Y-169473523D01*
X175315476Y-169378285D01*
X175267857Y-169187809D01*
X175267857Y-169044952D01*
X175315476Y-168854476D01*
X175363095Y-168759238D01*
X175458333Y-168664000D01*
X175601190Y-168616380D01*
X175696428Y-168616380D01*
X175839285Y-168664000D01*
X175886904Y-168711619D01*
X176315476Y-169092571D02*
X176648809Y-169092571D01*
X176791666Y-169616380D02*
X176315476Y-169616380D01*
X176315476Y-168616380D01*
X176791666Y-168616380D01*
G04 #@! TO.C,SW12*
X348075476Y-153820761D02*
X348218333Y-153868380D01*
X348456428Y-153868380D01*
X348551666Y-153820761D01*
X348599285Y-153773142D01*
X348646904Y-153677904D01*
X348646904Y-153582666D01*
X348599285Y-153487428D01*
X348551666Y-153439809D01*
X348456428Y-153392190D01*
X348265952Y-153344571D01*
X348170714Y-153296952D01*
X348123095Y-153249333D01*
X348075476Y-153154095D01*
X348075476Y-153058857D01*
X348123095Y-152963619D01*
X348170714Y-152916000D01*
X348265952Y-152868380D01*
X348504047Y-152868380D01*
X348646904Y-152916000D01*
X348980238Y-152868380D02*
X349218333Y-153868380D01*
X349408809Y-153154095D01*
X349599285Y-153868380D01*
X349837380Y-152868380D01*
X350742142Y-153868380D02*
X350170714Y-153868380D01*
X350456428Y-153868380D02*
X350456428Y-152868380D01*
X350361190Y-153011238D01*
X350265952Y-153106476D01*
X350170714Y-153154095D01*
X351123095Y-152963619D02*
X351170714Y-152916000D01*
X351265952Y-152868380D01*
X351504047Y-152868380D01*
X351599285Y-152916000D01*
X351646904Y-152963619D01*
X351694523Y-153058857D01*
X351694523Y-153154095D01*
X351646904Y-153296952D01*
X351075476Y-153868380D01*
X351694523Y-153868380D01*
X348242142Y-169616380D02*
X348242142Y-168616380D01*
X348242142Y-169092571D02*
X348813571Y-169092571D01*
X348813571Y-169616380D02*
X348813571Y-168616380D01*
X349289761Y-169092571D02*
X349623095Y-169092571D01*
X349765952Y-169616380D02*
X349289761Y-169616380D01*
X349289761Y-168616380D01*
X349765952Y-168616380D01*
X350670714Y-169616380D02*
X350194523Y-169616380D01*
X350194523Y-168616380D01*
X351004047Y-169616380D02*
X351004047Y-168616380D01*
X351385000Y-168616380D01*
X351480238Y-168664000D01*
X351527857Y-168711619D01*
X351575476Y-168806857D01*
X351575476Y-168949714D01*
X351527857Y-169044952D01*
X351480238Y-169092571D01*
X351385000Y-169140190D01*
X351004047Y-169140190D01*
G04 #@! TO.C,SW13*
X196310476Y-77620761D02*
X196453333Y-77668380D01*
X196691428Y-77668380D01*
X196786666Y-77620761D01*
X196834285Y-77573142D01*
X196881904Y-77477904D01*
X196881904Y-77382666D01*
X196834285Y-77287428D01*
X196786666Y-77239809D01*
X196691428Y-77192190D01*
X196500952Y-77144571D01*
X196405714Y-77096952D01*
X196358095Y-77049333D01*
X196310476Y-76954095D01*
X196310476Y-76858857D01*
X196358095Y-76763619D01*
X196405714Y-76716000D01*
X196500952Y-76668380D01*
X196739047Y-76668380D01*
X196881904Y-76716000D01*
X197215238Y-76668380D02*
X197453333Y-77668380D01*
X197643809Y-76954095D01*
X197834285Y-77668380D01*
X198072380Y-76668380D01*
X198977142Y-77668380D02*
X198405714Y-77668380D01*
X198691428Y-77668380D02*
X198691428Y-76668380D01*
X198596190Y-76811238D01*
X198500952Y-76906476D01*
X198405714Y-76954095D01*
X199310476Y-76668380D02*
X199929523Y-76668380D01*
X199596190Y-77049333D01*
X199739047Y-77049333D01*
X199834285Y-77096952D01*
X199881904Y-77144571D01*
X199929523Y-77239809D01*
X199929523Y-77477904D01*
X199881904Y-77573142D01*
X199834285Y-77620761D01*
X199739047Y-77668380D01*
X199453333Y-77668380D01*
X199358095Y-77620761D01*
X199310476Y-77573142D01*
X198024761Y-92844952D02*
X197929523Y-92797333D01*
X197881904Y-92749714D01*
X197834285Y-92654476D01*
X197834285Y-92606857D01*
X197881904Y-92511619D01*
X197929523Y-92464000D01*
X198024761Y-92416380D01*
X198215238Y-92416380D01*
X198310476Y-92464000D01*
X198358095Y-92511619D01*
X198405714Y-92606857D01*
X198405714Y-92654476D01*
X198358095Y-92749714D01*
X198310476Y-92797333D01*
X198215238Y-92844952D01*
X198024761Y-92844952D01*
X197929523Y-92892571D01*
X197881904Y-92940190D01*
X197834285Y-93035428D01*
X197834285Y-93225904D01*
X197881904Y-93321142D01*
X197929523Y-93368761D01*
X198024761Y-93416380D01*
X198215238Y-93416380D01*
X198310476Y-93368761D01*
X198358095Y-93321142D01*
X198405714Y-93225904D01*
X198405714Y-93035428D01*
X198358095Y-92940190D01*
X198310476Y-92892571D01*
X198215238Y-92844952D01*
G04 #@! TO.C,SW14*
X139160476Y-77620761D02*
X139303333Y-77668380D01*
X139541428Y-77668380D01*
X139636666Y-77620761D01*
X139684285Y-77573142D01*
X139731904Y-77477904D01*
X139731904Y-77382666D01*
X139684285Y-77287428D01*
X139636666Y-77239809D01*
X139541428Y-77192190D01*
X139350952Y-77144571D01*
X139255714Y-77096952D01*
X139208095Y-77049333D01*
X139160476Y-76954095D01*
X139160476Y-76858857D01*
X139208095Y-76763619D01*
X139255714Y-76716000D01*
X139350952Y-76668380D01*
X139589047Y-76668380D01*
X139731904Y-76716000D01*
X140065238Y-76668380D02*
X140303333Y-77668380D01*
X140493809Y-76954095D01*
X140684285Y-77668380D01*
X140922380Y-76668380D01*
X141827142Y-77668380D02*
X141255714Y-77668380D01*
X141541428Y-77668380D02*
X141541428Y-76668380D01*
X141446190Y-76811238D01*
X141350952Y-76906476D01*
X141255714Y-76954095D01*
X142684285Y-77001714D02*
X142684285Y-77668380D01*
X142446190Y-76620761D02*
X142208095Y-77335047D01*
X142827142Y-77335047D01*
X141208095Y-92416380D02*
X140731904Y-92416380D01*
X140684285Y-92892571D01*
X140731904Y-92844952D01*
X140827142Y-92797333D01*
X141065238Y-92797333D01*
X141160476Y-92844952D01*
X141208095Y-92892571D01*
X141255714Y-92987809D01*
X141255714Y-93225904D01*
X141208095Y-93321142D01*
X141160476Y-93368761D01*
X141065238Y-93416380D01*
X140827142Y-93416380D01*
X140731904Y-93368761D01*
X140684285Y-93321142D01*
G04 #@! TO.C,SW15*
X205835476Y-96670761D02*
X205978333Y-96718380D01*
X206216428Y-96718380D01*
X206311666Y-96670761D01*
X206359285Y-96623142D01*
X206406904Y-96527904D01*
X206406904Y-96432666D01*
X206359285Y-96337428D01*
X206311666Y-96289809D01*
X206216428Y-96242190D01*
X206025952Y-96194571D01*
X205930714Y-96146952D01*
X205883095Y-96099333D01*
X205835476Y-96004095D01*
X205835476Y-95908857D01*
X205883095Y-95813619D01*
X205930714Y-95766000D01*
X206025952Y-95718380D01*
X206264047Y-95718380D01*
X206406904Y-95766000D01*
X206740238Y-95718380D02*
X206978333Y-96718380D01*
X207168809Y-96004095D01*
X207359285Y-96718380D01*
X207597380Y-95718380D01*
X208502142Y-96718380D02*
X207930714Y-96718380D01*
X208216428Y-96718380D02*
X208216428Y-95718380D01*
X208121190Y-95861238D01*
X208025952Y-95956476D01*
X207930714Y-96004095D01*
X209406904Y-95718380D02*
X208930714Y-95718380D01*
X208883095Y-96194571D01*
X208930714Y-96146952D01*
X209025952Y-96099333D01*
X209264047Y-96099333D01*
X209359285Y-96146952D01*
X209406904Y-96194571D01*
X209454523Y-96289809D01*
X209454523Y-96527904D01*
X209406904Y-96623142D01*
X209359285Y-96670761D01*
X209264047Y-96718380D01*
X209025952Y-96718380D01*
X208930714Y-96670761D01*
X208883095Y-96623142D01*
X207645000Y-112466380D02*
X207645000Y-111466380D01*
G04 #@! TO.C,SW16*
X148685476Y-96670761D02*
X148828333Y-96718380D01*
X149066428Y-96718380D01*
X149161666Y-96670761D01*
X149209285Y-96623142D01*
X149256904Y-96527904D01*
X149256904Y-96432666D01*
X149209285Y-96337428D01*
X149161666Y-96289809D01*
X149066428Y-96242190D01*
X148875952Y-96194571D01*
X148780714Y-96146952D01*
X148733095Y-96099333D01*
X148685476Y-96004095D01*
X148685476Y-95908857D01*
X148733095Y-95813619D01*
X148780714Y-95766000D01*
X148875952Y-95718380D01*
X149114047Y-95718380D01*
X149256904Y-95766000D01*
X149590238Y-95718380D02*
X149828333Y-96718380D01*
X150018809Y-96004095D01*
X150209285Y-96718380D01*
X150447380Y-95718380D01*
X151352142Y-96718380D02*
X150780714Y-96718380D01*
X151066428Y-96718380D02*
X151066428Y-95718380D01*
X150971190Y-95861238D01*
X150875952Y-95956476D01*
X150780714Y-96004095D01*
X152209285Y-95718380D02*
X152018809Y-95718380D01*
X151923571Y-95766000D01*
X151875952Y-95813619D01*
X151780714Y-95956476D01*
X151733095Y-96146952D01*
X151733095Y-96527904D01*
X151780714Y-96623142D01*
X151828333Y-96670761D01*
X151923571Y-96718380D01*
X152114047Y-96718380D01*
X152209285Y-96670761D01*
X152256904Y-96623142D01*
X152304523Y-96527904D01*
X152304523Y-96289809D01*
X152256904Y-96194571D01*
X152209285Y-96146952D01*
X152114047Y-96099333D01*
X151923571Y-96099333D01*
X151828333Y-96146952D01*
X151780714Y-96194571D01*
X151733095Y-96289809D01*
X150209285Y-111466380D02*
X150780714Y-111466380D01*
X150495000Y-112466380D02*
X150495000Y-111466380D01*
G04 #@! TO.C,SW17*
X210534476Y-115720761D02*
X210677333Y-115768380D01*
X210915428Y-115768380D01*
X211010666Y-115720761D01*
X211058285Y-115673142D01*
X211105904Y-115577904D01*
X211105904Y-115482666D01*
X211058285Y-115387428D01*
X211010666Y-115339809D01*
X210915428Y-115292190D01*
X210724952Y-115244571D01*
X210629714Y-115196952D01*
X210582095Y-115149333D01*
X210534476Y-115054095D01*
X210534476Y-114958857D01*
X210582095Y-114863619D01*
X210629714Y-114816000D01*
X210724952Y-114768380D01*
X210963047Y-114768380D01*
X211105904Y-114816000D01*
X211439238Y-114768380D02*
X211677333Y-115768380D01*
X211867809Y-115054095D01*
X212058285Y-115768380D01*
X212296380Y-114768380D01*
X213201142Y-115768380D02*
X212629714Y-115768380D01*
X212915428Y-115768380D02*
X212915428Y-114768380D01*
X212820190Y-114911238D01*
X212724952Y-115006476D01*
X212629714Y-115054095D01*
X213534476Y-114768380D02*
X214201142Y-114768380D01*
X213772571Y-115768380D01*
X212082095Y-131516380D02*
X212082095Y-130516380D01*
X212653523Y-131516380D02*
X212224952Y-130944952D01*
X212653523Y-130516380D02*
X212082095Y-131087809D01*
G04 #@! TO.C,SW18*
X153384476Y-115720761D02*
X153527333Y-115768380D01*
X153765428Y-115768380D01*
X153860666Y-115720761D01*
X153908285Y-115673142D01*
X153955904Y-115577904D01*
X153955904Y-115482666D01*
X153908285Y-115387428D01*
X153860666Y-115339809D01*
X153765428Y-115292190D01*
X153574952Y-115244571D01*
X153479714Y-115196952D01*
X153432095Y-115149333D01*
X153384476Y-115054095D01*
X153384476Y-114958857D01*
X153432095Y-114863619D01*
X153479714Y-114816000D01*
X153574952Y-114768380D01*
X153813047Y-114768380D01*
X153955904Y-114816000D01*
X154289238Y-114768380D02*
X154527333Y-115768380D01*
X154717809Y-115054095D01*
X154908285Y-115768380D01*
X155146380Y-114768380D01*
X156051142Y-115768380D02*
X155479714Y-115768380D01*
X155765428Y-115768380D02*
X155765428Y-114768380D01*
X155670190Y-114911238D01*
X155574952Y-115006476D01*
X155479714Y-115054095D01*
X156622571Y-115196952D02*
X156527333Y-115149333D01*
X156479714Y-115101714D01*
X156432095Y-115006476D01*
X156432095Y-114958857D01*
X156479714Y-114863619D01*
X156527333Y-114816000D01*
X156622571Y-114768380D01*
X156813047Y-114768380D01*
X156908285Y-114816000D01*
X156955904Y-114863619D01*
X157003523Y-114958857D01*
X157003523Y-115006476D01*
X156955904Y-115101714D01*
X156908285Y-115149333D01*
X156813047Y-115196952D01*
X156622571Y-115196952D01*
X156527333Y-115244571D01*
X156479714Y-115292190D01*
X156432095Y-115387428D01*
X156432095Y-115577904D01*
X156479714Y-115673142D01*
X156527333Y-115720761D01*
X156622571Y-115768380D01*
X156813047Y-115768380D01*
X156908285Y-115720761D01*
X156955904Y-115673142D01*
X157003523Y-115577904D01*
X157003523Y-115387428D01*
X156955904Y-115292190D01*
X156908285Y-115244571D01*
X156813047Y-115196952D01*
X155455904Y-130564000D02*
X155360666Y-130516380D01*
X155217809Y-130516380D01*
X155074952Y-130564000D01*
X154979714Y-130659238D01*
X154932095Y-130754476D01*
X154884476Y-130944952D01*
X154884476Y-131087809D01*
X154932095Y-131278285D01*
X154979714Y-131373523D01*
X155074952Y-131468761D01*
X155217809Y-131516380D01*
X155313047Y-131516380D01*
X155455904Y-131468761D01*
X155503523Y-131421142D01*
X155503523Y-131087809D01*
X155313047Y-131087809D01*
G04 #@! TO.C,SW19*
X201263476Y-134770761D02*
X201406333Y-134818380D01*
X201644428Y-134818380D01*
X201739666Y-134770761D01*
X201787285Y-134723142D01*
X201834904Y-134627904D01*
X201834904Y-134532666D01*
X201787285Y-134437428D01*
X201739666Y-134389809D01*
X201644428Y-134342190D01*
X201453952Y-134294571D01*
X201358714Y-134246952D01*
X201311095Y-134199333D01*
X201263476Y-134104095D01*
X201263476Y-134008857D01*
X201311095Y-133913619D01*
X201358714Y-133866000D01*
X201453952Y-133818380D01*
X201692047Y-133818380D01*
X201834904Y-133866000D01*
X202168238Y-133818380D02*
X202406333Y-134818380D01*
X202596809Y-134104095D01*
X202787285Y-134818380D01*
X203025380Y-133818380D01*
X203930142Y-134818380D02*
X203358714Y-134818380D01*
X203644428Y-134818380D02*
X203644428Y-133818380D01*
X203549190Y-133961238D01*
X203453952Y-134056476D01*
X203358714Y-134104095D01*
X204406333Y-134818380D02*
X204596809Y-134818380D01*
X204692047Y-134770761D01*
X204739666Y-134723142D01*
X204834904Y-134580285D01*
X204882523Y-134389809D01*
X204882523Y-134008857D01*
X204834904Y-133913619D01*
X204787285Y-133866000D01*
X204692047Y-133818380D01*
X204501571Y-133818380D01*
X204406333Y-133866000D01*
X204358714Y-133913619D01*
X204311095Y-134008857D01*
X204311095Y-134246952D01*
X204358714Y-134342190D01*
X204406333Y-134389809D01*
X204501571Y-134437428D01*
X204692047Y-134437428D01*
X204787285Y-134389809D01*
X204834904Y-134342190D01*
X204882523Y-134246952D01*
X202739666Y-150566380D02*
X202739666Y-149566380D01*
X203073000Y-150280666D01*
X203406333Y-149566380D01*
X203406333Y-150566380D01*
G04 #@! TO.C,SW20*
X163163476Y-134770761D02*
X163306333Y-134818380D01*
X163544428Y-134818380D01*
X163639666Y-134770761D01*
X163687285Y-134723142D01*
X163734904Y-134627904D01*
X163734904Y-134532666D01*
X163687285Y-134437428D01*
X163639666Y-134389809D01*
X163544428Y-134342190D01*
X163353952Y-134294571D01*
X163258714Y-134246952D01*
X163211095Y-134199333D01*
X163163476Y-134104095D01*
X163163476Y-134008857D01*
X163211095Y-133913619D01*
X163258714Y-133866000D01*
X163353952Y-133818380D01*
X163592047Y-133818380D01*
X163734904Y-133866000D01*
X164068238Y-133818380D02*
X164306333Y-134818380D01*
X164496809Y-134104095D01*
X164687285Y-134818380D01*
X164925380Y-133818380D01*
X165258714Y-133913619D02*
X165306333Y-133866000D01*
X165401571Y-133818380D01*
X165639666Y-133818380D01*
X165734904Y-133866000D01*
X165782523Y-133913619D01*
X165830142Y-134008857D01*
X165830142Y-134104095D01*
X165782523Y-134246952D01*
X165211095Y-134818380D01*
X165830142Y-134818380D01*
X166449190Y-133818380D02*
X166544428Y-133818380D01*
X166639666Y-133866000D01*
X166687285Y-133913619D01*
X166734904Y-134008857D01*
X166782523Y-134199333D01*
X166782523Y-134437428D01*
X166734904Y-134627904D01*
X166687285Y-134723142D01*
X166639666Y-134770761D01*
X166544428Y-134818380D01*
X166449190Y-134818380D01*
X166353952Y-134770761D01*
X166306333Y-134723142D01*
X166258714Y-134627904D01*
X166211095Y-134437428D01*
X166211095Y-134199333D01*
X166258714Y-134008857D01*
X166306333Y-133913619D01*
X166353952Y-133866000D01*
X166449190Y-133818380D01*
X165044428Y-150042571D02*
X165187285Y-150090190D01*
X165234904Y-150137809D01*
X165282523Y-150233047D01*
X165282523Y-150375904D01*
X165234904Y-150471142D01*
X165187285Y-150518761D01*
X165092047Y-150566380D01*
X164711095Y-150566380D01*
X164711095Y-149566380D01*
X165044428Y-149566380D01*
X165139666Y-149614000D01*
X165187285Y-149661619D01*
X165234904Y-149756857D01*
X165234904Y-149852095D01*
X165187285Y-149947333D01*
X165139666Y-149994952D01*
X165044428Y-150042571D01*
X164711095Y-150042571D01*
G04 #@! TO.C,SW21*
X348075476Y-134770761D02*
X348218333Y-134818380D01*
X348456428Y-134818380D01*
X348551666Y-134770761D01*
X348599285Y-134723142D01*
X348646904Y-134627904D01*
X348646904Y-134532666D01*
X348599285Y-134437428D01*
X348551666Y-134389809D01*
X348456428Y-134342190D01*
X348265952Y-134294571D01*
X348170714Y-134246952D01*
X348123095Y-134199333D01*
X348075476Y-134104095D01*
X348075476Y-134008857D01*
X348123095Y-133913619D01*
X348170714Y-133866000D01*
X348265952Y-133818380D01*
X348504047Y-133818380D01*
X348646904Y-133866000D01*
X348980238Y-133818380D02*
X349218333Y-134818380D01*
X349408809Y-134104095D01*
X349599285Y-134818380D01*
X349837380Y-133818380D01*
X350170714Y-133913619D02*
X350218333Y-133866000D01*
X350313571Y-133818380D01*
X350551666Y-133818380D01*
X350646904Y-133866000D01*
X350694523Y-133913619D01*
X350742142Y-134008857D01*
X350742142Y-134104095D01*
X350694523Y-134246952D01*
X350123095Y-134818380D01*
X350742142Y-134818380D01*
X351694523Y-134818380D02*
X351123095Y-134818380D01*
X351408809Y-134818380D02*
X351408809Y-133818380D01*
X351313571Y-133961238D01*
X351218333Y-134056476D01*
X351123095Y-134104095D01*
X347908809Y-150518761D02*
X348051666Y-150566380D01*
X348289761Y-150566380D01*
X348385000Y-150518761D01*
X348432619Y-150471142D01*
X348480238Y-150375904D01*
X348480238Y-150280666D01*
X348432619Y-150185428D01*
X348385000Y-150137809D01*
X348289761Y-150090190D01*
X348099285Y-150042571D01*
X348004047Y-149994952D01*
X347956428Y-149947333D01*
X347908809Y-149852095D01*
X347908809Y-149756857D01*
X347956428Y-149661619D01*
X348004047Y-149614000D01*
X348099285Y-149566380D01*
X348337380Y-149566380D01*
X348480238Y-149614000D01*
X348765952Y-149566380D02*
X349337380Y-149566380D01*
X349051666Y-150566380D02*
X349051666Y-149566380D01*
X349623095Y-150280666D02*
X350099285Y-150280666D01*
X349527857Y-150566380D02*
X349861190Y-149566380D01*
X350194523Y-150566380D01*
X351099285Y-150566380D02*
X350765952Y-150090190D01*
X350527857Y-150566380D02*
X350527857Y-149566380D01*
X350908809Y-149566380D01*
X351004047Y-149614000D01*
X351051666Y-149661619D01*
X351099285Y-149756857D01*
X351099285Y-149899714D01*
X351051666Y-149994952D01*
X351004047Y-150042571D01*
X350908809Y-150090190D01*
X350527857Y-150090190D01*
X351385000Y-149566380D02*
X351956428Y-149566380D01*
X351670714Y-150566380D02*
X351670714Y-149566380D01*
G04 #@! TO.C,SW22*
X215360476Y-77620761D02*
X215503333Y-77668380D01*
X215741428Y-77668380D01*
X215836666Y-77620761D01*
X215884285Y-77573142D01*
X215931904Y-77477904D01*
X215931904Y-77382666D01*
X215884285Y-77287428D01*
X215836666Y-77239809D01*
X215741428Y-77192190D01*
X215550952Y-77144571D01*
X215455714Y-77096952D01*
X215408095Y-77049333D01*
X215360476Y-76954095D01*
X215360476Y-76858857D01*
X215408095Y-76763619D01*
X215455714Y-76716000D01*
X215550952Y-76668380D01*
X215789047Y-76668380D01*
X215931904Y-76716000D01*
X216265238Y-76668380D02*
X216503333Y-77668380D01*
X216693809Y-76954095D01*
X216884285Y-77668380D01*
X217122380Y-76668380D01*
X217455714Y-76763619D02*
X217503333Y-76716000D01*
X217598571Y-76668380D01*
X217836666Y-76668380D01*
X217931904Y-76716000D01*
X217979523Y-76763619D01*
X218027142Y-76858857D01*
X218027142Y-76954095D01*
X217979523Y-77096952D01*
X217408095Y-77668380D01*
X218027142Y-77668380D01*
X218408095Y-76763619D02*
X218455714Y-76716000D01*
X218550952Y-76668380D01*
X218789047Y-76668380D01*
X218884285Y-76716000D01*
X218931904Y-76763619D01*
X218979523Y-76858857D01*
X218979523Y-76954095D01*
X218931904Y-77096952D01*
X218360476Y-77668380D01*
X218979523Y-77668380D01*
X216979523Y-93416380D02*
X217170000Y-93416380D01*
X217265238Y-93368761D01*
X217312857Y-93321142D01*
X217408095Y-93178285D01*
X217455714Y-92987809D01*
X217455714Y-92606857D01*
X217408095Y-92511619D01*
X217360476Y-92464000D01*
X217265238Y-92416380D01*
X217074761Y-92416380D01*
X216979523Y-92464000D01*
X216931904Y-92511619D01*
X216884285Y-92606857D01*
X216884285Y-92844952D01*
X216931904Y-92940190D01*
X216979523Y-92987809D01*
X217074761Y-93035428D01*
X217265238Y-93035428D01*
X217360476Y-92987809D01*
X217408095Y-92940190D01*
X217455714Y-92844952D01*
G04 #@! TO.C,SW23*
X120110476Y-77620761D02*
X120253333Y-77668380D01*
X120491428Y-77668380D01*
X120586666Y-77620761D01*
X120634285Y-77573142D01*
X120681904Y-77477904D01*
X120681904Y-77382666D01*
X120634285Y-77287428D01*
X120586666Y-77239809D01*
X120491428Y-77192190D01*
X120300952Y-77144571D01*
X120205714Y-77096952D01*
X120158095Y-77049333D01*
X120110476Y-76954095D01*
X120110476Y-76858857D01*
X120158095Y-76763619D01*
X120205714Y-76716000D01*
X120300952Y-76668380D01*
X120539047Y-76668380D01*
X120681904Y-76716000D01*
X121015238Y-76668380D02*
X121253333Y-77668380D01*
X121443809Y-76954095D01*
X121634285Y-77668380D01*
X121872380Y-76668380D01*
X122205714Y-76763619D02*
X122253333Y-76716000D01*
X122348571Y-76668380D01*
X122586666Y-76668380D01*
X122681904Y-76716000D01*
X122729523Y-76763619D01*
X122777142Y-76858857D01*
X122777142Y-76954095D01*
X122729523Y-77096952D01*
X122158095Y-77668380D01*
X122777142Y-77668380D01*
X123110476Y-76668380D02*
X123729523Y-76668380D01*
X123396190Y-77049333D01*
X123539047Y-77049333D01*
X123634285Y-77096952D01*
X123681904Y-77144571D01*
X123729523Y-77239809D01*
X123729523Y-77477904D01*
X123681904Y-77573142D01*
X123634285Y-77620761D01*
X123539047Y-77668380D01*
X123253333Y-77668380D01*
X123158095Y-77620761D01*
X123110476Y-77573142D01*
X122110476Y-92749714D02*
X122110476Y-93416380D01*
X121872380Y-92368761D02*
X121634285Y-93083047D01*
X122253333Y-93083047D01*
G04 #@! TO.C,SW24*
X224885476Y-96670761D02*
X225028333Y-96718380D01*
X225266428Y-96718380D01*
X225361666Y-96670761D01*
X225409285Y-96623142D01*
X225456904Y-96527904D01*
X225456904Y-96432666D01*
X225409285Y-96337428D01*
X225361666Y-96289809D01*
X225266428Y-96242190D01*
X225075952Y-96194571D01*
X224980714Y-96146952D01*
X224933095Y-96099333D01*
X224885476Y-96004095D01*
X224885476Y-95908857D01*
X224933095Y-95813619D01*
X224980714Y-95766000D01*
X225075952Y-95718380D01*
X225314047Y-95718380D01*
X225456904Y-95766000D01*
X225790238Y-95718380D02*
X226028333Y-96718380D01*
X226218809Y-96004095D01*
X226409285Y-96718380D01*
X226647380Y-95718380D01*
X226980714Y-95813619D02*
X227028333Y-95766000D01*
X227123571Y-95718380D01*
X227361666Y-95718380D01*
X227456904Y-95766000D01*
X227504523Y-95813619D01*
X227552142Y-95908857D01*
X227552142Y-96004095D01*
X227504523Y-96146952D01*
X226933095Y-96718380D01*
X227552142Y-96718380D01*
X228409285Y-96051714D02*
X228409285Y-96718380D01*
X228171190Y-95670761D02*
X227933095Y-96385047D01*
X228552142Y-96385047D01*
X226599761Y-111466380D02*
X226790238Y-111466380D01*
X226885476Y-111514000D01*
X226980714Y-111609238D01*
X227028333Y-111799714D01*
X227028333Y-112133047D01*
X226980714Y-112323523D01*
X226885476Y-112418761D01*
X226790238Y-112466380D01*
X226599761Y-112466380D01*
X226504523Y-112418761D01*
X226409285Y-112323523D01*
X226361666Y-112133047D01*
X226361666Y-111799714D01*
X226409285Y-111609238D01*
X226504523Y-111514000D01*
X226599761Y-111466380D01*
G04 #@! TO.C,SW25*
X129635476Y-96670761D02*
X129778333Y-96718380D01*
X130016428Y-96718380D01*
X130111666Y-96670761D01*
X130159285Y-96623142D01*
X130206904Y-96527904D01*
X130206904Y-96432666D01*
X130159285Y-96337428D01*
X130111666Y-96289809D01*
X130016428Y-96242190D01*
X129825952Y-96194571D01*
X129730714Y-96146952D01*
X129683095Y-96099333D01*
X129635476Y-96004095D01*
X129635476Y-95908857D01*
X129683095Y-95813619D01*
X129730714Y-95766000D01*
X129825952Y-95718380D01*
X130064047Y-95718380D01*
X130206904Y-95766000D01*
X130540238Y-95718380D02*
X130778333Y-96718380D01*
X130968809Y-96004095D01*
X131159285Y-96718380D01*
X131397380Y-95718380D01*
X131730714Y-95813619D02*
X131778333Y-95766000D01*
X131873571Y-95718380D01*
X132111666Y-95718380D01*
X132206904Y-95766000D01*
X132254523Y-95813619D01*
X132302142Y-95908857D01*
X132302142Y-96004095D01*
X132254523Y-96146952D01*
X131683095Y-96718380D01*
X132302142Y-96718380D01*
X133206904Y-95718380D02*
X132730714Y-95718380D01*
X132683095Y-96194571D01*
X132730714Y-96146952D01*
X132825952Y-96099333D01*
X133064047Y-96099333D01*
X133159285Y-96146952D01*
X133206904Y-96194571D01*
X133254523Y-96289809D01*
X133254523Y-96527904D01*
X133206904Y-96623142D01*
X133159285Y-96670761D01*
X133064047Y-96718380D01*
X132825952Y-96718380D01*
X132730714Y-96670761D01*
X132683095Y-96623142D01*
X131754523Y-112466380D02*
X131421190Y-111990190D01*
X131183095Y-112466380D02*
X131183095Y-111466380D01*
X131564047Y-111466380D01*
X131659285Y-111514000D01*
X131706904Y-111561619D01*
X131754523Y-111656857D01*
X131754523Y-111799714D01*
X131706904Y-111894952D01*
X131659285Y-111942571D01*
X131564047Y-111990190D01*
X131183095Y-111990190D01*
G04 #@! TO.C,SW26*
X229584476Y-115720761D02*
X229727333Y-115768380D01*
X229965428Y-115768380D01*
X230060666Y-115720761D01*
X230108285Y-115673142D01*
X230155904Y-115577904D01*
X230155904Y-115482666D01*
X230108285Y-115387428D01*
X230060666Y-115339809D01*
X229965428Y-115292190D01*
X229774952Y-115244571D01*
X229679714Y-115196952D01*
X229632095Y-115149333D01*
X229584476Y-115054095D01*
X229584476Y-114958857D01*
X229632095Y-114863619D01*
X229679714Y-114816000D01*
X229774952Y-114768380D01*
X230013047Y-114768380D01*
X230155904Y-114816000D01*
X230489238Y-114768380D02*
X230727333Y-115768380D01*
X230917809Y-115054095D01*
X231108285Y-115768380D01*
X231346380Y-114768380D01*
X231679714Y-114863619D02*
X231727333Y-114816000D01*
X231822571Y-114768380D01*
X232060666Y-114768380D01*
X232155904Y-114816000D01*
X232203523Y-114863619D01*
X232251142Y-114958857D01*
X232251142Y-115054095D01*
X232203523Y-115196952D01*
X231632095Y-115768380D01*
X232251142Y-115768380D01*
X233108285Y-114768380D02*
X232917809Y-114768380D01*
X232822571Y-114816000D01*
X232774952Y-114863619D01*
X232679714Y-115006476D01*
X232632095Y-115196952D01*
X232632095Y-115577904D01*
X232679714Y-115673142D01*
X232727333Y-115720761D01*
X232822571Y-115768380D01*
X233013047Y-115768380D01*
X233108285Y-115720761D01*
X233155904Y-115673142D01*
X233203523Y-115577904D01*
X233203523Y-115339809D01*
X233155904Y-115244571D01*
X233108285Y-115196952D01*
X233013047Y-115149333D01*
X232822571Y-115149333D01*
X232727333Y-115196952D01*
X232679714Y-115244571D01*
X232632095Y-115339809D01*
X231703523Y-131516380D02*
X231227333Y-131516380D01*
X231227333Y-130516380D01*
G04 #@! TO.C,SW27*
X134334476Y-115720761D02*
X134477333Y-115768380D01*
X134715428Y-115768380D01*
X134810666Y-115720761D01*
X134858285Y-115673142D01*
X134905904Y-115577904D01*
X134905904Y-115482666D01*
X134858285Y-115387428D01*
X134810666Y-115339809D01*
X134715428Y-115292190D01*
X134524952Y-115244571D01*
X134429714Y-115196952D01*
X134382095Y-115149333D01*
X134334476Y-115054095D01*
X134334476Y-114958857D01*
X134382095Y-114863619D01*
X134429714Y-114816000D01*
X134524952Y-114768380D01*
X134763047Y-114768380D01*
X134905904Y-114816000D01*
X135239238Y-114768380D02*
X135477333Y-115768380D01*
X135667809Y-115054095D01*
X135858285Y-115768380D01*
X136096380Y-114768380D01*
X136429714Y-114863619D02*
X136477333Y-114816000D01*
X136572571Y-114768380D01*
X136810666Y-114768380D01*
X136905904Y-114816000D01*
X136953523Y-114863619D01*
X137001142Y-114958857D01*
X137001142Y-115054095D01*
X136953523Y-115196952D01*
X136382095Y-115768380D01*
X137001142Y-115768380D01*
X137334476Y-114768380D02*
X138001142Y-114768380D01*
X137572571Y-115768380D01*
X136286857Y-130992571D02*
X135953523Y-130992571D01*
X135953523Y-131516380D02*
X135953523Y-130516380D01*
X136429714Y-130516380D01*
G04 #@! TO.C,SW28*
X220313476Y-134770761D02*
X220456333Y-134818380D01*
X220694428Y-134818380D01*
X220789666Y-134770761D01*
X220837285Y-134723142D01*
X220884904Y-134627904D01*
X220884904Y-134532666D01*
X220837285Y-134437428D01*
X220789666Y-134389809D01*
X220694428Y-134342190D01*
X220503952Y-134294571D01*
X220408714Y-134246952D01*
X220361095Y-134199333D01*
X220313476Y-134104095D01*
X220313476Y-134008857D01*
X220361095Y-133913619D01*
X220408714Y-133866000D01*
X220503952Y-133818380D01*
X220742047Y-133818380D01*
X220884904Y-133866000D01*
X221218238Y-133818380D02*
X221456333Y-134818380D01*
X221646809Y-134104095D01*
X221837285Y-134818380D01*
X222075380Y-133818380D01*
X222408714Y-133913619D02*
X222456333Y-133866000D01*
X222551571Y-133818380D01*
X222789666Y-133818380D01*
X222884904Y-133866000D01*
X222932523Y-133913619D01*
X222980142Y-134008857D01*
X222980142Y-134104095D01*
X222932523Y-134246952D01*
X222361095Y-134818380D01*
X222980142Y-134818380D01*
X223551571Y-134246952D02*
X223456333Y-134199333D01*
X223408714Y-134151714D01*
X223361095Y-134056476D01*
X223361095Y-134008857D01*
X223408714Y-133913619D01*
X223456333Y-133866000D01*
X223551571Y-133818380D01*
X223742047Y-133818380D01*
X223837285Y-133866000D01*
X223884904Y-133913619D01*
X223932523Y-134008857D01*
X223932523Y-134056476D01*
X223884904Y-134151714D01*
X223837285Y-134199333D01*
X223742047Y-134246952D01*
X223551571Y-134246952D01*
X223456333Y-134294571D01*
X223408714Y-134342190D01*
X223361095Y-134437428D01*
X223361095Y-134627904D01*
X223408714Y-134723142D01*
X223456333Y-134770761D01*
X223551571Y-134818380D01*
X223742047Y-134818380D01*
X223837285Y-134770761D01*
X223884904Y-134723142D01*
X223932523Y-134627904D01*
X223932523Y-134437428D01*
X223884904Y-134342190D01*
X223837285Y-134294571D01*
X223742047Y-134246952D01*
X220337285Y-150471142D02*
X220289666Y-150518761D01*
X220146809Y-150566380D01*
X220051571Y-150566380D01*
X219908714Y-150518761D01*
X219813476Y-150423523D01*
X219765857Y-150328285D01*
X219718238Y-150137809D01*
X219718238Y-149994952D01*
X219765857Y-149804476D01*
X219813476Y-149709238D01*
X219908714Y-149614000D01*
X220051571Y-149566380D01*
X220146809Y-149566380D01*
X220289666Y-149614000D01*
X220337285Y-149661619D01*
X220956333Y-149566380D02*
X221146809Y-149566380D01*
X221242047Y-149614000D01*
X221337285Y-149709238D01*
X221384904Y-149899714D01*
X221384904Y-150233047D01*
X221337285Y-150423523D01*
X221242047Y-150518761D01*
X221146809Y-150566380D01*
X220956333Y-150566380D01*
X220861095Y-150518761D01*
X220765857Y-150423523D01*
X220718238Y-150233047D01*
X220718238Y-149899714D01*
X220765857Y-149709238D01*
X220861095Y-149614000D01*
X220956333Y-149566380D01*
X221813476Y-150566380D02*
X221813476Y-149566380D01*
X222146809Y-150280666D01*
X222480142Y-149566380D01*
X222480142Y-150566380D01*
X222956333Y-150566380D02*
X222956333Y-149566380D01*
X223289666Y-150280666D01*
X223623000Y-149566380D01*
X223623000Y-150566380D01*
X224051571Y-150280666D02*
X224527761Y-150280666D01*
X223956333Y-150566380D02*
X224289666Y-149566380D01*
X224623000Y-150566380D01*
G04 #@! TO.C,SW29*
X144113476Y-134770761D02*
X144256333Y-134818380D01*
X144494428Y-134818380D01*
X144589666Y-134770761D01*
X144637285Y-134723142D01*
X144684904Y-134627904D01*
X144684904Y-134532666D01*
X144637285Y-134437428D01*
X144589666Y-134389809D01*
X144494428Y-134342190D01*
X144303952Y-134294571D01*
X144208714Y-134246952D01*
X144161095Y-134199333D01*
X144113476Y-134104095D01*
X144113476Y-134008857D01*
X144161095Y-133913619D01*
X144208714Y-133866000D01*
X144303952Y-133818380D01*
X144542047Y-133818380D01*
X144684904Y-133866000D01*
X145018238Y-133818380D02*
X145256333Y-134818380D01*
X145446809Y-134104095D01*
X145637285Y-134818380D01*
X145875380Y-133818380D01*
X146208714Y-133913619D02*
X146256333Y-133866000D01*
X146351571Y-133818380D01*
X146589666Y-133818380D01*
X146684904Y-133866000D01*
X146732523Y-133913619D01*
X146780142Y-134008857D01*
X146780142Y-134104095D01*
X146732523Y-134246952D01*
X146161095Y-134818380D01*
X146780142Y-134818380D01*
X147256333Y-134818380D02*
X147446809Y-134818380D01*
X147542047Y-134770761D01*
X147589666Y-134723142D01*
X147684904Y-134580285D01*
X147732523Y-134389809D01*
X147732523Y-134008857D01*
X147684904Y-133913619D01*
X147637285Y-133866000D01*
X147542047Y-133818380D01*
X147351571Y-133818380D01*
X147256333Y-133866000D01*
X147208714Y-133913619D01*
X147161095Y-134008857D01*
X147161095Y-134246952D01*
X147208714Y-134342190D01*
X147256333Y-134389809D01*
X147351571Y-134437428D01*
X147542047Y-134437428D01*
X147637285Y-134389809D01*
X147684904Y-134342190D01*
X147732523Y-134246952D01*
X145589666Y-149566380D02*
X145923000Y-150566380D01*
X146256333Y-149566380D01*
G04 #@! TO.C,SW30*
X348075476Y-115720761D02*
X348218333Y-115768380D01*
X348456428Y-115768380D01*
X348551666Y-115720761D01*
X348599285Y-115673142D01*
X348646904Y-115577904D01*
X348646904Y-115482666D01*
X348599285Y-115387428D01*
X348551666Y-115339809D01*
X348456428Y-115292190D01*
X348265952Y-115244571D01*
X348170714Y-115196952D01*
X348123095Y-115149333D01*
X348075476Y-115054095D01*
X348075476Y-114958857D01*
X348123095Y-114863619D01*
X348170714Y-114816000D01*
X348265952Y-114768380D01*
X348504047Y-114768380D01*
X348646904Y-114816000D01*
X348980238Y-114768380D02*
X349218333Y-115768380D01*
X349408809Y-115054095D01*
X349599285Y-115768380D01*
X349837380Y-114768380D01*
X350123095Y-114768380D02*
X350742142Y-114768380D01*
X350408809Y-115149333D01*
X350551666Y-115149333D01*
X350646904Y-115196952D01*
X350694523Y-115244571D01*
X350742142Y-115339809D01*
X350742142Y-115577904D01*
X350694523Y-115673142D01*
X350646904Y-115720761D01*
X350551666Y-115768380D01*
X350265952Y-115768380D01*
X350170714Y-115720761D01*
X350123095Y-115673142D01*
X351361190Y-114768380D02*
X351456428Y-114768380D01*
X351551666Y-114816000D01*
X351599285Y-114863619D01*
X351646904Y-114958857D01*
X351694523Y-115149333D01*
X351694523Y-115387428D01*
X351646904Y-115577904D01*
X351599285Y-115673142D01*
X351551666Y-115720761D01*
X351456428Y-115768380D01*
X351361190Y-115768380D01*
X351265952Y-115720761D01*
X351218333Y-115673142D01*
X351170714Y-115577904D01*
X351123095Y-115387428D01*
X351123095Y-115149333D01*
X351170714Y-114958857D01*
X351218333Y-114863619D01*
X351265952Y-114816000D01*
X351361190Y-114768380D01*
X347408809Y-131468761D02*
X347551666Y-131516380D01*
X347789761Y-131516380D01*
X347885000Y-131468761D01*
X347932619Y-131421142D01*
X347980238Y-131325904D01*
X347980238Y-131230666D01*
X347932619Y-131135428D01*
X347885000Y-131087809D01*
X347789761Y-131040190D01*
X347599285Y-130992571D01*
X347504047Y-130944952D01*
X347456428Y-130897333D01*
X347408809Y-130802095D01*
X347408809Y-130706857D01*
X347456428Y-130611619D01*
X347504047Y-130564000D01*
X347599285Y-130516380D01*
X347837380Y-130516380D01*
X347980238Y-130564000D01*
X348408809Y-130992571D02*
X348742142Y-130992571D01*
X348885000Y-131516380D02*
X348408809Y-131516380D01*
X348408809Y-130516380D01*
X348885000Y-130516380D01*
X349789761Y-131516380D02*
X349313571Y-131516380D01*
X349313571Y-130516380D01*
X350123095Y-130992571D02*
X350456428Y-130992571D01*
X350599285Y-131516380D02*
X350123095Y-131516380D01*
X350123095Y-130516380D01*
X350599285Y-130516380D01*
X351599285Y-131421142D02*
X351551666Y-131468761D01*
X351408809Y-131516380D01*
X351313571Y-131516380D01*
X351170714Y-131468761D01*
X351075476Y-131373523D01*
X351027857Y-131278285D01*
X350980238Y-131087809D01*
X350980238Y-130944952D01*
X351027857Y-130754476D01*
X351075476Y-130659238D01*
X351170714Y-130564000D01*
X351313571Y-130516380D01*
X351408809Y-130516380D01*
X351551666Y-130564000D01*
X351599285Y-130611619D01*
X351885000Y-130516380D02*
X352456428Y-130516380D01*
X352170714Y-131516380D02*
X352170714Y-130516380D01*
G04 #@! TO.C,SW31*
X234410476Y-77620761D02*
X234553333Y-77668380D01*
X234791428Y-77668380D01*
X234886666Y-77620761D01*
X234934285Y-77573142D01*
X234981904Y-77477904D01*
X234981904Y-77382666D01*
X234934285Y-77287428D01*
X234886666Y-77239809D01*
X234791428Y-77192190D01*
X234600952Y-77144571D01*
X234505714Y-77096952D01*
X234458095Y-77049333D01*
X234410476Y-76954095D01*
X234410476Y-76858857D01*
X234458095Y-76763619D01*
X234505714Y-76716000D01*
X234600952Y-76668380D01*
X234839047Y-76668380D01*
X234981904Y-76716000D01*
X235315238Y-76668380D02*
X235553333Y-77668380D01*
X235743809Y-76954095D01*
X235934285Y-77668380D01*
X236172380Y-76668380D01*
X236458095Y-76668380D02*
X237077142Y-76668380D01*
X236743809Y-77049333D01*
X236886666Y-77049333D01*
X236981904Y-77096952D01*
X237029523Y-77144571D01*
X237077142Y-77239809D01*
X237077142Y-77477904D01*
X237029523Y-77573142D01*
X236981904Y-77620761D01*
X236886666Y-77668380D01*
X236600952Y-77668380D01*
X236505714Y-77620761D01*
X236458095Y-77573142D01*
X238029523Y-77668380D02*
X237458095Y-77668380D01*
X237743809Y-77668380D02*
X237743809Y-76668380D01*
X237648571Y-76811238D01*
X237553333Y-76906476D01*
X237458095Y-76954095D01*
X236172380Y-92416380D02*
X236267619Y-92416380D01*
X236362857Y-92464000D01*
X236410476Y-92511619D01*
X236458095Y-92606857D01*
X236505714Y-92797333D01*
X236505714Y-93035428D01*
X236458095Y-93225904D01*
X236410476Y-93321142D01*
X236362857Y-93368761D01*
X236267619Y-93416380D01*
X236172380Y-93416380D01*
X236077142Y-93368761D01*
X236029523Y-93321142D01*
X235981904Y-93225904D01*
X235934285Y-93035428D01*
X235934285Y-92797333D01*
X235981904Y-92606857D01*
X236029523Y-92511619D01*
X236077142Y-92464000D01*
X236172380Y-92416380D01*
G04 #@! TO.C,SW32*
X101060476Y-77620761D02*
X101203333Y-77668380D01*
X101441428Y-77668380D01*
X101536666Y-77620761D01*
X101584285Y-77573142D01*
X101631904Y-77477904D01*
X101631904Y-77382666D01*
X101584285Y-77287428D01*
X101536666Y-77239809D01*
X101441428Y-77192190D01*
X101250952Y-77144571D01*
X101155714Y-77096952D01*
X101108095Y-77049333D01*
X101060476Y-76954095D01*
X101060476Y-76858857D01*
X101108095Y-76763619D01*
X101155714Y-76716000D01*
X101250952Y-76668380D01*
X101489047Y-76668380D01*
X101631904Y-76716000D01*
X101965238Y-76668380D02*
X102203333Y-77668380D01*
X102393809Y-76954095D01*
X102584285Y-77668380D01*
X102822380Y-76668380D01*
X103108095Y-76668380D02*
X103727142Y-76668380D01*
X103393809Y-77049333D01*
X103536666Y-77049333D01*
X103631904Y-77096952D01*
X103679523Y-77144571D01*
X103727142Y-77239809D01*
X103727142Y-77477904D01*
X103679523Y-77573142D01*
X103631904Y-77620761D01*
X103536666Y-77668380D01*
X103250952Y-77668380D01*
X103155714Y-77620761D01*
X103108095Y-77573142D01*
X104108095Y-76763619D02*
X104155714Y-76716000D01*
X104250952Y-76668380D01*
X104489047Y-76668380D01*
X104584285Y-76716000D01*
X104631904Y-76763619D01*
X104679523Y-76858857D01*
X104679523Y-76954095D01*
X104631904Y-77096952D01*
X104060476Y-77668380D01*
X104679523Y-77668380D01*
X102536666Y-92416380D02*
X103155714Y-92416380D01*
X102822380Y-92797333D01*
X102965238Y-92797333D01*
X103060476Y-92844952D01*
X103108095Y-92892571D01*
X103155714Y-92987809D01*
X103155714Y-93225904D01*
X103108095Y-93321142D01*
X103060476Y-93368761D01*
X102965238Y-93416380D01*
X102679523Y-93416380D01*
X102584285Y-93368761D01*
X102536666Y-93321142D01*
G04 #@! TO.C,SW33*
X243935476Y-96670761D02*
X244078333Y-96718380D01*
X244316428Y-96718380D01*
X244411666Y-96670761D01*
X244459285Y-96623142D01*
X244506904Y-96527904D01*
X244506904Y-96432666D01*
X244459285Y-96337428D01*
X244411666Y-96289809D01*
X244316428Y-96242190D01*
X244125952Y-96194571D01*
X244030714Y-96146952D01*
X243983095Y-96099333D01*
X243935476Y-96004095D01*
X243935476Y-95908857D01*
X243983095Y-95813619D01*
X244030714Y-95766000D01*
X244125952Y-95718380D01*
X244364047Y-95718380D01*
X244506904Y-95766000D01*
X244840238Y-95718380D02*
X245078333Y-96718380D01*
X245268809Y-96004095D01*
X245459285Y-96718380D01*
X245697380Y-95718380D01*
X245983095Y-95718380D02*
X246602142Y-95718380D01*
X246268809Y-96099333D01*
X246411666Y-96099333D01*
X246506904Y-96146952D01*
X246554523Y-96194571D01*
X246602142Y-96289809D01*
X246602142Y-96527904D01*
X246554523Y-96623142D01*
X246506904Y-96670761D01*
X246411666Y-96718380D01*
X246125952Y-96718380D01*
X246030714Y-96670761D01*
X245983095Y-96623142D01*
X246935476Y-95718380D02*
X247554523Y-95718380D01*
X247221190Y-96099333D01*
X247364047Y-96099333D01*
X247459285Y-96146952D01*
X247506904Y-96194571D01*
X247554523Y-96289809D01*
X247554523Y-96527904D01*
X247506904Y-96623142D01*
X247459285Y-96670761D01*
X247364047Y-96718380D01*
X247078333Y-96718380D01*
X246983095Y-96670761D01*
X246935476Y-96623142D01*
X245483095Y-112466380D02*
X245483095Y-111466380D01*
X245864047Y-111466380D01*
X245959285Y-111514000D01*
X246006904Y-111561619D01*
X246054523Y-111656857D01*
X246054523Y-111799714D01*
X246006904Y-111894952D01*
X245959285Y-111942571D01*
X245864047Y-111990190D01*
X245483095Y-111990190D01*
G04 #@! TO.C,SW34*
X110585476Y-96670761D02*
X110728333Y-96718380D01*
X110966428Y-96718380D01*
X111061666Y-96670761D01*
X111109285Y-96623142D01*
X111156904Y-96527904D01*
X111156904Y-96432666D01*
X111109285Y-96337428D01*
X111061666Y-96289809D01*
X110966428Y-96242190D01*
X110775952Y-96194571D01*
X110680714Y-96146952D01*
X110633095Y-96099333D01*
X110585476Y-96004095D01*
X110585476Y-95908857D01*
X110633095Y-95813619D01*
X110680714Y-95766000D01*
X110775952Y-95718380D01*
X111014047Y-95718380D01*
X111156904Y-95766000D01*
X111490238Y-95718380D02*
X111728333Y-96718380D01*
X111918809Y-96004095D01*
X112109285Y-96718380D01*
X112347380Y-95718380D01*
X112633095Y-95718380D02*
X113252142Y-95718380D01*
X112918809Y-96099333D01*
X113061666Y-96099333D01*
X113156904Y-96146952D01*
X113204523Y-96194571D01*
X113252142Y-96289809D01*
X113252142Y-96527904D01*
X113204523Y-96623142D01*
X113156904Y-96670761D01*
X113061666Y-96718380D01*
X112775952Y-96718380D01*
X112680714Y-96670761D01*
X112633095Y-96623142D01*
X114109285Y-96051714D02*
X114109285Y-96718380D01*
X113871190Y-95670761D02*
X113633095Y-96385047D01*
X114252142Y-96385047D01*
X112180714Y-111942571D02*
X112514047Y-111942571D01*
X112656904Y-112466380D02*
X112180714Y-112466380D01*
X112180714Y-111466380D01*
X112656904Y-111466380D01*
G04 #@! TO.C,SW35*
X248634476Y-115720761D02*
X248777333Y-115768380D01*
X249015428Y-115768380D01*
X249110666Y-115720761D01*
X249158285Y-115673142D01*
X249205904Y-115577904D01*
X249205904Y-115482666D01*
X249158285Y-115387428D01*
X249110666Y-115339809D01*
X249015428Y-115292190D01*
X248824952Y-115244571D01*
X248729714Y-115196952D01*
X248682095Y-115149333D01*
X248634476Y-115054095D01*
X248634476Y-114958857D01*
X248682095Y-114863619D01*
X248729714Y-114816000D01*
X248824952Y-114768380D01*
X249063047Y-114768380D01*
X249205904Y-114816000D01*
X249539238Y-114768380D02*
X249777333Y-115768380D01*
X249967809Y-115054095D01*
X250158285Y-115768380D01*
X250396380Y-114768380D01*
X250682095Y-114768380D02*
X251301142Y-114768380D01*
X250967809Y-115149333D01*
X251110666Y-115149333D01*
X251205904Y-115196952D01*
X251253523Y-115244571D01*
X251301142Y-115339809D01*
X251301142Y-115577904D01*
X251253523Y-115673142D01*
X251205904Y-115720761D01*
X251110666Y-115768380D01*
X250824952Y-115768380D01*
X250729714Y-115720761D01*
X250682095Y-115673142D01*
X252205904Y-114768380D02*
X251729714Y-114768380D01*
X251682095Y-115244571D01*
X251729714Y-115196952D01*
X251824952Y-115149333D01*
X252063047Y-115149333D01*
X252158285Y-115196952D01*
X252205904Y-115244571D01*
X252253523Y-115339809D01*
X252253523Y-115577904D01*
X252205904Y-115673142D01*
X252158285Y-115720761D01*
X252063047Y-115768380D01*
X251824952Y-115768380D01*
X251729714Y-115720761D01*
X251682095Y-115673142D01*
X246420190Y-131468761D02*
X246563047Y-131516380D01*
X246801142Y-131516380D01*
X246896380Y-131468761D01*
X246944000Y-131421142D01*
X246991619Y-131325904D01*
X246991619Y-131230666D01*
X246944000Y-131135428D01*
X246896380Y-131087809D01*
X246801142Y-131040190D01*
X246610666Y-130992571D01*
X246515428Y-130944952D01*
X246467809Y-130897333D01*
X246420190Y-130802095D01*
X246420190Y-130706857D01*
X246467809Y-130611619D01*
X246515428Y-130564000D01*
X246610666Y-130516380D01*
X246848761Y-130516380D01*
X246991619Y-130564000D01*
X247420190Y-130992571D02*
X247753523Y-130992571D01*
X247896380Y-131516380D02*
X247420190Y-131516380D01*
X247420190Y-130516380D01*
X247896380Y-130516380D01*
X248324952Y-131516380D02*
X248324952Y-130516380D01*
X248658285Y-131230666D01*
X248991619Y-130516380D01*
X248991619Y-131516380D01*
X249467809Y-131516380D02*
X249467809Y-130516380D01*
X250515428Y-131421142D02*
X250467809Y-131468761D01*
X250324952Y-131516380D01*
X250229714Y-131516380D01*
X250086857Y-131468761D01*
X249991619Y-131373523D01*
X249944000Y-131278285D01*
X249896380Y-131087809D01*
X249896380Y-130944952D01*
X249944000Y-130754476D01*
X249991619Y-130659238D01*
X250086857Y-130564000D01*
X250229714Y-130516380D01*
X250324952Y-130516380D01*
X250467809Y-130564000D01*
X250515428Y-130611619D01*
X251134476Y-130516380D02*
X251324952Y-130516380D01*
X251420190Y-130564000D01*
X251515428Y-130659238D01*
X251563047Y-130849714D01*
X251563047Y-131183047D01*
X251515428Y-131373523D01*
X251420190Y-131468761D01*
X251324952Y-131516380D01*
X251134476Y-131516380D01*
X251039238Y-131468761D01*
X250944000Y-131373523D01*
X250896380Y-131183047D01*
X250896380Y-130849714D01*
X250944000Y-130659238D01*
X251039238Y-130564000D01*
X251134476Y-130516380D01*
X252467809Y-131516380D02*
X251991619Y-131516380D01*
X251991619Y-130516380D01*
X252991619Y-130516380D02*
X253182095Y-130516380D01*
X253277333Y-130564000D01*
X253372571Y-130659238D01*
X253420190Y-130849714D01*
X253420190Y-131183047D01*
X253372571Y-131373523D01*
X253277333Y-131468761D01*
X253182095Y-131516380D01*
X252991619Y-131516380D01*
X252896380Y-131468761D01*
X252801142Y-131373523D01*
X252753523Y-131183047D01*
X252753523Y-130849714D01*
X252801142Y-130659238D01*
X252896380Y-130564000D01*
X252991619Y-130516380D01*
X253848761Y-131516380D02*
X253848761Y-130516380D01*
X254420190Y-131516380D01*
X254420190Y-130516380D01*
G04 #@! TO.C,SW36*
X115284476Y-115720761D02*
X115427333Y-115768380D01*
X115665428Y-115768380D01*
X115760666Y-115720761D01*
X115808285Y-115673142D01*
X115855904Y-115577904D01*
X115855904Y-115482666D01*
X115808285Y-115387428D01*
X115760666Y-115339809D01*
X115665428Y-115292190D01*
X115474952Y-115244571D01*
X115379714Y-115196952D01*
X115332095Y-115149333D01*
X115284476Y-115054095D01*
X115284476Y-114958857D01*
X115332095Y-114863619D01*
X115379714Y-114816000D01*
X115474952Y-114768380D01*
X115713047Y-114768380D01*
X115855904Y-114816000D01*
X116189238Y-114768380D02*
X116427333Y-115768380D01*
X116617809Y-115054095D01*
X116808285Y-115768380D01*
X117046380Y-114768380D01*
X117332095Y-114768380D02*
X117951142Y-114768380D01*
X117617809Y-115149333D01*
X117760666Y-115149333D01*
X117855904Y-115196952D01*
X117903523Y-115244571D01*
X117951142Y-115339809D01*
X117951142Y-115577904D01*
X117903523Y-115673142D01*
X117855904Y-115720761D01*
X117760666Y-115768380D01*
X117474952Y-115768380D01*
X117379714Y-115720761D01*
X117332095Y-115673142D01*
X118808285Y-114768380D02*
X118617809Y-114768380D01*
X118522571Y-114816000D01*
X118474952Y-114863619D01*
X118379714Y-115006476D01*
X118332095Y-115196952D01*
X118332095Y-115577904D01*
X118379714Y-115673142D01*
X118427333Y-115720761D01*
X118522571Y-115768380D01*
X118713047Y-115768380D01*
X118808285Y-115720761D01*
X118855904Y-115673142D01*
X118903523Y-115577904D01*
X118903523Y-115339809D01*
X118855904Y-115244571D01*
X118808285Y-115196952D01*
X118713047Y-115149333D01*
X118522571Y-115149333D01*
X118427333Y-115196952D01*
X118379714Y-115244571D01*
X118332095Y-115339809D01*
X116832095Y-131516380D02*
X116832095Y-130516380D01*
X117070190Y-130516380D01*
X117213047Y-130564000D01*
X117308285Y-130659238D01*
X117355904Y-130754476D01*
X117403523Y-130944952D01*
X117403523Y-131087809D01*
X117355904Y-131278285D01*
X117308285Y-131373523D01*
X117213047Y-131468761D01*
X117070190Y-131516380D01*
X116832095Y-131516380D01*
G04 #@! TO.C,SW37*
X239363476Y-134770761D02*
X239506333Y-134818380D01*
X239744428Y-134818380D01*
X239839666Y-134770761D01*
X239887285Y-134723142D01*
X239934904Y-134627904D01*
X239934904Y-134532666D01*
X239887285Y-134437428D01*
X239839666Y-134389809D01*
X239744428Y-134342190D01*
X239553952Y-134294571D01*
X239458714Y-134246952D01*
X239411095Y-134199333D01*
X239363476Y-134104095D01*
X239363476Y-134008857D01*
X239411095Y-133913619D01*
X239458714Y-133866000D01*
X239553952Y-133818380D01*
X239792047Y-133818380D01*
X239934904Y-133866000D01*
X240268238Y-133818380D02*
X240506333Y-134818380D01*
X240696809Y-134104095D01*
X240887285Y-134818380D01*
X241125380Y-133818380D01*
X241411095Y-133818380D02*
X242030142Y-133818380D01*
X241696809Y-134199333D01*
X241839666Y-134199333D01*
X241934904Y-134246952D01*
X241982523Y-134294571D01*
X242030142Y-134389809D01*
X242030142Y-134627904D01*
X241982523Y-134723142D01*
X241934904Y-134770761D01*
X241839666Y-134818380D01*
X241553952Y-134818380D01*
X241458714Y-134770761D01*
X241411095Y-134723142D01*
X242363476Y-133818380D02*
X243030142Y-133818380D01*
X242601571Y-134818380D01*
X238696809Y-150566380D02*
X238696809Y-149566380D01*
X239077761Y-149566380D01*
X239173000Y-149614000D01*
X239220619Y-149661619D01*
X239268238Y-149756857D01*
X239268238Y-149899714D01*
X239220619Y-149994952D01*
X239173000Y-150042571D01*
X239077761Y-150090190D01*
X238696809Y-150090190D01*
X239696809Y-150042571D02*
X240030142Y-150042571D01*
X240173000Y-150566380D02*
X239696809Y-150566380D01*
X239696809Y-149566380D01*
X240173000Y-149566380D01*
X241173000Y-150566380D02*
X240839666Y-150090190D01*
X240601571Y-150566380D02*
X240601571Y-149566380D01*
X240982523Y-149566380D01*
X241077761Y-149614000D01*
X241125380Y-149661619D01*
X241173000Y-149756857D01*
X241173000Y-149899714D01*
X241125380Y-149994952D01*
X241077761Y-150042571D01*
X240982523Y-150090190D01*
X240601571Y-150090190D01*
X241601571Y-150566380D02*
X241601571Y-149566380D01*
X242268238Y-149566380D02*
X242458714Y-149566380D01*
X242553952Y-149614000D01*
X242649190Y-149709238D01*
X242696809Y-149899714D01*
X242696809Y-150233047D01*
X242649190Y-150423523D01*
X242553952Y-150518761D01*
X242458714Y-150566380D01*
X242268238Y-150566380D01*
X242173000Y-150518761D01*
X242077761Y-150423523D01*
X242030142Y-150233047D01*
X242030142Y-149899714D01*
X242077761Y-149709238D01*
X242173000Y-149614000D01*
X242268238Y-149566380D01*
X243125380Y-150566380D02*
X243125380Y-149566380D01*
X243363476Y-149566380D01*
X243506333Y-149614000D01*
X243601571Y-149709238D01*
X243649190Y-149804476D01*
X243696809Y-149994952D01*
X243696809Y-150137809D01*
X243649190Y-150328285D01*
X243601571Y-150423523D01*
X243506333Y-150518761D01*
X243363476Y-150566380D01*
X243125380Y-150566380D01*
G04 #@! TO.C,SW38*
X125063476Y-134770761D02*
X125206333Y-134818380D01*
X125444428Y-134818380D01*
X125539666Y-134770761D01*
X125587285Y-134723142D01*
X125634904Y-134627904D01*
X125634904Y-134532666D01*
X125587285Y-134437428D01*
X125539666Y-134389809D01*
X125444428Y-134342190D01*
X125253952Y-134294571D01*
X125158714Y-134246952D01*
X125111095Y-134199333D01*
X125063476Y-134104095D01*
X125063476Y-134008857D01*
X125111095Y-133913619D01*
X125158714Y-133866000D01*
X125253952Y-133818380D01*
X125492047Y-133818380D01*
X125634904Y-133866000D01*
X125968238Y-133818380D02*
X126206333Y-134818380D01*
X126396809Y-134104095D01*
X126587285Y-134818380D01*
X126825380Y-133818380D01*
X127111095Y-133818380D02*
X127730142Y-133818380D01*
X127396809Y-134199333D01*
X127539666Y-134199333D01*
X127634904Y-134246952D01*
X127682523Y-134294571D01*
X127730142Y-134389809D01*
X127730142Y-134627904D01*
X127682523Y-134723142D01*
X127634904Y-134770761D01*
X127539666Y-134818380D01*
X127253952Y-134818380D01*
X127158714Y-134770761D01*
X127111095Y-134723142D01*
X128301571Y-134246952D02*
X128206333Y-134199333D01*
X128158714Y-134151714D01*
X128111095Y-134056476D01*
X128111095Y-134008857D01*
X128158714Y-133913619D01*
X128206333Y-133866000D01*
X128301571Y-133818380D01*
X128492047Y-133818380D01*
X128587285Y-133866000D01*
X128634904Y-133913619D01*
X128682523Y-134008857D01*
X128682523Y-134056476D01*
X128634904Y-134151714D01*
X128587285Y-134199333D01*
X128492047Y-134246952D01*
X128301571Y-134246952D01*
X128206333Y-134294571D01*
X128158714Y-134342190D01*
X128111095Y-134437428D01*
X128111095Y-134627904D01*
X128158714Y-134723142D01*
X128206333Y-134770761D01*
X128301571Y-134818380D01*
X128492047Y-134818380D01*
X128587285Y-134770761D01*
X128634904Y-134723142D01*
X128682523Y-134627904D01*
X128682523Y-134437428D01*
X128634904Y-134342190D01*
X128587285Y-134294571D01*
X128492047Y-134246952D01*
X127182523Y-150471142D02*
X127134904Y-150518761D01*
X126992047Y-150566380D01*
X126896809Y-150566380D01*
X126753952Y-150518761D01*
X126658714Y-150423523D01*
X126611095Y-150328285D01*
X126563476Y-150137809D01*
X126563476Y-149994952D01*
X126611095Y-149804476D01*
X126658714Y-149709238D01*
X126753952Y-149614000D01*
X126896809Y-149566380D01*
X126992047Y-149566380D01*
X127134904Y-149614000D01*
X127182523Y-149661619D01*
G04 #@! TO.C,SW39*
X348075476Y-96670761D02*
X348218333Y-96718380D01*
X348456428Y-96718380D01*
X348551666Y-96670761D01*
X348599285Y-96623142D01*
X348646904Y-96527904D01*
X348646904Y-96432666D01*
X348599285Y-96337428D01*
X348551666Y-96289809D01*
X348456428Y-96242190D01*
X348265952Y-96194571D01*
X348170714Y-96146952D01*
X348123095Y-96099333D01*
X348075476Y-96004095D01*
X348075476Y-95908857D01*
X348123095Y-95813619D01*
X348170714Y-95766000D01*
X348265952Y-95718380D01*
X348504047Y-95718380D01*
X348646904Y-95766000D01*
X348980238Y-95718380D02*
X349218333Y-96718380D01*
X349408809Y-96004095D01*
X349599285Y-96718380D01*
X349837380Y-95718380D01*
X350123095Y-95718380D02*
X350742142Y-95718380D01*
X350408809Y-96099333D01*
X350551666Y-96099333D01*
X350646904Y-96146952D01*
X350694523Y-96194571D01*
X350742142Y-96289809D01*
X350742142Y-96527904D01*
X350694523Y-96623142D01*
X350646904Y-96670761D01*
X350551666Y-96718380D01*
X350265952Y-96718380D01*
X350170714Y-96670761D01*
X350123095Y-96623142D01*
X351218333Y-96718380D02*
X351408809Y-96718380D01*
X351504047Y-96670761D01*
X351551666Y-96623142D01*
X351646904Y-96480285D01*
X351694523Y-96289809D01*
X351694523Y-95908857D01*
X351646904Y-95813619D01*
X351599285Y-95766000D01*
X351504047Y-95718380D01*
X351313571Y-95718380D01*
X351218333Y-95766000D01*
X351170714Y-95813619D01*
X351123095Y-95908857D01*
X351123095Y-96146952D01*
X351170714Y-96242190D01*
X351218333Y-96289809D01*
X351313571Y-96337428D01*
X351504047Y-96337428D01*
X351599285Y-96289809D01*
X351646904Y-96242190D01*
X351694523Y-96146952D01*
X347623095Y-111466380D02*
X347813571Y-111466380D01*
X347908809Y-111514000D01*
X348004047Y-111609238D01*
X348051666Y-111799714D01*
X348051666Y-112133047D01*
X348004047Y-112323523D01*
X347908809Y-112418761D01*
X347813571Y-112466380D01*
X347623095Y-112466380D01*
X347527857Y-112418761D01*
X347432619Y-112323523D01*
X347385000Y-112133047D01*
X347385000Y-111799714D01*
X347432619Y-111609238D01*
X347527857Y-111514000D01*
X347623095Y-111466380D01*
X348480238Y-112466380D02*
X348480238Y-111466380D01*
X348861190Y-111466380D01*
X348956428Y-111514000D01*
X349004047Y-111561619D01*
X349051666Y-111656857D01*
X349051666Y-111799714D01*
X349004047Y-111894952D01*
X348956428Y-111942571D01*
X348861190Y-111990190D01*
X348480238Y-111990190D01*
X349337380Y-111466380D02*
X349908809Y-111466380D01*
X349623095Y-112466380D02*
X349623095Y-111466380D01*
X350242142Y-112466380D02*
X350242142Y-111466380D01*
X350908809Y-111466380D02*
X351099285Y-111466380D01*
X351194523Y-111514000D01*
X351289761Y-111609238D01*
X351337380Y-111799714D01*
X351337380Y-112133047D01*
X351289761Y-112323523D01*
X351194523Y-112418761D01*
X351099285Y-112466380D01*
X350908809Y-112466380D01*
X350813571Y-112418761D01*
X350718333Y-112323523D01*
X350670714Y-112133047D01*
X350670714Y-111799714D01*
X350718333Y-111609238D01*
X350813571Y-111514000D01*
X350908809Y-111466380D01*
X351765952Y-112466380D02*
X351765952Y-111466380D01*
X352337380Y-112466380D01*
X352337380Y-111466380D01*
G04 #@! TO.C,SW40*
X253460476Y-77620761D02*
X253603333Y-77668380D01*
X253841428Y-77668380D01*
X253936666Y-77620761D01*
X253984285Y-77573142D01*
X254031904Y-77477904D01*
X254031904Y-77382666D01*
X253984285Y-77287428D01*
X253936666Y-77239809D01*
X253841428Y-77192190D01*
X253650952Y-77144571D01*
X253555714Y-77096952D01*
X253508095Y-77049333D01*
X253460476Y-76954095D01*
X253460476Y-76858857D01*
X253508095Y-76763619D01*
X253555714Y-76716000D01*
X253650952Y-76668380D01*
X253889047Y-76668380D01*
X254031904Y-76716000D01*
X254365238Y-76668380D02*
X254603333Y-77668380D01*
X254793809Y-76954095D01*
X254984285Y-77668380D01*
X255222380Y-76668380D01*
X256031904Y-77001714D02*
X256031904Y-77668380D01*
X255793809Y-76620761D02*
X255555714Y-77335047D01*
X256174761Y-77335047D01*
X256746190Y-76668380D02*
X256841428Y-76668380D01*
X256936666Y-76716000D01*
X256984285Y-76763619D01*
X257031904Y-76858857D01*
X257079523Y-77049333D01*
X257079523Y-77287428D01*
X257031904Y-77477904D01*
X256984285Y-77573142D01*
X256936666Y-77620761D01*
X256841428Y-77668380D01*
X256746190Y-77668380D01*
X256650952Y-77620761D01*
X256603333Y-77573142D01*
X256555714Y-77477904D01*
X256508095Y-77287428D01*
X256508095Y-77049333D01*
X256555714Y-76858857D01*
X256603333Y-76763619D01*
X256650952Y-76716000D01*
X256746190Y-76668380D01*
X255650952Y-92749714D02*
X254889047Y-93035428D01*
X255650952Y-93321142D01*
G04 #@! TO.C,SW41*
X82010476Y-77620761D02*
X82153333Y-77668380D01*
X82391428Y-77668380D01*
X82486666Y-77620761D01*
X82534285Y-77573142D01*
X82581904Y-77477904D01*
X82581904Y-77382666D01*
X82534285Y-77287428D01*
X82486666Y-77239809D01*
X82391428Y-77192190D01*
X82200952Y-77144571D01*
X82105714Y-77096952D01*
X82058095Y-77049333D01*
X82010476Y-76954095D01*
X82010476Y-76858857D01*
X82058095Y-76763619D01*
X82105714Y-76716000D01*
X82200952Y-76668380D01*
X82439047Y-76668380D01*
X82581904Y-76716000D01*
X82915238Y-76668380D02*
X83153333Y-77668380D01*
X83343809Y-76954095D01*
X83534285Y-77668380D01*
X83772380Y-76668380D01*
X84581904Y-77001714D02*
X84581904Y-77668380D01*
X84343809Y-76620761D02*
X84105714Y-77335047D01*
X84724761Y-77335047D01*
X85629523Y-77668380D02*
X85058095Y-77668380D01*
X85343809Y-77668380D02*
X85343809Y-76668380D01*
X85248571Y-76811238D01*
X85153333Y-76906476D01*
X85058095Y-76954095D01*
X83534285Y-92511619D02*
X83581904Y-92464000D01*
X83677142Y-92416380D01*
X83915238Y-92416380D01*
X84010476Y-92464000D01*
X84058095Y-92511619D01*
X84105714Y-92606857D01*
X84105714Y-92702095D01*
X84058095Y-92844952D01*
X83486666Y-93416380D01*
X84105714Y-93416380D01*
G04 #@! TO.C,SW42*
X262985476Y-96670761D02*
X263128333Y-96718380D01*
X263366428Y-96718380D01*
X263461666Y-96670761D01*
X263509285Y-96623142D01*
X263556904Y-96527904D01*
X263556904Y-96432666D01*
X263509285Y-96337428D01*
X263461666Y-96289809D01*
X263366428Y-96242190D01*
X263175952Y-96194571D01*
X263080714Y-96146952D01*
X263033095Y-96099333D01*
X262985476Y-96004095D01*
X262985476Y-95908857D01*
X263033095Y-95813619D01*
X263080714Y-95766000D01*
X263175952Y-95718380D01*
X263414047Y-95718380D01*
X263556904Y-95766000D01*
X263890238Y-95718380D02*
X264128333Y-96718380D01*
X264318809Y-96004095D01*
X264509285Y-96718380D01*
X264747380Y-95718380D01*
X265556904Y-96051714D02*
X265556904Y-96718380D01*
X265318809Y-95670761D02*
X265080714Y-96385047D01*
X265699761Y-96385047D01*
X266033095Y-95813619D02*
X266080714Y-95766000D01*
X266175952Y-95718380D01*
X266414047Y-95718380D01*
X266509285Y-95766000D01*
X266556904Y-95813619D01*
X266604523Y-95908857D01*
X266604523Y-96004095D01*
X266556904Y-96146952D01*
X265985476Y-96718380D01*
X266604523Y-96718380D01*
X262699761Y-112466380D02*
X262699761Y-111466380D01*
X263033095Y-112180666D01*
X263366428Y-111466380D01*
X263366428Y-112466380D01*
X263842619Y-112466380D02*
X263842619Y-111466380D01*
X264318809Y-112466380D02*
X264318809Y-111466380D01*
X264890238Y-112466380D01*
X264890238Y-111466380D01*
X265366428Y-111466380D02*
X265366428Y-112275904D01*
X265414047Y-112371142D01*
X265461666Y-112418761D01*
X265556904Y-112466380D01*
X265747380Y-112466380D01*
X265842619Y-112418761D01*
X265890238Y-112371142D01*
X265937857Y-112275904D01*
X265937857Y-111466380D01*
X266366428Y-112418761D02*
X266509285Y-112466380D01*
X266747380Y-112466380D01*
X266842619Y-112418761D01*
X266890238Y-112371142D01*
X266937857Y-112275904D01*
X266937857Y-112180666D01*
X266890238Y-112085428D01*
X266842619Y-112037809D01*
X266747380Y-111990190D01*
X266556904Y-111942571D01*
X266461666Y-111894952D01*
X266414047Y-111847333D01*
X266366428Y-111752095D01*
X266366428Y-111656857D01*
X266414047Y-111561619D01*
X266461666Y-111514000D01*
X266556904Y-111466380D01*
X266795000Y-111466380D01*
X266937857Y-111514000D01*
G04 #@! TO.C,SW43*
X91535476Y-96670761D02*
X91678333Y-96718380D01*
X91916428Y-96718380D01*
X92011666Y-96670761D01*
X92059285Y-96623142D01*
X92106904Y-96527904D01*
X92106904Y-96432666D01*
X92059285Y-96337428D01*
X92011666Y-96289809D01*
X91916428Y-96242190D01*
X91725952Y-96194571D01*
X91630714Y-96146952D01*
X91583095Y-96099333D01*
X91535476Y-96004095D01*
X91535476Y-95908857D01*
X91583095Y-95813619D01*
X91630714Y-95766000D01*
X91725952Y-95718380D01*
X91964047Y-95718380D01*
X92106904Y-95766000D01*
X92440238Y-95718380D02*
X92678333Y-96718380D01*
X92868809Y-96004095D01*
X93059285Y-96718380D01*
X93297380Y-95718380D01*
X94106904Y-96051714D02*
X94106904Y-96718380D01*
X93868809Y-95670761D02*
X93630714Y-96385047D01*
X94249761Y-96385047D01*
X94535476Y-95718380D02*
X95154523Y-95718380D01*
X94821190Y-96099333D01*
X94964047Y-96099333D01*
X95059285Y-96146952D01*
X95106904Y-96194571D01*
X95154523Y-96289809D01*
X95154523Y-96527904D01*
X95106904Y-96623142D01*
X95059285Y-96670761D01*
X94964047Y-96718380D01*
X94678333Y-96718380D01*
X94583095Y-96670761D01*
X94535476Y-96623142D01*
X92916428Y-111466380D02*
X93154523Y-112466380D01*
X93345000Y-111752095D01*
X93535476Y-112466380D01*
X93773571Y-111466380D01*
G04 #@! TO.C,SW44*
X267684476Y-115720761D02*
X267827333Y-115768380D01*
X268065428Y-115768380D01*
X268160666Y-115720761D01*
X268208285Y-115673142D01*
X268255904Y-115577904D01*
X268255904Y-115482666D01*
X268208285Y-115387428D01*
X268160666Y-115339809D01*
X268065428Y-115292190D01*
X267874952Y-115244571D01*
X267779714Y-115196952D01*
X267732095Y-115149333D01*
X267684476Y-115054095D01*
X267684476Y-114958857D01*
X267732095Y-114863619D01*
X267779714Y-114816000D01*
X267874952Y-114768380D01*
X268113047Y-114768380D01*
X268255904Y-114816000D01*
X268589238Y-114768380D02*
X268827333Y-115768380D01*
X269017809Y-115054095D01*
X269208285Y-115768380D01*
X269446380Y-114768380D01*
X270255904Y-115101714D02*
X270255904Y-115768380D01*
X270017809Y-114720761D02*
X269779714Y-115435047D01*
X270398761Y-115435047D01*
X271208285Y-115101714D02*
X271208285Y-115768380D01*
X270970190Y-114720761D02*
X270732095Y-115435047D01*
X271351142Y-115435047D01*
X267827333Y-131516380D02*
X267827333Y-130516380D01*
X268208285Y-130516380D01*
X268303523Y-130564000D01*
X268351142Y-130611619D01*
X268398761Y-130706857D01*
X268398761Y-130849714D01*
X268351142Y-130944952D01*
X268303523Y-130992571D01*
X268208285Y-131040190D01*
X267827333Y-131040190D01*
X269303523Y-131516380D02*
X268827333Y-131516380D01*
X268827333Y-130516380D01*
X269636857Y-130516380D02*
X269636857Y-131325904D01*
X269684476Y-131421142D01*
X269732095Y-131468761D01*
X269827333Y-131516380D01*
X270017809Y-131516380D01*
X270113047Y-131468761D01*
X270160666Y-131421142D01*
X270208285Y-131325904D01*
X270208285Y-130516380D01*
X270636857Y-131468761D02*
X270779714Y-131516380D01*
X271017809Y-131516380D01*
X271113047Y-131468761D01*
X271160666Y-131421142D01*
X271208285Y-131325904D01*
X271208285Y-131230666D01*
X271160666Y-131135428D01*
X271113047Y-131087809D01*
X271017809Y-131040190D01*
X270827333Y-130992571D01*
X270732095Y-130944952D01*
X270684476Y-130897333D01*
X270636857Y-130802095D01*
X270636857Y-130706857D01*
X270684476Y-130611619D01*
X270732095Y-130564000D01*
X270827333Y-130516380D01*
X271065428Y-130516380D01*
X271208285Y-130564000D01*
G04 #@! TO.C,SW45*
X96234476Y-115720761D02*
X96377333Y-115768380D01*
X96615428Y-115768380D01*
X96710666Y-115720761D01*
X96758285Y-115673142D01*
X96805904Y-115577904D01*
X96805904Y-115482666D01*
X96758285Y-115387428D01*
X96710666Y-115339809D01*
X96615428Y-115292190D01*
X96424952Y-115244571D01*
X96329714Y-115196952D01*
X96282095Y-115149333D01*
X96234476Y-115054095D01*
X96234476Y-114958857D01*
X96282095Y-114863619D01*
X96329714Y-114816000D01*
X96424952Y-114768380D01*
X96663047Y-114768380D01*
X96805904Y-114816000D01*
X97139238Y-114768380D02*
X97377333Y-115768380D01*
X97567809Y-115054095D01*
X97758285Y-115768380D01*
X97996380Y-114768380D01*
X98805904Y-115101714D02*
X98805904Y-115768380D01*
X98567809Y-114720761D02*
X98329714Y-115435047D01*
X98948761Y-115435047D01*
X99805904Y-114768380D02*
X99329714Y-114768380D01*
X99282095Y-115244571D01*
X99329714Y-115196952D01*
X99424952Y-115149333D01*
X99663047Y-115149333D01*
X99758285Y-115196952D01*
X99805904Y-115244571D01*
X99853523Y-115339809D01*
X99853523Y-115577904D01*
X99805904Y-115673142D01*
X99758285Y-115720761D01*
X99663047Y-115768380D01*
X99424952Y-115768380D01*
X99329714Y-115720761D01*
X99282095Y-115673142D01*
X97758285Y-131468761D02*
X97901142Y-131516380D01*
X98139238Y-131516380D01*
X98234476Y-131468761D01*
X98282095Y-131421142D01*
X98329714Y-131325904D01*
X98329714Y-131230666D01*
X98282095Y-131135428D01*
X98234476Y-131087809D01*
X98139238Y-131040190D01*
X97948761Y-130992571D01*
X97853523Y-130944952D01*
X97805904Y-130897333D01*
X97758285Y-130802095D01*
X97758285Y-130706857D01*
X97805904Y-130611619D01*
X97853523Y-130564000D01*
X97948761Y-130516380D01*
X98186857Y-130516380D01*
X98329714Y-130564000D01*
G04 #@! TO.C,SW46*
X258413476Y-134770761D02*
X258556333Y-134818380D01*
X258794428Y-134818380D01*
X258889666Y-134770761D01*
X258937285Y-134723142D01*
X258984904Y-134627904D01*
X258984904Y-134532666D01*
X258937285Y-134437428D01*
X258889666Y-134389809D01*
X258794428Y-134342190D01*
X258603952Y-134294571D01*
X258508714Y-134246952D01*
X258461095Y-134199333D01*
X258413476Y-134104095D01*
X258413476Y-134008857D01*
X258461095Y-133913619D01*
X258508714Y-133866000D01*
X258603952Y-133818380D01*
X258842047Y-133818380D01*
X258984904Y-133866000D01*
X259318238Y-133818380D02*
X259556333Y-134818380D01*
X259746809Y-134104095D01*
X259937285Y-134818380D01*
X260175380Y-133818380D01*
X260984904Y-134151714D02*
X260984904Y-134818380D01*
X260746809Y-133770761D02*
X260508714Y-134485047D01*
X261127761Y-134485047D01*
X261937285Y-133818380D02*
X261746809Y-133818380D01*
X261651571Y-133866000D01*
X261603952Y-133913619D01*
X261508714Y-134056476D01*
X261461095Y-134246952D01*
X261461095Y-134627904D01*
X261508714Y-134723142D01*
X261556333Y-134770761D01*
X261651571Y-134818380D01*
X261842047Y-134818380D01*
X261937285Y-134770761D01*
X261984904Y-134723142D01*
X262032523Y-134627904D01*
X262032523Y-134389809D01*
X261984904Y-134294571D01*
X261937285Y-134246952D01*
X261842047Y-134199333D01*
X261651571Y-134199333D01*
X261556333Y-134246952D01*
X261508714Y-134294571D01*
X261461095Y-134389809D01*
X258103952Y-150518761D02*
X258246809Y-150566380D01*
X258484904Y-150566380D01*
X258580142Y-150518761D01*
X258627761Y-150471142D01*
X258675380Y-150375904D01*
X258675380Y-150280666D01*
X258627761Y-150185428D01*
X258580142Y-150137809D01*
X258484904Y-150090190D01*
X258294428Y-150042571D01*
X258199190Y-149994952D01*
X258151571Y-149947333D01*
X258103952Y-149852095D01*
X258103952Y-149756857D01*
X258151571Y-149661619D01*
X258199190Y-149614000D01*
X258294428Y-149566380D01*
X258532523Y-149566380D01*
X258675380Y-149614000D01*
X259580142Y-150566380D02*
X259103952Y-150566380D01*
X259103952Y-149566380D01*
X259865857Y-150280666D02*
X260342047Y-150280666D01*
X259770619Y-150566380D02*
X260103952Y-149566380D01*
X260437285Y-150566380D01*
X260723000Y-150518761D02*
X260865857Y-150566380D01*
X261103952Y-150566380D01*
X261199190Y-150518761D01*
X261246809Y-150471142D01*
X261294428Y-150375904D01*
X261294428Y-150280666D01*
X261246809Y-150185428D01*
X261199190Y-150137809D01*
X261103952Y-150090190D01*
X260913476Y-150042571D01*
X260818238Y-149994952D01*
X260770619Y-149947333D01*
X260723000Y-149852095D01*
X260723000Y-149756857D01*
X260770619Y-149661619D01*
X260818238Y-149614000D01*
X260913476Y-149566380D01*
X261151571Y-149566380D01*
X261294428Y-149614000D01*
X261723000Y-150566380D02*
X261723000Y-149566380D01*
X261723000Y-150042571D02*
X262294428Y-150042571D01*
X262294428Y-150566380D02*
X262294428Y-149566380D01*
G04 #@! TO.C,SW47*
X106013476Y-134770761D02*
X106156333Y-134818380D01*
X106394428Y-134818380D01*
X106489666Y-134770761D01*
X106537285Y-134723142D01*
X106584904Y-134627904D01*
X106584904Y-134532666D01*
X106537285Y-134437428D01*
X106489666Y-134389809D01*
X106394428Y-134342190D01*
X106203952Y-134294571D01*
X106108714Y-134246952D01*
X106061095Y-134199333D01*
X106013476Y-134104095D01*
X106013476Y-134008857D01*
X106061095Y-133913619D01*
X106108714Y-133866000D01*
X106203952Y-133818380D01*
X106442047Y-133818380D01*
X106584904Y-133866000D01*
X106918238Y-133818380D02*
X107156333Y-134818380D01*
X107346809Y-134104095D01*
X107537285Y-134818380D01*
X107775380Y-133818380D01*
X108584904Y-134151714D02*
X108584904Y-134818380D01*
X108346809Y-133770761D02*
X108108714Y-134485047D01*
X108727761Y-134485047D01*
X109013476Y-133818380D02*
X109680142Y-133818380D01*
X109251571Y-134818380D01*
X107489666Y-149566380D02*
X108156333Y-150566380D01*
X108156333Y-149566380D02*
X107489666Y-150566380D01*
G04 #@! TO.C,SW48*
X348075476Y-77620761D02*
X348218333Y-77668380D01*
X348456428Y-77668380D01*
X348551666Y-77620761D01*
X348599285Y-77573142D01*
X348646904Y-77477904D01*
X348646904Y-77382666D01*
X348599285Y-77287428D01*
X348551666Y-77239809D01*
X348456428Y-77192190D01*
X348265952Y-77144571D01*
X348170714Y-77096952D01*
X348123095Y-77049333D01*
X348075476Y-76954095D01*
X348075476Y-76858857D01*
X348123095Y-76763619D01*
X348170714Y-76716000D01*
X348265952Y-76668380D01*
X348504047Y-76668380D01*
X348646904Y-76716000D01*
X348980238Y-76668380D02*
X349218333Y-77668380D01*
X349408809Y-76954095D01*
X349599285Y-77668380D01*
X349837380Y-76668380D01*
X350646904Y-77001714D02*
X350646904Y-77668380D01*
X350408809Y-76620761D02*
X350170714Y-77335047D01*
X350789761Y-77335047D01*
X351313571Y-77096952D02*
X351218333Y-77049333D01*
X351170714Y-77001714D01*
X351123095Y-76906476D01*
X351123095Y-76858857D01*
X351170714Y-76763619D01*
X351218333Y-76716000D01*
X351313571Y-76668380D01*
X351504047Y-76668380D01*
X351599285Y-76716000D01*
X351646904Y-76763619D01*
X351694523Y-76858857D01*
X351694523Y-76906476D01*
X351646904Y-77001714D01*
X351599285Y-77049333D01*
X351504047Y-77096952D01*
X351313571Y-77096952D01*
X351218333Y-77144571D01*
X351170714Y-77192190D01*
X351123095Y-77287428D01*
X351123095Y-77477904D01*
X351170714Y-77573142D01*
X351218333Y-77620761D01*
X351313571Y-77668380D01*
X351504047Y-77668380D01*
X351599285Y-77620761D01*
X351646904Y-77573142D01*
X351694523Y-77477904D01*
X351694523Y-77287428D01*
X351646904Y-77192190D01*
X351599285Y-77144571D01*
X351504047Y-77096952D01*
X348432619Y-93416380D02*
X348099285Y-92940190D01*
X347861190Y-93416380D02*
X347861190Y-92416380D01*
X348242142Y-92416380D01*
X348337380Y-92464000D01*
X348385000Y-92511619D01*
X348432619Y-92606857D01*
X348432619Y-92749714D01*
X348385000Y-92844952D01*
X348337380Y-92892571D01*
X348242142Y-92940190D01*
X347861190Y-92940190D01*
X348861190Y-92892571D02*
X349194523Y-92892571D01*
X349337380Y-93416380D02*
X348861190Y-93416380D01*
X348861190Y-92416380D01*
X349337380Y-92416380D01*
X349718333Y-93368761D02*
X349861190Y-93416380D01*
X350099285Y-93416380D01*
X350194523Y-93368761D01*
X350242142Y-93321142D01*
X350289761Y-93225904D01*
X350289761Y-93130666D01*
X350242142Y-93035428D01*
X350194523Y-92987809D01*
X350099285Y-92940190D01*
X349908809Y-92892571D01*
X349813571Y-92844952D01*
X349765952Y-92797333D01*
X349718333Y-92702095D01*
X349718333Y-92606857D01*
X349765952Y-92511619D01*
X349813571Y-92464000D01*
X349908809Y-92416380D01*
X350146904Y-92416380D01*
X350289761Y-92464000D01*
X350718333Y-92892571D02*
X351051666Y-92892571D01*
X351194523Y-93416380D02*
X350718333Y-93416380D01*
X350718333Y-92416380D01*
X351194523Y-92416380D01*
X351480238Y-92416380D02*
X352051666Y-92416380D01*
X351765952Y-93416380D02*
X351765952Y-92416380D01*
G04 #@! TO.C,SW49*
X272510476Y-77620761D02*
X272653333Y-77668380D01*
X272891428Y-77668380D01*
X272986666Y-77620761D01*
X273034285Y-77573142D01*
X273081904Y-77477904D01*
X273081904Y-77382666D01*
X273034285Y-77287428D01*
X272986666Y-77239809D01*
X272891428Y-77192190D01*
X272700952Y-77144571D01*
X272605714Y-77096952D01*
X272558095Y-77049333D01*
X272510476Y-76954095D01*
X272510476Y-76858857D01*
X272558095Y-76763619D01*
X272605714Y-76716000D01*
X272700952Y-76668380D01*
X272939047Y-76668380D01*
X273081904Y-76716000D01*
X273415238Y-76668380D02*
X273653333Y-77668380D01*
X273843809Y-76954095D01*
X274034285Y-77668380D01*
X274272380Y-76668380D01*
X275081904Y-77001714D02*
X275081904Y-77668380D01*
X274843809Y-76620761D02*
X274605714Y-77335047D01*
X275224761Y-77335047D01*
X275653333Y-77668380D02*
X275843809Y-77668380D01*
X275939047Y-77620761D01*
X275986666Y-77573142D01*
X276081904Y-77430285D01*
X276129523Y-77239809D01*
X276129523Y-76858857D01*
X276081904Y-76763619D01*
X276034285Y-76716000D01*
X275939047Y-76668380D01*
X275748571Y-76668380D01*
X275653333Y-76716000D01*
X275605714Y-76763619D01*
X275558095Y-76858857D01*
X275558095Y-77096952D01*
X275605714Y-77192190D01*
X275653333Y-77239809D01*
X275748571Y-77287428D01*
X275939047Y-77287428D01*
X276034285Y-77239809D01*
X276081904Y-77192190D01*
X276129523Y-77096952D01*
X273939047Y-92749714D02*
X274700952Y-93035428D01*
X273939047Y-93321142D01*
G04 #@! TO.C,SW50*
X62960476Y-77620761D02*
X63103333Y-77668380D01*
X63341428Y-77668380D01*
X63436666Y-77620761D01*
X63484285Y-77573142D01*
X63531904Y-77477904D01*
X63531904Y-77382666D01*
X63484285Y-77287428D01*
X63436666Y-77239809D01*
X63341428Y-77192190D01*
X63150952Y-77144571D01*
X63055714Y-77096952D01*
X63008095Y-77049333D01*
X62960476Y-76954095D01*
X62960476Y-76858857D01*
X63008095Y-76763619D01*
X63055714Y-76716000D01*
X63150952Y-76668380D01*
X63389047Y-76668380D01*
X63531904Y-76716000D01*
X63865238Y-76668380D02*
X64103333Y-77668380D01*
X64293809Y-76954095D01*
X64484285Y-77668380D01*
X64722380Y-76668380D01*
X65579523Y-76668380D02*
X65103333Y-76668380D01*
X65055714Y-77144571D01*
X65103333Y-77096952D01*
X65198571Y-77049333D01*
X65436666Y-77049333D01*
X65531904Y-77096952D01*
X65579523Y-77144571D01*
X65627142Y-77239809D01*
X65627142Y-77477904D01*
X65579523Y-77573142D01*
X65531904Y-77620761D01*
X65436666Y-77668380D01*
X65198571Y-77668380D01*
X65103333Y-77620761D01*
X65055714Y-77573142D01*
X66246190Y-76668380D02*
X66341428Y-76668380D01*
X66436666Y-76716000D01*
X66484285Y-76763619D01*
X66531904Y-76858857D01*
X66579523Y-77049333D01*
X66579523Y-77287428D01*
X66531904Y-77477904D01*
X66484285Y-77573142D01*
X66436666Y-77620761D01*
X66341428Y-77668380D01*
X66246190Y-77668380D01*
X66150952Y-77620761D01*
X66103333Y-77573142D01*
X66055714Y-77477904D01*
X66008095Y-77287428D01*
X66008095Y-77049333D01*
X66055714Y-76858857D01*
X66103333Y-76763619D01*
X66150952Y-76716000D01*
X66246190Y-76668380D01*
X65055714Y-93416380D02*
X64484285Y-93416380D01*
X64770000Y-93416380D02*
X64770000Y-92416380D01*
X64674761Y-92559238D01*
X64579523Y-92654476D01*
X64484285Y-92702095D01*
G04 #@! TO.C,SW51*
X282035476Y-96670761D02*
X282178333Y-96718380D01*
X282416428Y-96718380D01*
X282511666Y-96670761D01*
X282559285Y-96623142D01*
X282606904Y-96527904D01*
X282606904Y-96432666D01*
X282559285Y-96337428D01*
X282511666Y-96289809D01*
X282416428Y-96242190D01*
X282225952Y-96194571D01*
X282130714Y-96146952D01*
X282083095Y-96099333D01*
X282035476Y-96004095D01*
X282035476Y-95908857D01*
X282083095Y-95813619D01*
X282130714Y-95766000D01*
X282225952Y-95718380D01*
X282464047Y-95718380D01*
X282606904Y-95766000D01*
X282940238Y-95718380D02*
X283178333Y-96718380D01*
X283368809Y-96004095D01*
X283559285Y-96718380D01*
X283797380Y-95718380D01*
X284654523Y-95718380D02*
X284178333Y-95718380D01*
X284130714Y-96194571D01*
X284178333Y-96146952D01*
X284273571Y-96099333D01*
X284511666Y-96099333D01*
X284606904Y-96146952D01*
X284654523Y-96194571D01*
X284702142Y-96289809D01*
X284702142Y-96527904D01*
X284654523Y-96623142D01*
X284606904Y-96670761D01*
X284511666Y-96718380D01*
X284273571Y-96718380D01*
X284178333Y-96670761D01*
X284130714Y-96623142D01*
X285654523Y-96718380D02*
X285083095Y-96718380D01*
X285368809Y-96718380D02*
X285368809Y-95718380D01*
X285273571Y-95861238D01*
X285178333Y-95956476D01*
X285083095Y-96004095D01*
X281749761Y-111942571D02*
X282083095Y-111942571D01*
X282225952Y-112466380D02*
X281749761Y-112466380D01*
X281749761Y-111466380D01*
X282225952Y-111466380D01*
X283321190Y-112561619D02*
X283225952Y-112514000D01*
X283130714Y-112418761D01*
X282987857Y-112275904D01*
X282892619Y-112228285D01*
X282797380Y-112228285D01*
X282845000Y-112466380D02*
X282749761Y-112418761D01*
X282654523Y-112323523D01*
X282606904Y-112133047D01*
X282606904Y-111799714D01*
X282654523Y-111609238D01*
X282749761Y-111514000D01*
X282845000Y-111466380D01*
X283035476Y-111466380D01*
X283130714Y-111514000D01*
X283225952Y-111609238D01*
X283273571Y-111799714D01*
X283273571Y-112133047D01*
X283225952Y-112323523D01*
X283130714Y-112418761D01*
X283035476Y-112466380D01*
X282845000Y-112466380D01*
X283702142Y-111466380D02*
X283702142Y-112275904D01*
X283749761Y-112371142D01*
X283797380Y-112418761D01*
X283892619Y-112466380D01*
X284083095Y-112466380D01*
X284178333Y-112418761D01*
X284225952Y-112371142D01*
X284273571Y-112275904D01*
X284273571Y-111466380D01*
X284702142Y-112180666D02*
X285178333Y-112180666D01*
X284606904Y-112466380D02*
X284940238Y-111466380D01*
X285273571Y-112466380D01*
X286083095Y-112466380D02*
X285606904Y-112466380D01*
X285606904Y-111466380D01*
G04 #@! TO.C,SW52*
X72485476Y-96670761D02*
X72628333Y-96718380D01*
X72866428Y-96718380D01*
X72961666Y-96670761D01*
X73009285Y-96623142D01*
X73056904Y-96527904D01*
X73056904Y-96432666D01*
X73009285Y-96337428D01*
X72961666Y-96289809D01*
X72866428Y-96242190D01*
X72675952Y-96194571D01*
X72580714Y-96146952D01*
X72533095Y-96099333D01*
X72485476Y-96004095D01*
X72485476Y-95908857D01*
X72533095Y-95813619D01*
X72580714Y-95766000D01*
X72675952Y-95718380D01*
X72914047Y-95718380D01*
X73056904Y-95766000D01*
X73390238Y-95718380D02*
X73628333Y-96718380D01*
X73818809Y-96004095D01*
X74009285Y-96718380D01*
X74247380Y-95718380D01*
X75104523Y-95718380D02*
X74628333Y-95718380D01*
X74580714Y-96194571D01*
X74628333Y-96146952D01*
X74723571Y-96099333D01*
X74961666Y-96099333D01*
X75056904Y-96146952D01*
X75104523Y-96194571D01*
X75152142Y-96289809D01*
X75152142Y-96527904D01*
X75104523Y-96623142D01*
X75056904Y-96670761D01*
X74961666Y-96718380D01*
X74723571Y-96718380D01*
X74628333Y-96670761D01*
X74580714Y-96623142D01*
X75533095Y-95813619D02*
X75580714Y-95766000D01*
X75675952Y-95718380D01*
X75914047Y-95718380D01*
X76009285Y-95766000D01*
X76056904Y-95813619D01*
X76104523Y-95908857D01*
X76104523Y-96004095D01*
X76056904Y-96146952D01*
X75485476Y-96718380D01*
X76104523Y-96718380D01*
X74675952Y-112561619D02*
X74580714Y-112514000D01*
X74485476Y-112418761D01*
X74342619Y-112275904D01*
X74247380Y-112228285D01*
X74152142Y-112228285D01*
X74199761Y-112466380D02*
X74104523Y-112418761D01*
X74009285Y-112323523D01*
X73961666Y-112133047D01*
X73961666Y-111799714D01*
X74009285Y-111609238D01*
X74104523Y-111514000D01*
X74199761Y-111466380D01*
X74390238Y-111466380D01*
X74485476Y-111514000D01*
X74580714Y-111609238D01*
X74628333Y-111799714D01*
X74628333Y-112133047D01*
X74580714Y-112323523D01*
X74485476Y-112418761D01*
X74390238Y-112466380D01*
X74199761Y-112466380D01*
G04 #@! TO.C,SW53*
X286734476Y-115720761D02*
X286877333Y-115768380D01*
X287115428Y-115768380D01*
X287210666Y-115720761D01*
X287258285Y-115673142D01*
X287305904Y-115577904D01*
X287305904Y-115482666D01*
X287258285Y-115387428D01*
X287210666Y-115339809D01*
X287115428Y-115292190D01*
X286924952Y-115244571D01*
X286829714Y-115196952D01*
X286782095Y-115149333D01*
X286734476Y-115054095D01*
X286734476Y-114958857D01*
X286782095Y-114863619D01*
X286829714Y-114816000D01*
X286924952Y-114768380D01*
X287163047Y-114768380D01*
X287305904Y-114816000D01*
X287639238Y-114768380D02*
X287877333Y-115768380D01*
X288067809Y-115054095D01*
X288258285Y-115768380D01*
X288496380Y-114768380D01*
X289353523Y-114768380D02*
X288877333Y-114768380D01*
X288829714Y-115244571D01*
X288877333Y-115196952D01*
X288972571Y-115149333D01*
X289210666Y-115149333D01*
X289305904Y-115196952D01*
X289353523Y-115244571D01*
X289401142Y-115339809D01*
X289401142Y-115577904D01*
X289353523Y-115673142D01*
X289305904Y-115720761D01*
X289210666Y-115768380D01*
X288972571Y-115768380D01*
X288877333Y-115720761D01*
X288829714Y-115673142D01*
X289734476Y-114768380D02*
X290353523Y-114768380D01*
X290020190Y-115149333D01*
X290163047Y-115149333D01*
X290258285Y-115196952D01*
X290305904Y-115244571D01*
X290353523Y-115339809D01*
X290353523Y-115577904D01*
X290305904Y-115673142D01*
X290258285Y-115720761D01*
X290163047Y-115768380D01*
X289877333Y-115768380D01*
X289782095Y-115720761D01*
X289734476Y-115673142D01*
X285282095Y-131230666D02*
X285758285Y-131230666D01*
X285186857Y-131516380D02*
X285520190Y-130516380D01*
X285853523Y-131516380D01*
X286139238Y-131468761D02*
X286282095Y-131516380D01*
X286520190Y-131516380D01*
X286615428Y-131468761D01*
X286663047Y-131421142D01*
X286710666Y-131325904D01*
X286710666Y-131230666D01*
X286663047Y-131135428D01*
X286615428Y-131087809D01*
X286520190Y-131040190D01*
X286329714Y-130992571D01*
X286234476Y-130944952D01*
X286186857Y-130897333D01*
X286139238Y-130802095D01*
X286139238Y-130706857D01*
X286186857Y-130611619D01*
X286234476Y-130564000D01*
X286329714Y-130516380D01*
X286567809Y-130516380D01*
X286710666Y-130564000D01*
X286996380Y-130516380D02*
X287567809Y-130516380D01*
X287282095Y-131516380D02*
X287282095Y-130516380D01*
X287901142Y-130992571D02*
X288234476Y-130992571D01*
X288377333Y-131516380D02*
X287901142Y-131516380D01*
X287901142Y-130516380D01*
X288377333Y-130516380D01*
X289377333Y-131516380D02*
X289044000Y-131040190D01*
X288805904Y-131516380D02*
X288805904Y-130516380D01*
X289186857Y-130516380D01*
X289282095Y-130564000D01*
X289329714Y-130611619D01*
X289377333Y-130706857D01*
X289377333Y-130849714D01*
X289329714Y-130944952D01*
X289282095Y-130992571D01*
X289186857Y-131040190D01*
X288805904Y-131040190D01*
X289805904Y-131516380D02*
X289805904Y-130516380D01*
X290234476Y-131468761D02*
X290377333Y-131516380D01*
X290615428Y-131516380D01*
X290710666Y-131468761D01*
X290758285Y-131421142D01*
X290805904Y-131325904D01*
X290805904Y-131230666D01*
X290758285Y-131135428D01*
X290710666Y-131087809D01*
X290615428Y-131040190D01*
X290424952Y-130992571D01*
X290329714Y-130944952D01*
X290282095Y-130897333D01*
X290234476Y-130802095D01*
X290234476Y-130706857D01*
X290282095Y-130611619D01*
X290329714Y-130564000D01*
X290424952Y-130516380D01*
X290663047Y-130516380D01*
X290805904Y-130564000D01*
X291234476Y-131516380D02*
X291234476Y-130516380D01*
X291805904Y-131516380D02*
X291377333Y-130944952D01*
X291805904Y-130516380D02*
X291234476Y-131087809D01*
G04 #@! TO.C,SW54*
X77184476Y-115720761D02*
X77327333Y-115768380D01*
X77565428Y-115768380D01*
X77660666Y-115720761D01*
X77708285Y-115673142D01*
X77755904Y-115577904D01*
X77755904Y-115482666D01*
X77708285Y-115387428D01*
X77660666Y-115339809D01*
X77565428Y-115292190D01*
X77374952Y-115244571D01*
X77279714Y-115196952D01*
X77232095Y-115149333D01*
X77184476Y-115054095D01*
X77184476Y-114958857D01*
X77232095Y-114863619D01*
X77279714Y-114816000D01*
X77374952Y-114768380D01*
X77613047Y-114768380D01*
X77755904Y-114816000D01*
X78089238Y-114768380D02*
X78327333Y-115768380D01*
X78517809Y-115054095D01*
X78708285Y-115768380D01*
X78946380Y-114768380D01*
X79803523Y-114768380D02*
X79327333Y-114768380D01*
X79279714Y-115244571D01*
X79327333Y-115196952D01*
X79422571Y-115149333D01*
X79660666Y-115149333D01*
X79755904Y-115196952D01*
X79803523Y-115244571D01*
X79851142Y-115339809D01*
X79851142Y-115577904D01*
X79803523Y-115673142D01*
X79755904Y-115720761D01*
X79660666Y-115768380D01*
X79422571Y-115768380D01*
X79327333Y-115720761D01*
X79279714Y-115673142D01*
X80708285Y-115101714D02*
X80708285Y-115768380D01*
X80470190Y-114720761D02*
X80232095Y-115435047D01*
X80851142Y-115435047D01*
X78755904Y-131230666D02*
X79232095Y-131230666D01*
X78660666Y-131516380D02*
X78994000Y-130516380D01*
X79327333Y-131516380D01*
G04 #@! TO.C,SW56*
X86963476Y-134770761D02*
X87106333Y-134818380D01*
X87344428Y-134818380D01*
X87439666Y-134770761D01*
X87487285Y-134723142D01*
X87534904Y-134627904D01*
X87534904Y-134532666D01*
X87487285Y-134437428D01*
X87439666Y-134389809D01*
X87344428Y-134342190D01*
X87153952Y-134294571D01*
X87058714Y-134246952D01*
X87011095Y-134199333D01*
X86963476Y-134104095D01*
X86963476Y-134008857D01*
X87011095Y-133913619D01*
X87058714Y-133866000D01*
X87153952Y-133818380D01*
X87392047Y-133818380D01*
X87534904Y-133866000D01*
X87868238Y-133818380D02*
X88106333Y-134818380D01*
X88296809Y-134104095D01*
X88487285Y-134818380D01*
X88725380Y-133818380D01*
X89582523Y-133818380D02*
X89106333Y-133818380D01*
X89058714Y-134294571D01*
X89106333Y-134246952D01*
X89201571Y-134199333D01*
X89439666Y-134199333D01*
X89534904Y-134246952D01*
X89582523Y-134294571D01*
X89630142Y-134389809D01*
X89630142Y-134627904D01*
X89582523Y-134723142D01*
X89534904Y-134770761D01*
X89439666Y-134818380D01*
X89201571Y-134818380D01*
X89106333Y-134770761D01*
X89058714Y-134723142D01*
X90487285Y-133818380D02*
X90296809Y-133818380D01*
X90201571Y-133866000D01*
X90153952Y-133913619D01*
X90058714Y-134056476D01*
X90011095Y-134246952D01*
X90011095Y-134627904D01*
X90058714Y-134723142D01*
X90106333Y-134770761D01*
X90201571Y-134818380D01*
X90392047Y-134818380D01*
X90487285Y-134770761D01*
X90534904Y-134723142D01*
X90582523Y-134627904D01*
X90582523Y-134389809D01*
X90534904Y-134294571D01*
X90487285Y-134246952D01*
X90392047Y-134199333D01*
X90201571Y-134199333D01*
X90106333Y-134246952D01*
X90058714Y-134294571D01*
X90011095Y-134389809D01*
X88439666Y-149566380D02*
X89106333Y-149566380D01*
X88439666Y-150566380D01*
X89106333Y-150566380D01*
G04 #@! TO.C,SW57*
X291560476Y-77620761D02*
X291703333Y-77668380D01*
X291941428Y-77668380D01*
X292036666Y-77620761D01*
X292084285Y-77573142D01*
X292131904Y-77477904D01*
X292131904Y-77382666D01*
X292084285Y-77287428D01*
X292036666Y-77239809D01*
X291941428Y-77192190D01*
X291750952Y-77144571D01*
X291655714Y-77096952D01*
X291608095Y-77049333D01*
X291560476Y-76954095D01*
X291560476Y-76858857D01*
X291608095Y-76763619D01*
X291655714Y-76716000D01*
X291750952Y-76668380D01*
X291989047Y-76668380D01*
X292131904Y-76716000D01*
X292465238Y-76668380D02*
X292703333Y-77668380D01*
X292893809Y-76954095D01*
X293084285Y-77668380D01*
X293322380Y-76668380D01*
X294179523Y-76668380D02*
X293703333Y-76668380D01*
X293655714Y-77144571D01*
X293703333Y-77096952D01*
X293798571Y-77049333D01*
X294036666Y-77049333D01*
X294131904Y-77096952D01*
X294179523Y-77144571D01*
X294227142Y-77239809D01*
X294227142Y-77477904D01*
X294179523Y-77573142D01*
X294131904Y-77620761D01*
X294036666Y-77668380D01*
X293798571Y-77668380D01*
X293703333Y-77620761D01*
X293655714Y-77573142D01*
X294560476Y-76668380D02*
X295227142Y-76668380D01*
X294798571Y-77668380D01*
X292250952Y-93416380D02*
X292250952Y-92416380D01*
X292489047Y-92416380D01*
X292631904Y-92464000D01*
X292727142Y-92559238D01*
X292774761Y-92654476D01*
X292822380Y-92844952D01*
X292822380Y-92987809D01*
X292774761Y-93178285D01*
X292727142Y-93273523D01*
X292631904Y-93368761D01*
X292489047Y-93416380D01*
X292250952Y-93416380D01*
X293250952Y-92892571D02*
X293584285Y-92892571D01*
X293727142Y-93416380D02*
X293250952Y-93416380D01*
X293250952Y-92416380D01*
X293727142Y-92416380D01*
X294631904Y-93416380D02*
X294155714Y-93416380D01*
X294155714Y-92416380D01*
G04 #@! TO.C,SW58*
X41497476Y-77620761D02*
X41640333Y-77668380D01*
X41878428Y-77668380D01*
X41973666Y-77620761D01*
X42021285Y-77573142D01*
X42068904Y-77477904D01*
X42068904Y-77382666D01*
X42021285Y-77287428D01*
X41973666Y-77239809D01*
X41878428Y-77192190D01*
X41687952Y-77144571D01*
X41592714Y-77096952D01*
X41545095Y-77049333D01*
X41497476Y-76954095D01*
X41497476Y-76858857D01*
X41545095Y-76763619D01*
X41592714Y-76716000D01*
X41687952Y-76668380D01*
X41926047Y-76668380D01*
X42068904Y-76716000D01*
X42402238Y-76668380D02*
X42640333Y-77668380D01*
X42830809Y-76954095D01*
X43021285Y-77668380D01*
X43259380Y-76668380D01*
X44116523Y-76668380D02*
X43640333Y-76668380D01*
X43592714Y-77144571D01*
X43640333Y-77096952D01*
X43735571Y-77049333D01*
X43973666Y-77049333D01*
X44068904Y-77096952D01*
X44116523Y-77144571D01*
X44164142Y-77239809D01*
X44164142Y-77477904D01*
X44116523Y-77573142D01*
X44068904Y-77620761D01*
X43973666Y-77668380D01*
X43735571Y-77668380D01*
X43640333Y-77620761D01*
X43592714Y-77573142D01*
X44735571Y-77096952D02*
X44640333Y-77049333D01*
X44592714Y-77001714D01*
X44545095Y-76906476D01*
X44545095Y-76858857D01*
X44592714Y-76763619D01*
X44640333Y-76716000D01*
X44735571Y-76668380D01*
X44926047Y-76668380D01*
X45021285Y-76716000D01*
X45068904Y-76763619D01*
X45116523Y-76858857D01*
X45116523Y-76906476D01*
X45068904Y-77001714D01*
X45021285Y-77049333D01*
X44926047Y-77096952D01*
X44735571Y-77096952D01*
X44640333Y-77144571D01*
X44592714Y-77192190D01*
X44545095Y-77287428D01*
X44545095Y-77477904D01*
X44592714Y-77573142D01*
X44640333Y-77620761D01*
X44735571Y-77668380D01*
X44926047Y-77668380D01*
X45021285Y-77620761D01*
X45068904Y-77573142D01*
X45116523Y-77477904D01*
X45116523Y-77287428D01*
X45068904Y-77192190D01*
X45021285Y-77144571D01*
X44926047Y-77096952D01*
X42116523Y-92892571D02*
X42449857Y-92892571D01*
X42592714Y-93416380D02*
X42116523Y-93416380D01*
X42116523Y-92416380D01*
X42592714Y-92416380D01*
X42973666Y-93368761D02*
X43116523Y-93416380D01*
X43354619Y-93416380D01*
X43449857Y-93368761D01*
X43497476Y-93321142D01*
X43545095Y-93225904D01*
X43545095Y-93130666D01*
X43497476Y-93035428D01*
X43449857Y-92987809D01*
X43354619Y-92940190D01*
X43164142Y-92892571D01*
X43068904Y-92844952D01*
X43021285Y-92797333D01*
X42973666Y-92702095D01*
X42973666Y-92606857D01*
X43021285Y-92511619D01*
X43068904Y-92464000D01*
X43164142Y-92416380D01*
X43402238Y-92416380D01*
X43545095Y-92464000D01*
X44545095Y-93321142D02*
X44497476Y-93368761D01*
X44354619Y-93416380D01*
X44259380Y-93416380D01*
X44116523Y-93368761D01*
X44021285Y-93273523D01*
X43973666Y-93178285D01*
X43926047Y-92987809D01*
X43926047Y-92844952D01*
X43973666Y-92654476D01*
X44021285Y-92559238D01*
X44116523Y-92464000D01*
X44259380Y-92416380D01*
X44354619Y-92416380D01*
X44497476Y-92464000D01*
X44545095Y-92511619D01*
G04 #@! TO.C,SW59*
X305911476Y-96670761D02*
X306054333Y-96718380D01*
X306292428Y-96718380D01*
X306387666Y-96670761D01*
X306435285Y-96623142D01*
X306482904Y-96527904D01*
X306482904Y-96432666D01*
X306435285Y-96337428D01*
X306387666Y-96289809D01*
X306292428Y-96242190D01*
X306101952Y-96194571D01*
X306006714Y-96146952D01*
X305959095Y-96099333D01*
X305911476Y-96004095D01*
X305911476Y-95908857D01*
X305959095Y-95813619D01*
X306006714Y-95766000D01*
X306101952Y-95718380D01*
X306340047Y-95718380D01*
X306482904Y-95766000D01*
X306816238Y-95718380D02*
X307054333Y-96718380D01*
X307244809Y-96004095D01*
X307435285Y-96718380D01*
X307673380Y-95718380D01*
X308530523Y-95718380D02*
X308054333Y-95718380D01*
X308006714Y-96194571D01*
X308054333Y-96146952D01*
X308149571Y-96099333D01*
X308387666Y-96099333D01*
X308482904Y-96146952D01*
X308530523Y-96194571D01*
X308578142Y-96289809D01*
X308578142Y-96527904D01*
X308530523Y-96623142D01*
X308482904Y-96670761D01*
X308387666Y-96718380D01*
X308149571Y-96718380D01*
X308054333Y-96670761D01*
X308006714Y-96623142D01*
X309054333Y-96718380D02*
X309244809Y-96718380D01*
X309340047Y-96670761D01*
X309387666Y-96623142D01*
X309482904Y-96480285D01*
X309530523Y-96289809D01*
X309530523Y-95908857D01*
X309482904Y-95813619D01*
X309435285Y-95766000D01*
X309340047Y-95718380D01*
X309149571Y-95718380D01*
X309054333Y-95766000D01*
X309006714Y-95813619D01*
X308959095Y-95908857D01*
X308959095Y-96146952D01*
X309006714Y-96242190D01*
X309054333Y-96289809D01*
X309149571Y-96337428D01*
X309340047Y-96337428D01*
X309435285Y-96289809D01*
X309482904Y-96242190D01*
X309530523Y-96146952D01*
X305649571Y-112466380D02*
X305316238Y-111990190D01*
X305078142Y-112466380D02*
X305078142Y-111466380D01*
X305459095Y-111466380D01*
X305554333Y-111514000D01*
X305601952Y-111561619D01*
X305649571Y-111656857D01*
X305649571Y-111799714D01*
X305601952Y-111894952D01*
X305554333Y-111942571D01*
X305459095Y-111990190D01*
X305078142Y-111990190D01*
X306078142Y-111942571D02*
X306411476Y-111942571D01*
X306554333Y-112466380D02*
X306078142Y-112466380D01*
X306078142Y-111466380D01*
X306554333Y-111466380D01*
X306840047Y-111466380D02*
X307411476Y-111466380D01*
X307125761Y-112466380D02*
X307125761Y-111466380D01*
X307744809Y-111466380D02*
X307744809Y-112275904D01*
X307792428Y-112371142D01*
X307840047Y-112418761D01*
X307935285Y-112466380D01*
X308125761Y-112466380D01*
X308221000Y-112418761D01*
X308268619Y-112371142D01*
X308316238Y-112275904D01*
X308316238Y-111466380D01*
X309363857Y-112466380D02*
X309030523Y-111990190D01*
X308792428Y-112466380D02*
X308792428Y-111466380D01*
X309173380Y-111466380D01*
X309268619Y-111514000D01*
X309316238Y-111561619D01*
X309363857Y-111656857D01*
X309363857Y-111799714D01*
X309316238Y-111894952D01*
X309268619Y-111942571D01*
X309173380Y-111990190D01*
X308792428Y-111990190D01*
X309792428Y-112466380D02*
X309792428Y-111466380D01*
X310363857Y-112466380D01*
X310363857Y-111466380D01*
G04 #@! TO.C,SW60*
X46323476Y-96670761D02*
X46466333Y-96718380D01*
X46704428Y-96718380D01*
X46799666Y-96670761D01*
X46847285Y-96623142D01*
X46894904Y-96527904D01*
X46894904Y-96432666D01*
X46847285Y-96337428D01*
X46799666Y-96289809D01*
X46704428Y-96242190D01*
X46513952Y-96194571D01*
X46418714Y-96146952D01*
X46371095Y-96099333D01*
X46323476Y-96004095D01*
X46323476Y-95908857D01*
X46371095Y-95813619D01*
X46418714Y-95766000D01*
X46513952Y-95718380D01*
X46752047Y-95718380D01*
X46894904Y-95766000D01*
X47228238Y-95718380D02*
X47466333Y-96718380D01*
X47656809Y-96004095D01*
X47847285Y-96718380D01*
X48085380Y-95718380D01*
X48894904Y-95718380D02*
X48704428Y-95718380D01*
X48609190Y-95766000D01*
X48561571Y-95813619D01*
X48466333Y-95956476D01*
X48418714Y-96146952D01*
X48418714Y-96527904D01*
X48466333Y-96623142D01*
X48513952Y-96670761D01*
X48609190Y-96718380D01*
X48799666Y-96718380D01*
X48894904Y-96670761D01*
X48942523Y-96623142D01*
X48990142Y-96527904D01*
X48990142Y-96289809D01*
X48942523Y-96194571D01*
X48894904Y-96146952D01*
X48799666Y-96099333D01*
X48609190Y-96099333D01*
X48513952Y-96146952D01*
X48466333Y-96194571D01*
X48418714Y-96289809D01*
X49609190Y-95718380D02*
X49704428Y-95718380D01*
X49799666Y-95766000D01*
X49847285Y-95813619D01*
X49894904Y-95908857D01*
X49942523Y-96099333D01*
X49942523Y-96337428D01*
X49894904Y-96527904D01*
X49847285Y-96623142D01*
X49799666Y-96670761D01*
X49704428Y-96718380D01*
X49609190Y-96718380D01*
X49513952Y-96670761D01*
X49466333Y-96623142D01*
X49418714Y-96527904D01*
X49371095Y-96337428D01*
X49371095Y-96099333D01*
X49418714Y-95908857D01*
X49466333Y-95813619D01*
X49513952Y-95766000D01*
X49609190Y-95718380D01*
X46918714Y-111466380D02*
X47490142Y-111466380D01*
X47204428Y-112466380D02*
X47204428Y-111466380D01*
X47775857Y-112180666D02*
X48252047Y-112180666D01*
X47680619Y-112466380D02*
X48013952Y-111466380D01*
X48347285Y-112466380D01*
X49013952Y-111942571D02*
X49156809Y-111990190D01*
X49204428Y-112037809D01*
X49252047Y-112133047D01*
X49252047Y-112275904D01*
X49204428Y-112371142D01*
X49156809Y-112418761D01*
X49061571Y-112466380D01*
X48680619Y-112466380D01*
X48680619Y-111466380D01*
X49013952Y-111466380D01*
X49109190Y-111514000D01*
X49156809Y-111561619D01*
X49204428Y-111656857D01*
X49204428Y-111752095D01*
X49156809Y-111847333D01*
X49109190Y-111894952D01*
X49013952Y-111942571D01*
X48680619Y-111942571D01*
G04 #@! TO.C,SW61*
X308324476Y-115720761D02*
X308467333Y-115768380D01*
X308705428Y-115768380D01*
X308800666Y-115720761D01*
X308848285Y-115673142D01*
X308895904Y-115577904D01*
X308895904Y-115482666D01*
X308848285Y-115387428D01*
X308800666Y-115339809D01*
X308705428Y-115292190D01*
X308514952Y-115244571D01*
X308419714Y-115196952D01*
X308372095Y-115149333D01*
X308324476Y-115054095D01*
X308324476Y-114958857D01*
X308372095Y-114863619D01*
X308419714Y-114816000D01*
X308514952Y-114768380D01*
X308753047Y-114768380D01*
X308895904Y-114816000D01*
X309229238Y-114768380D02*
X309467333Y-115768380D01*
X309657809Y-115054095D01*
X309848285Y-115768380D01*
X310086380Y-114768380D01*
X310895904Y-114768380D02*
X310705428Y-114768380D01*
X310610190Y-114816000D01*
X310562571Y-114863619D01*
X310467333Y-115006476D01*
X310419714Y-115196952D01*
X310419714Y-115577904D01*
X310467333Y-115673142D01*
X310514952Y-115720761D01*
X310610190Y-115768380D01*
X310800666Y-115768380D01*
X310895904Y-115720761D01*
X310943523Y-115673142D01*
X310991142Y-115577904D01*
X310991142Y-115339809D01*
X310943523Y-115244571D01*
X310895904Y-115196952D01*
X310800666Y-115149333D01*
X310610190Y-115149333D01*
X310514952Y-115196952D01*
X310467333Y-115244571D01*
X310419714Y-115339809D01*
X311943523Y-115768380D02*
X311372095Y-115768380D01*
X311657809Y-115768380D02*
X311657809Y-114768380D01*
X311562571Y-114911238D01*
X311467333Y-115006476D01*
X311372095Y-115054095D01*
X309038761Y-131421142D02*
X308991142Y-131468761D01*
X308848285Y-131516380D01*
X308753047Y-131516380D01*
X308610190Y-131468761D01*
X308514952Y-131373523D01*
X308467333Y-131278285D01*
X308419714Y-131087809D01*
X308419714Y-130944952D01*
X308467333Y-130754476D01*
X308514952Y-130659238D01*
X308610190Y-130564000D01*
X308753047Y-130516380D01*
X308848285Y-130516380D01*
X308991142Y-130564000D01*
X309038761Y-130611619D01*
X309419714Y-131230666D02*
X309895904Y-131230666D01*
X309324476Y-131516380D02*
X309657809Y-130516380D01*
X309991142Y-131516380D01*
X310324476Y-131516380D02*
X310324476Y-130516380D01*
X310705428Y-130516380D01*
X310800666Y-130564000D01*
X310848285Y-130611619D01*
X310895904Y-130706857D01*
X310895904Y-130849714D01*
X310848285Y-130944952D01*
X310800666Y-130992571D01*
X310705428Y-131040190D01*
X310324476Y-131040190D01*
X311276857Y-131468761D02*
X311419714Y-131516380D01*
X311657809Y-131516380D01*
X311753047Y-131468761D01*
X311800666Y-131421142D01*
X311848285Y-131325904D01*
X311848285Y-131230666D01*
X311800666Y-131135428D01*
X311753047Y-131087809D01*
X311657809Y-131040190D01*
X311467333Y-130992571D01*
X311372095Y-130944952D01*
X311324476Y-130897333D01*
X311276857Y-130802095D01*
X311276857Y-130706857D01*
X311324476Y-130611619D01*
X311372095Y-130564000D01*
X311467333Y-130516380D01*
X311705428Y-130516380D01*
X311848285Y-130564000D01*
G04 #@! TO.C,SW62*
X106013476Y-153820761D02*
X106156333Y-153868380D01*
X106394428Y-153868380D01*
X106489666Y-153820761D01*
X106537285Y-153773142D01*
X106584904Y-153677904D01*
X106584904Y-153582666D01*
X106537285Y-153487428D01*
X106489666Y-153439809D01*
X106394428Y-153392190D01*
X106203952Y-153344571D01*
X106108714Y-153296952D01*
X106061095Y-153249333D01*
X106013476Y-153154095D01*
X106013476Y-153058857D01*
X106061095Y-152963619D01*
X106108714Y-152916000D01*
X106203952Y-152868380D01*
X106442047Y-152868380D01*
X106584904Y-152916000D01*
X106918238Y-152868380D02*
X107156333Y-153868380D01*
X107346809Y-153154095D01*
X107537285Y-153868380D01*
X107775380Y-152868380D01*
X108584904Y-152868380D02*
X108394428Y-152868380D01*
X108299190Y-152916000D01*
X108251571Y-152963619D01*
X108156333Y-153106476D01*
X108108714Y-153296952D01*
X108108714Y-153677904D01*
X108156333Y-153773142D01*
X108203952Y-153820761D01*
X108299190Y-153868380D01*
X108489666Y-153868380D01*
X108584904Y-153820761D01*
X108632523Y-153773142D01*
X108680142Y-153677904D01*
X108680142Y-153439809D01*
X108632523Y-153344571D01*
X108584904Y-153296952D01*
X108489666Y-153249333D01*
X108299190Y-153249333D01*
X108203952Y-153296952D01*
X108156333Y-153344571D01*
X108108714Y-153439809D01*
X109061095Y-152963619D02*
X109108714Y-152916000D01*
X109203952Y-152868380D01*
X109442047Y-152868380D01*
X109537285Y-152916000D01*
X109584904Y-152963619D01*
X109632523Y-153058857D01*
X109632523Y-153154095D01*
X109584904Y-153296952D01*
X109013476Y-153868380D01*
X109632523Y-153868380D01*
X105656333Y-169568761D02*
X105799190Y-169616380D01*
X106037285Y-169616380D01*
X106132523Y-169568761D01*
X106180142Y-169521142D01*
X106227761Y-169425904D01*
X106227761Y-169330666D01*
X106180142Y-169235428D01*
X106132523Y-169187809D01*
X106037285Y-169140190D01*
X105846809Y-169092571D01*
X105751571Y-169044952D01*
X105703952Y-168997333D01*
X105656333Y-168902095D01*
X105656333Y-168806857D01*
X105703952Y-168711619D01*
X105751571Y-168664000D01*
X105846809Y-168616380D01*
X106084904Y-168616380D01*
X106227761Y-168664000D01*
X106656333Y-169616380D02*
X106656333Y-168616380D01*
X107037285Y-168616380D01*
X107132523Y-168664000D01*
X107180142Y-168711619D01*
X107227761Y-168806857D01*
X107227761Y-168949714D01*
X107180142Y-169044952D01*
X107132523Y-169092571D01*
X107037285Y-169140190D01*
X106656333Y-169140190D01*
X107608714Y-169330666D02*
X108084904Y-169330666D01*
X107513476Y-169616380D02*
X107846809Y-168616380D01*
X108180142Y-169616380D01*
X109084904Y-169521142D02*
X109037285Y-169568761D01*
X108894428Y-169616380D01*
X108799190Y-169616380D01*
X108656333Y-169568761D01*
X108561095Y-169473523D01*
X108513476Y-169378285D01*
X108465857Y-169187809D01*
X108465857Y-169044952D01*
X108513476Y-168854476D01*
X108561095Y-168759238D01*
X108656333Y-168664000D01*
X108799190Y-168616380D01*
X108894428Y-168616380D01*
X109037285Y-168664000D01*
X109084904Y-168711619D01*
X109513476Y-169092571D02*
X109846809Y-169092571D01*
X109989666Y-169616380D02*
X109513476Y-169616380D01*
X109513476Y-168616380D01*
X109989666Y-168616380D01*
G04 #@! TO.C,SW64*
X284575476Y-134770761D02*
X284718333Y-134818380D01*
X284956428Y-134818380D01*
X285051666Y-134770761D01*
X285099285Y-134723142D01*
X285146904Y-134627904D01*
X285146904Y-134532666D01*
X285099285Y-134437428D01*
X285051666Y-134389809D01*
X284956428Y-134342190D01*
X284765952Y-134294571D01*
X284670714Y-134246952D01*
X284623095Y-134199333D01*
X284575476Y-134104095D01*
X284575476Y-134008857D01*
X284623095Y-133913619D01*
X284670714Y-133866000D01*
X284765952Y-133818380D01*
X285004047Y-133818380D01*
X285146904Y-133866000D01*
X285480238Y-133818380D02*
X285718333Y-134818380D01*
X285908809Y-134104095D01*
X286099285Y-134818380D01*
X286337380Y-133818380D01*
X287146904Y-133818380D02*
X286956428Y-133818380D01*
X286861190Y-133866000D01*
X286813571Y-133913619D01*
X286718333Y-134056476D01*
X286670714Y-134246952D01*
X286670714Y-134627904D01*
X286718333Y-134723142D01*
X286765952Y-134770761D01*
X286861190Y-134818380D01*
X287051666Y-134818380D01*
X287146904Y-134770761D01*
X287194523Y-134723142D01*
X287242142Y-134627904D01*
X287242142Y-134389809D01*
X287194523Y-134294571D01*
X287146904Y-134246952D01*
X287051666Y-134199333D01*
X286861190Y-134199333D01*
X286765952Y-134246952D01*
X286718333Y-134294571D01*
X286670714Y-134389809D01*
X288099285Y-134151714D02*
X288099285Y-134818380D01*
X287861190Y-133770761D02*
X287623095Y-134485047D01*
X288242142Y-134485047D01*
X283646904Y-150518761D02*
X283789761Y-150566380D01*
X284027857Y-150566380D01*
X284123095Y-150518761D01*
X284170714Y-150471142D01*
X284218333Y-150375904D01*
X284218333Y-150280666D01*
X284170714Y-150185428D01*
X284123095Y-150137809D01*
X284027857Y-150090190D01*
X283837380Y-150042571D01*
X283742142Y-149994952D01*
X283694523Y-149947333D01*
X283646904Y-149852095D01*
X283646904Y-149756857D01*
X283694523Y-149661619D01*
X283742142Y-149614000D01*
X283837380Y-149566380D01*
X284075476Y-149566380D01*
X284218333Y-149614000D01*
X284646904Y-150566380D02*
X284646904Y-149566380D01*
X284646904Y-150042571D02*
X285218333Y-150042571D01*
X285218333Y-150566380D02*
X285218333Y-149566380D01*
X285694523Y-150566380D02*
X285694523Y-149566380D01*
X286504047Y-150042571D02*
X286170714Y-150042571D01*
X286170714Y-150566380D02*
X286170714Y-149566380D01*
X286646904Y-149566380D01*
X286885000Y-149566380D02*
X287456428Y-149566380D01*
X287170714Y-150566380D02*
X287170714Y-149566380D01*
X287551666Y-150661619D02*
X288313571Y-150661619D01*
X289123095Y-150566380D02*
X288789761Y-150090190D01*
X288551666Y-150566380D02*
X288551666Y-149566380D01*
X288932619Y-149566380D01*
X289027857Y-149614000D01*
X289075476Y-149661619D01*
X289123095Y-149756857D01*
X289123095Y-149899714D01*
X289075476Y-149994952D01*
X289027857Y-150042571D01*
X288932619Y-150090190D01*
X288551666Y-150090190D01*
G04 #@! TO.C,SW3*
X53784666Y-134770761D02*
X53927523Y-134818380D01*
X54165619Y-134818380D01*
X54260857Y-134770761D01*
X54308476Y-134723142D01*
X54356095Y-134627904D01*
X54356095Y-134532666D01*
X54308476Y-134437428D01*
X54260857Y-134389809D01*
X54165619Y-134342190D01*
X53975142Y-134294571D01*
X53879904Y-134246952D01*
X53832285Y-134199333D01*
X53784666Y-134104095D01*
X53784666Y-134008857D01*
X53832285Y-133913619D01*
X53879904Y-133866000D01*
X53975142Y-133818380D01*
X54213238Y-133818380D01*
X54356095Y-133866000D01*
X54689428Y-133818380D02*
X54927523Y-134818380D01*
X55118000Y-134104095D01*
X55308476Y-134818380D01*
X55546571Y-133818380D01*
X55832285Y-133818380D02*
X56451333Y-133818380D01*
X56118000Y-134199333D01*
X56260857Y-134199333D01*
X56356095Y-134246952D01*
X56403714Y-134294571D01*
X56451333Y-134389809D01*
X56451333Y-134627904D01*
X56403714Y-134723142D01*
X56356095Y-134770761D01*
X56260857Y-134818380D01*
X55975142Y-134818380D01*
X55879904Y-134770761D01*
X55832285Y-134723142D01*
X52475142Y-150518761D02*
X52618000Y-150566380D01*
X52856095Y-150566380D01*
X52951333Y-150518761D01*
X52998952Y-150471142D01*
X53046571Y-150375904D01*
X53046571Y-150280666D01*
X52998952Y-150185428D01*
X52951333Y-150137809D01*
X52856095Y-150090190D01*
X52665619Y-150042571D01*
X52570380Y-149994952D01*
X52522761Y-149947333D01*
X52475142Y-149852095D01*
X52475142Y-149756857D01*
X52522761Y-149661619D01*
X52570380Y-149614000D01*
X52665619Y-149566380D01*
X52903714Y-149566380D01*
X53046571Y-149614000D01*
X53475142Y-150566380D02*
X53475142Y-149566380D01*
X53475142Y-150042571D02*
X54046571Y-150042571D01*
X54046571Y-150566380D02*
X54046571Y-149566380D01*
X54522761Y-150566380D02*
X54522761Y-149566380D01*
X55332285Y-150042571D02*
X54998952Y-150042571D01*
X54998952Y-150566380D02*
X54998952Y-149566380D01*
X55475142Y-149566380D01*
X55713238Y-149566380D02*
X56284666Y-149566380D01*
X55998952Y-150566380D02*
X55998952Y-149566380D01*
X56379904Y-150661619D02*
X57141809Y-150661619D01*
X57856095Y-150566380D02*
X57379904Y-150566380D01*
X57379904Y-149566380D01*
G04 #@! TO.C,J2*
X327326666Y-129202380D02*
X327326666Y-129916666D01*
X327279047Y-130059523D01*
X327183809Y-130154761D01*
X327040952Y-130202380D01*
X326945714Y-130202380D01*
X327755238Y-129297619D02*
X327802857Y-129250000D01*
X327898095Y-129202380D01*
X328136190Y-129202380D01*
X328231428Y-129250000D01*
X328279047Y-129297619D01*
X328326666Y-129392857D01*
X328326666Y-129488095D01*
X328279047Y-129630952D01*
X327707619Y-130202380D01*
X328326666Y-130202380D01*
G04 #@! TO.C,J3*
X363666666Y-129202380D02*
X363666666Y-129916666D01*
X363619047Y-130059523D01*
X363523809Y-130154761D01*
X363380952Y-130202380D01*
X363285714Y-130202380D01*
X364047619Y-129202380D02*
X364666666Y-129202380D01*
X364333333Y-129583333D01*
X364476190Y-129583333D01*
X364571428Y-129630952D01*
X364619047Y-129678571D01*
X364666666Y-129773809D01*
X364666666Y-130011904D01*
X364619047Y-130107142D01*
X364571428Y-130154761D01*
X364476190Y-130202380D01*
X364190476Y-130202380D01*
X364095238Y-130154761D01*
X364047619Y-130107142D01*
G04 #@! TO.C,J1*
X333666666Y-77122380D02*
X333666666Y-77836666D01*
X333619047Y-77979523D01*
X333523809Y-78074761D01*
X333380952Y-78122380D01*
X333285714Y-78122380D01*
X334666666Y-78122380D02*
X334095238Y-78122380D01*
X334380952Y-78122380D02*
X334380952Y-77122380D01*
X334285714Y-77265238D01*
X334190476Y-77360476D01*
X334095238Y-77408095D01*
G04 #@! TD*
M02*
